<svg xmlns="http://www.w3.org/2000/svg" xmlns:xlink="http://www.w3.org/1999/xlink" width="370" zoomAndPan="magnify" viewBox="0 0 277.5 284.999983" height="380" preserveAspectRatio="xMidYMid meet" version="1.0"><path stroke-linecap="round" transform="matrix(0.237874, 0, 0, 0.237874, 153.330344, 103.781265)" fill-opacity="1" fill="#f7faf7" fill-rule="nonzero" stroke-linejoin="round" d="M 362.084419 314.438537 C 362.084419 314.438537 -362.086657 314.438537 -362.086657 314.438537 C -375.995655 314.438537 -387.277215 303.156977 -387.277215 289.231557 C -387.277215 289.231557 -387.277215 -289.23168 -387.277215 -289.23168 C -387.277215 -303.1571 -375.995655 -314.43866 -362.086657 -314.43866 C -362.086657 -314.43866 362.084419 -314.43866 362.084419 -314.43866 C 376.009838 -314.43866 387.291399 -303.1571 387.291399 -289.23168 C 387.291399 -289.23168 387.291399 289.231557 387.291399 289.231557 C 387.291399 303.156977 376.009838 314.438537 362.084419 314.438537 Z M 362.084419 314.438537 " stroke="#000000" stroke-width="2" stroke-opacity="1" stroke-miterlimit="4"/><path stroke-linecap="round" transform="matrix(0.237874, 0, 0, 0.237874, 153.33011, 106.034644)" fill="none" stroke-linejoin="round" d="M 349.490127 279.758574 C 349.490127 279.758574 -349.490391 279.758574 -349.490391 279.758574 C -358.013142 279.758574 -364.926587 272.845128 -364.926587 264.322377 C -364.926587 264.322377 -364.926587 -264.318074 -364.926587 -264.318074 C -364.926587 -272.840825 -358.013142 -279.75427 -349.490391 -279.75427 C -349.490391 -279.75427 349.490127 -279.75427 349.490127 -279.75427 C 358.012878 -279.75427 364.926323 -272.840825 364.926323 -264.318074 C 364.926323 -264.318074 364.926323 264.322377 364.926323 264.322377 C 364.926323 272.845128 358.012878 279.758574 349.490127 279.758574 Z M 349.490127 279.758574 " stroke="#000000" stroke-width="2" stroke-opacity="1" stroke-miterlimit="4"/><path stroke-linecap="round" transform="matrix(0.237874, 0, 0, 0.237874, 218.695374, 34.088128)" fill="none" stroke-linejoin="round" d="M 12.085955 0.0072126 C 12.085955 6.674336 6.666865 12.077004 -0.00025834 12.077004 C -6.667381 12.077004 -12.086471 6.674336 -12.086471 0.0072126 C -12.086471 -6.676332 -6.667381 -12.079001 -0.00025834 -12.079001 C 6.666865 -12.079001 12.085955 -6.676332 12.085955 0.0072126 Z M 12.085955 0.0072126 " stroke="#000000" stroke-width="2" stroke-opacity="1" stroke-miterlimit="4"/><path stroke-linecap="round" transform="matrix(0.237874, 0, 0, 0.237874, 226.41629, 34.088128)" fill="none" stroke-linejoin="round" d="M 11.32146 11.321616 C 11.32146 11.321616 -11.323768 11.321616 -11.323768 11.321616 C -11.323768 11.321616 -11.323768 -11.323612 -11.323768 -11.323612 C -11.323768 -11.323612 11.32146 -11.323612 11.32146 -11.323612 C 11.32146 -11.323612 11.32146 11.321616 11.32146 11.321616 Z M 11.32146 11.321616 " stroke="#000000" stroke-width="2" stroke-opacity="1" stroke-miterlimit="4"/><path stroke-linecap="round" transform="matrix(0.237874, 0, 0, 0.237874, 234.136725, 34.205635)" fill="none" stroke-linejoin="round" d="M -0.0000248214 -11.587698 C -0.0000248214 -11.587698 -13.383535 11.583017 -13.383535 11.583017 C -13.383535 11.583017 13.383486 11.583017 13.383486 11.583017 C 13.383486 11.583017 -0.0000248214 -11.587698 -0.0000248214 -11.587698 Z M -0.0000248214 -11.587698 " stroke="#000000" stroke-width="2" stroke-opacity="1" stroke-miterlimit="4"/><path stroke-linecap="round" transform="matrix(0.237874, 0, 0, 0.237874, 186.290467, 101.273839)" fill-opacity="1" fill="#fef9c3" fill-rule="nonzero" stroke-linejoin="round" d="M -4.423285 -189.505629 C -60.256335 -192.822769 -115.563897 -152.376651 -129.341523 -98.169328 C -136.254968 -70.975349 -133.561845 -42.418386 -134.777035 -14.370489 C -135.975803 13.447507 -141.115728 41.084866 -149.950487 67.490614 C -153.793115 78.969233 -158.407552 90.54638 -158.177651 102.632593 C -157.767114 125.474879 -140.508133 144.343165 -122.625136 158.564171 C -109.717848 168.8276 -95.743164 178.023631 -80.241282 183.656201 C -54.968617 192.819389 -26.937141 191.949051 -0.777716 185.823837 C 25.398132 179.698623 50.079624 168.564856 74.514794 157.381824 C 96.831592 147.167661 119.427556 136.625067 137.93457 120.499169 C 148.690643 111.138922 158.39574 98.642172 158.264369 84.388323 C 158.198683 77.359927 155.73546 70.594275 153.025915 64.107789 C 146.851436 49.361295 139.231867 35.205975 130.315001 21.937415 C 126.43953 16.173473 122.268473 10.442375 120.396424 3.75883 C 116.767275 -9.164878 122.399845 -22.597653 126.357423 -35.422833 C 135.586298 -65.424887 135.307132 -99.51589 119.608192 -126.693448 C 107.407029 -147.795056 85.385817 -162.853558 61.147705 -165.793004 C 36.712535 -168.748872 21.998884 -187.929166 -4.423285 -189.505629 Z M -4.423285 -189.505629 " stroke="#000000" stroke-width="2" stroke-opacity="1" stroke-miterlimit="4"/><path fill="#dcfce7" d="M 227.921875 121.550781 C 227.921875 121.550781 228.101562 121.570312 228.101562 121.570312 C 234.359375 122.339844 240.527344 125.742188 245.722656 129.320312 C 247.175781 130.320312 248.570312 131.460938 249.558594 132.921875 C 250.542969 134.367188 251.085938 136.074219 251.386719 137.796875 C 251.949219 141.015625 251.683594 144.320312 251.339844 147.574219 C 249.625 163.746094 245.636719 180.363281 235.25 192.878906 C 231.589844 197.285156 226.980469 201.203125 221.421875 202.582031 C 220.023438 202.925781 218.554688 203.105469 217.140625 202.828125 C 215.859375 202.574219 214.6875 201.953125 213.542969 201.328125 C 208.648438 198.640625 203.5625 195.132812 202.09375 189.746094 C 200.871094 185.261719 202.464844 180.539062 204.039062 176.164062 C 205.617188 171.785156 207.195312 167.40625 208.769531 163.023438 C 213.957031 148.621094 219.566406 134.375 227.921875 121.550781 Z M 227.921875 121.550781 " fill-opacity="1" fill-rule="nonzero"/><path stroke-linecap="round" transform="matrix(0.236101, 0.0289896, -0.0289896, 0.236101, 236.904716, 157.866931)" fill="none" stroke-linejoin="round" d="M -56.087214 -146.929341 C -56.087214 -146.929341 -55.32745 -146.939904 -55.32745 -146.939904 C -28.82207 -146.935028 -1.34271 -135.898542 22.168237 -123.63028 C 28.743822 -120.20219 35.146966 -116.157313 40.019111 -110.56778 C 44.866951 -105.041441 48.007081 -98.19692 50.144672 -91.163123 C 54.140791 -78.020863 54.725533 -64.095754 54.958276 -50.342507 C 56.088259 18.01425 47.960323 89.393845 11.033152 146.937493 " stroke="#000000" stroke-width="2" stroke-opacity="1" stroke-miterlimit="4"/><path fill="#dcfce7" d="M 223.847656 177.199219 C 223.132812 171.417969 223.367188 165.566406 223.730469 159.753906 C 224.535156 147.015625 225.792969 134.859375 227.847656 122.261719 C 223.734375 120.5 219.617188 118.734375 215.503906 116.972656 C 212.347656 115.617188 209.167969 114.257812 205.8125 113.527344 C 200.972656 112.476562 196.445312 113.644531 191.570312 112.785156 C 184.503906 111.546875 177.667969 115.320312 170.773438 117.300781 C 166.324219 118.578125 161.703125 119.121094 157.175781 120.074219 C 151.183594 121.339844 145.347656 123.332031 139.835938 126 C 137.414062 127.171875 135.03125 128.488281 133.039062 130.296875 C 130.957031 132.195312 129.347656 134.609375 128.402344 137.265625 C 127.539062 139.683594 127.230469 142.261719 127 144.820312 C 126.046875 155.507812 126.402344 166.3125 128.0625 176.914062 C 131.429688 176.953125 134.8125 176.855469 138.175781 176.722656 C 142.871094 176.539062 147.570312 176.351562 152.265625 176.167969 C 172.59375 175.367188 192.964844 174.570312 213.265625 175.929688 C 216.867188 176.167969 220.429688 176.039062 223.847656 177.199219 Z M 223.847656 177.199219 " fill-opacity="1" fill-rule="nonzero"/><path stroke-linecap="round" transform="matrix(0.237874, 0, 0, 0.237874, 176.947695, 144.372861)" fill="none" stroke-linejoin="round" d="M 213.978357 -92.953035 C 196.686533 -100.359125 179.378288 -107.781636 162.086464 -115.187726 C 148.817904 -120.885982 135.450815 -126.600658 121.344759 -129.655055 C 100.998539 -134.088856 81.966038 -129.178832 61.472024 -132.791558 C 31.765557 -137.997169 3.027958 -122.134015 -25.955963 -113.808322 C -44.660035 -108.438496 -64.086652 -106.155909 -83.119153 -102.149067 C -108.309711 -96.828506 -132.84341 -88.453548 -156.014126 -77.237674 C -166.195447 -72.311228 -176.212553 -66.777188 -184.58751 -59.17404 C -193.340162 -51.193198 -200.105814 -41.044721 -204.079813 -29.878111 C -207.708961 -19.713211 -209.006258 -8.875031 -209.975126 1.881042 C -213.981968 46.810225 -212.487613 92.232053 -205.508482 136.799964 C -191.353162 136.964179 -177.132156 136.553642 -162.993257 135.995311 C -143.254632 135.223501 -123.499585 134.43527 -103.76096 133.66346 C -18.303551 130.297056 67.334494 126.947073 152.676953 132.66175 C 167.817562 133.66346 182.793957 133.121551 197.162756 137.998732 " stroke="#000000" stroke-width="2" stroke-opacity="1" stroke-miterlimit="4"/><path stroke-linecap="round" transform="matrix(0.237874, 0, 0, 0.237874, 187.179388, 126.416203)" fill="none" stroke-linejoin="round" d="M -65.618996 -38.71444 C -77.228986 -33.049028 -87.755158 -25.166715 -96.474967 -15.625832 C -105.572469 -5.690833 -112.945716 8.513751 -107.592312 20.862708 C -102.633024 32.357748 -88.756869 37.1364 -76.243697 37.776838 C -51.020296 39.074135 -25.452043 28.203112 -8.882765 9.137768 C 13.893835 34.903078 54.750491 45.675572 86.542486 32.538384 C 98.464484 27.611939 110.14016 18.383064 111.733044 5.574306 C 112.931813 -4.114371 108.087475 -13.458196 102.963971 -21.783889 C 97.692674 -30.355904 91.912312 -38.71444 84.637594 -45.67715 " stroke="#000000" stroke-width="2" stroke-opacity="1" stroke-miterlimit="4"/><path fill="#e5cfb8" d="M 179.425781 108.582031 C 179.425781 108.582031 178.929688 115.78125 178.929688 115.78125 C 175.859375 137.785156 199.902344 131.207031 200.988281 112.179688 C 200.988281 112.179688 200.988281 92.882812 200.988281 92.882812 C 200.988281 92.882812 179.425781 108.582031 179.425781 108.582031 Z M 179.425781 108.582031 " fill-opacity="1" fill-rule="nonzero"/><path fill="#e5cfb8" d="M 164.019531 81.753906 C 162.734375 86.382812 162.710938 91.296875 163.425781 96.050781 C 164.011719 99.96875 165.207031 104.011719 168.054688 106.769531 C 170.292969 108.933594 173.378906 110.097656 176.480469 110.367188 C 179.582031 110.636719 182.710938 110.058594 185.675781 109.109375 C 190.105469 107.691406 194.347656 105.367188 197.382812 101.84375 C 200.828125 97.84375 202.488281 92.609375 203.433594 87.417969 C 204.074219 83.898438 204.425781 80.285156 203.875 76.753906 C 203.324219 73.21875 201.8125 69.753906 199.175781 67.339844 C 195.777344 64.226562 190.84375 63.179688 186.269531 63.761719 C 176.09375 65.050781 166.804688 71.726562 164.019531 81.753906 Z M 164.019531 81.753906 " fill-opacity="1" fill-rule="nonzero"/><path stroke-linecap="round" transform="matrix(0.237874, 0, 0, 0.237874, 183.567761, 88.986677)" fill="none" stroke-linejoin="round" d="M -82.178808 -30.405845 C -87.581477 -10.946385 -87.680006 9.711844 -84.674874 29.696791 C -82.211651 46.167541 -77.186677 63.163778 -65.215414 74.757346 C -55.805903 83.854849 -42.83293 88.748452 -29.79427 89.881534 C -16.755611 91.014617 -3.602001 88.584237 8.861906 84.593816 C 27.48387 78.632817 45.317603 68.862033 58.077097 54.049854 C 72.560847 37.234253 79.539978 15.229463 83.513978 -6.594691 C 86.207101 -21.390449 87.685035 -36.580323 85.369605 -51.425346 C 83.054176 -66.28679 76.699061 -80.852647 65.614559 -91.001125 " stroke="#000000" stroke-width="2" stroke-opacity="1" stroke-miterlimit="4"/><path stroke-linecap="round" transform="matrix(0.237874, 0, 0, 0.237874, 172.778734, 93.341677)" fill="none" stroke-linejoin="round" d="M 3.803939 -18.18629 C 0.618171 -6.215027 -1.927159 5.936872 -3.799208 18.1873 " stroke="#000000" stroke-width="2" stroke-opacity="1" stroke-miterlimit="4"/><path stroke-linecap="round" transform="matrix(0.237874, 0, 0, 0.237874, 174.439336, 99.285688)" fill="none" stroke-linejoin="round" d="M -11.223591 -2.350509 C -9.696393 0.145557 -6.379253 1.39359 -3.571179 0.523251 C -1.994716 0.0306068 -0.59889 -1.053211 1.05968 -1.217426 C 4.590299 -1.578699 8.104497 2.346036 11.224579 0.638202 " stroke="#000000" stroke-width="2" stroke-opacity="1" stroke-miterlimit="4"/><path fill="#000000" d="M 179.894531 82 C 179.644531 82.109375 179.375 82.226562 179.105469 82.167969 C 178.597656 82.058594 178.433594 81.34375 178.695312 80.890625 C 178.953125 80.4375 179.46875 80.203125 179.957031 80.019531 C 182.472656 79.066406 185.21875 78.714844 187.894531 79.003906 C 188.980469 79.117188 190.078125 79.34375 191.039062 79.871094 C 191.953125 80.371094 192.839844 81.230469 193.082031 82.273438 C 191.050781 81.628906 189.238281 80.867188 187.042969 80.742188 C 184.605469 80.609375 182.136719 81.027344 179.894531 82 Z M 179.894531 82 " fill-opacity="1" fill-rule="nonzero"/><path fill="#000000" d="M 173.488281 82.296875 C 173.6875 82.320312 173.902344 82.34375 174.078125 82.25 C 174.492188 82.027344 174.347656 81.367188 174.007812 81.042969 C 173.402344 80.472656 172.492188 80.40625 171.660156 80.417969 C 169.410156 80.445312 167.066406 80.835938 165.257812 82.171875 C 164.808594 82.503906 163.601562 83.476562 164.410156 83.835938 C 165 84.09375 166.453125 83.113281 167.007812 82.933594 C 169.089844 82.261719 171.316406 82.039062 173.488281 82.296875 Z M 173.488281 82.296875 " fill-opacity="1" fill-rule="nonzero"/><path fill="#dcfce7" d="M 179.507812 103.304688 C 179.28125 103.410156 179.082031 103.578125 178.84375 103.652344 C 178.277344 103.820312 177.691406 103.398438 177.101562 103.445312 C 176.558594 103.492188 176.105469 103.964844 176.007812 104.503906 C 175.910156 105.039062 176.136719 105.605469 176.523438 105.988281 C 176.910156 106.375 177.4375 106.59375 177.976562 106.683594 C 179.003906 106.859375 180.082031 106.582031 180.941406 105.996094 C 181.800781 105.410156 182.441406 104.53125 182.8125 103.558594 C 182.898438 103.324219 182.902344 103.136719 182.699219 102.984375 C 181.914062 103.835938 180.484375 102.855469 179.507812 103.304688 Z M 179.507812 103.304688 " fill-opacity="1" fill-rule="nonzero"/><path stroke-linecap="round" transform="matrix(0.237874, 0, 0, 0.237874, 180.093843, 103.59644)" fill="none" stroke-linejoin="round" d="M -17.801281 5.637682 C -5.008944 6.737922 7.405699 0.809765 17.800499 -6.744118 C 17.685548 -6.481374 17.570598 -6.21863 17.472069 -5.955886 " stroke="#000000" stroke-width="2" stroke-opacity="1" stroke-miterlimit="4"/><path fill="#f7faf7" d="M 190.816406 91.65625 C 186.8125 88.40625 182.824219 87.535156 178.863281 90.421875 C 181.46875 94.136719 185.496094 94.445312 190.816406 91.65625 Z M 190.816406 91.65625 " fill-opacity="1" fill-rule="nonzero"/><path fill="#000000" d="M 178.867188 90.421875 C 179.417969 90.3125 179.722656 90.050781 180.367188 89.796875 C 182.144531 89.089844 184.332031 88.625 186.035156 89.066406 C 187.660156 89.484375 189.253906 90.378906 190.824219 91.65625 C 190.824219 91.65625 194.359375 90.246094 194.359375 90.246094 C 194.359375 90.246094 190.78125 90.386719 190.78125 90.386719 C 185.769531 86.71875 182.792969 86.492188 178.867188 90.421875 Z M 178.867188 90.421875 " fill-opacity="1" fill-rule="nonzero"/><path fill="#000000" d="M 185.796875 92.609375 C 185.875 91.144531 184.753906 89.890625 183.285156 89.8125 C 181.855469 89.730469 180.773438 90.785156 180.644531 92.207031 C 182.117188 93.175781 182.625 93.660156 185.609375 93.578125 C 185.75 93.28125 185.777344 92.957031 185.796875 92.609375 Z M 185.796875 92.609375 " fill-opacity="1" fill-rule="nonzero"/><path fill="#f7faf7" d="M 163.015625 91.433594 C 165.851562 88.941406 168.675781 88.273438 171.480469 90.484375 C 169.636719 93.332031 166.785156 93.570312 163.015625 91.433594 Z M 163.015625 91.433594 " fill-opacity="1" fill-rule="nonzero"/><path fill="#000000" d="M 171.480469 90.484375 C 171.019531 90.164062 170.558594 89.90625 170.101562 89.710938 C 168.84375 89.167969 167.613281 89.109375 166.40625 89.445312 C 165.257812 89.769531 164.125 90.453125 163.015625 91.433594 C 163.015625 91.433594 160.511719 90.351562 160.511719 90.351562 C 160.511719 90.351562 163.046875 90.460938 163.046875 90.460938 C 166.59375 87.648438 168.703125 87.476562 171.480469 90.484375 Z M 171.480469 90.484375 " fill-opacity="1" fill-rule="nonzero"/><path fill="#000000" d="M 165.234375 91.71875 C 165.519531 90.628906 166.566406 89.957031 167.574219 90.210938 C 168.558594 90.460938 169.140625 91.503906 168.898438 92.570312 C 167.683594 92.964844 166.441406 92.960938 165.171875 92.484375 C 165.148438 92.238281 165.167969 91.976562 165.234375 91.71875 Z M 165.234375 91.71875 " fill-opacity="1" fill-rule="nonzero"/><path fill="#fef9c3" d="M 169.84375 81.542969 C 173.660156 78.746094 176.757812 75.082031 180.445312 72.117188 C 184.128906 69.148438 188.761719 66.835938 193.445312 67.511719 C 194.777344 67.703125 196.207031 68.238281 196.824219 69.4375 C 197.144531 70.058594 197.199219 70.777344 197.191406 71.476562 C 197.164062 73.671875 196.53125 75.8125 196.289062 77.992188 C 196.046875 80.175781 196.257812 82.566406 197.667969 84.25 C 199.164062 86.039062 201.707031 86.628906 204.039062 86.46875 C 205.941406 86.34375 207.988281 85.65625 208.949219 84.011719 C 209.683594 82.753906 209.640625 81.195312 209.421875 79.753906 C 208.613281 74.441406 205.652344 69.453125 201.253906 66.363281 C 197.324219 63.597656 192.40625 62.414062 187.601562 62.574219 C 182.796875 62.738281 178.101562 64.191406 173.785156 66.3125 C 168.402344 68.957031 163.25 73.078125 161.648438 78.859375 C 159.722656 85.808594 166.023438 84.335938 169.84375 81.542969 Z M 169.84375 81.542969 " fill-opacity="1" fill-rule="nonzero"/><path stroke-linecap="round" transform="matrix(0.237874, 0, 0, 0.237874, 184.703605, 76.495418)" fill="none" stroke-linejoin="round" d="M -96.921624 9.937838 C -105.017416 39.15166 -78.52956 32.96076 -62.469348 21.219398 C -46.425557 9.461615 -33.403319 -5.941738 -17.901437 -18.405645 C -2.415976 -30.885974 17.059905 -40.607493 36.749266 -37.766576 C 42.348992 -36.961924 48.359256 -34.71218 50.953851 -29.670784 C 52.300412 -27.059768 52.530313 -24.038215 52.49747 -21.098769 C 52.38252 -11.869894 49.722239 -2.87092 48.704107 6.292268 C 47.685975 15.471879 48.572735 25.521828 54.500891 32.599488 C 60.79032 40.120528 71.480707 42.600172 81.284334 41.926891 C 89.281597 41.401404 97.886455 38.511222 101.926141 31.597777 C 105.01338 26.310059 104.832744 19.757886 103.91314 13.698358 C 100.513893 -8.634862 88.066407 -29.605098 69.575815 -42.594493 " stroke="#000000" stroke-width="2" stroke-opacity="1" stroke-miterlimit="4"/><path fill="#e5cfb8" d="M 205.261719 83.96875 C 206.664062 83.890625 208.164062 84.671875 208.636719 85.996094 C 208.863281 86.621094 208.851562 87.308594 208.765625 87.972656 C 208.371094 91.15625 206.457031 93.914062 204.601562 96.53125 C 204.28125 96.980469 203.957031 97.433594 203.539062 97.796875 C 203.082031 98.1875 202.527344 98.453125 201.960938 98.664062 C 200.976562 99.03125 199.671875 99.160156 199.046875 98.3125 C 198.636719 97.757812 198.695312 97 198.769531 96.316406 C 199.207031 92.339844 199.253906 83.96875 205.261719 83.96875 Z M 205.261719 83.96875 " fill-opacity="1" fill-rule="nonzero"/><path stroke-linecap="round" transform="matrix(0.237874, 0, 0, 0.237874, 203.456188, 91.399439)" fill="none" stroke-linejoin="round" d="M -8.666998 -13.732571 C -6.860635 -18.938182 -2.49252 -23.207768 2.778777 -24.866338 C 5.258421 -25.654569 8.066495 -25.851627 10.365503 -24.636437 C 14.552982 -22.452379 15.357635 -16.721281 14.42161 -12.090422 C 13.469164 -7.377456 11.301528 -3.009341 9.150313 1.293088 C 7.097627 5.398459 5.061363 9.487409 3.008678 13.592781 C 1.169471 17.287615 -0.817528 21.130242 -4.216776 23.445672 C -7.632445 25.761101 -12.936584 25.843208 -15.366964 22.526068 " stroke="#000000" stroke-width="2" stroke-opacity="1" stroke-miterlimit="4"/><path stroke-linecap="round" transform="matrix(0.237874, 0, 0, 0.237874, 201.858622, 91.888503)" fill="none" stroke-linejoin="round" d="M -7.370079 -0.943526 C -5.317394 -4.621939 -2.213733 -7.709178 1.46468 -9.729021 C 2.844084 -10.484409 4.551919 -11.092004 5.914902 -10.336616 C 7.212199 -9.597649 7.639158 -7.824128 7.195778 -6.395459 C 6.735976 -4.983211 5.619315 -3.86655 4.420547 -2.97979 C 2.745555 -1.731757 0.840663 -0.779311 -1.179179 -0.204559 C 0.118118 1.076317 1.2512 2.537829 2.187225 4.114291 C 3.336729 6.101291 3.960745 9.090001 2.055853 10.370877 C 0.988457 11.093423 -0.440213 10.929208 -1.655403 10.551514 C -3.921568 9.878233 -6.007096 8.613778 -7.632823 6.922365 " stroke="#000000" stroke-width="2" stroke-opacity="1" stroke-miterlimit="4"/><path stroke-linecap="round" transform="matrix(0.237874, 0, 0, 0.237874, 209.19062, 85.632646)" fill="none" stroke-linejoin="round" d="M -9.094198 1.823486 C -7.698371 -1.838505 -5.809901 -5.582603 -2.459918 -7.602446 C 0.890065 -9.622289 6.046412 -9.047537 7.803511 -5.54976 C 9.084386 -2.971587 8.181205 0.164916 6.851065 2.726668 C 5.14323 6.076651 2.302313 9.311684 -1.458207 9.623692 " stroke="#000000" stroke-width="2" stroke-opacity="1" stroke-miterlimit="4"/><path stroke-linecap="round" transform="matrix(0.237874, 0, 0, 0.237874, 203.108648, 97.892934)" fill="none" stroke-linejoin="round" d="M 0.774864 -8.23687 C -0.226846 -10.01039 -2.821441 -10.420927 -4.57854 -9.386374 C -6.319217 -8.368242 -7.23882 -6.266291 -7.288085 -4.230027 C -7.337349 -2.210185 -6.664068 -0.239606 -5.859416 1.632443 C -5.202556 3.159641 -4.447168 4.653996 -3.593251 6.099087 C -2.361639 8.201037 -0.506011 10.417938 1.94079 10.253723 C 4.584649 10.073086 6.128269 7.182905 6.670178 4.58831 C 7.343458 1.304013 7.212087 -2.128077 6.276062 -5.346688 " stroke="#000000" stroke-width="2" stroke-opacity="1" stroke-miterlimit="4"/><path stroke-linecap="round" transform="matrix(0.237874, 0, 0, 0.237874, 92.744698, 211.53192)" fill-opacity="1" fill="#fef9c3" fill-rule="nonzero" stroke-linejoin="round" d="M 294.820791 159.104955 C 286.068139 116.277722 274.950794 73.943133 261.53444 32.347511 C 247.165641 -12.236822 228.494412 -58.249823 191.463963 -86.938158 C 174.763312 -99.878288 155.238166 -108.515989 135.910078 -117.03874 C 103.871761 -131.177639 71.833443 -145.300116 39.811547 -159.439015 C 23.422905 -166.664468 6.870048 -171.853658 -10.980107 -170.589203 C -73.15185 -166.188245 -134.436832 -149.865289 -190.532626 -122.736995 C -223.490547 -106.824576 -256.48131 -85.148216 -270.882953 -51.517014 C -275.38244 -41.007264 -277.862084 -29.774968 -280.046142 -18.575515 C -290.211041 33.3328 -294.825478 86.308511 -293.823768 139.185693 C -293.758082 142.913371 -292.986272 147.544229 -289.42281 148.595205 C -232.423835 165.410805 -178.462834 150.582204 -119.214116 155.29517 C -90.870632 157.544914 -62.789892 162.422095 -34.462831 164.786789 C 49.894339 171.848028 134.809839 156.493939 219.281959 161.945872 C 243.027426 163.489492 273.325067 169.269854 294.820791 159.104955 Z M 294.820791 159.104955 " stroke="#000000" stroke-width="2" stroke-opacity="1" stroke-miterlimit="4"/><path fill="#e5cfb8" d="M 65.800781 159.660156 C 65.800781 159.660156 67.558594 175.554688 67.558594 175.554688 C 73.09375 189.617188 94.199219 189.484375 95.433594 175.554688 C 95.433594 175.554688 90.277344 158.074219 90.277344 158.074219 C 90.277344 158.074219 65.800781 159.660156 65.800781 159.660156 Z M 65.800781 159.660156 " fill-opacity="1" fill-rule="nonzero"/><path stroke-linecap="round" transform="matrix(0.237874, 0, 0, 0.237874, 81.666644, 184.068139)" fill="none" stroke-linejoin="round" d="M -95.009144 -26.18313 C -81.888377 0.321147 -57.48605 20.995797 -29.191831 29.567812 C -0.881191 38.139827 30.894383 34.494258 56.5119 19.714921 C 77.465715 7.645129 95.003861 -13.981967 94.051415 -38.137972 " stroke="#000000" stroke-width="2" stroke-opacity="1" stroke-miterlimit="4"/><path stroke-linecap="round" transform="matrix(0.237874, 0, 0, 0.237874, 139.82639, 163.145666)" fill-opacity="1" fill="#f7faf7" fill-rule="nonzero" stroke-linejoin="round" d="M 97.895767 -119.930875 C 97.895767 -119.930875 157.932717 2.885412 157.932717 2.885412 C 162.465047 12.163551 158.62242 23.346583 149.360702 27.878913 C 149.360702 27.878913 -56.499036 128.509774 -56.499036 128.509774 C -65.760754 133.042104 -76.960207 129.199476 -81.476115 119.937759 C -81.476115 119.937759 -157.934551 -36.460466 -157.934551 -36.460466 C -162.46688 -45.738605 -158.624253 -56.921637 -149.362535 -61.453967 C -149.362535 -61.453967 -105.911285 -82.686947 -105.911285 -82.686947 C -96.633146 -87.219277 -85.450115 -83.393071 -80.917785 -74.114932 C -76.385455 -64.836793 -65.202424 -60.994165 -55.924284 -65.526495 C -55.924284 -65.526495 72.902267 -128.519312 72.902267 -128.519312 C 82.180406 -133.051642 93.363437 -129.209015 97.895767 -119.930875 Z M 97.895767 -119.930875 " stroke="#000000" stroke-width="2" stroke-opacity="1" stroke-miterlimit="4"/><path stroke-linecap="round" transform="matrix(0.237874, 0, 0, 0.237874, 143.031508, 154.445171)" fill-opacity="1" fill="#f7faf7" fill-rule="nonzero" stroke-linejoin="round" d="M 97.88739 -119.941935 C 97.88739 -119.941935 157.940762 2.890774 157.940762 2.890774 C 162.473092 12.168914 158.630464 23.351945 149.352325 27.884275 C 149.352325 27.884275 -56.490992 128.515136 -56.490992 128.515136 C -65.769131 133.047466 -76.952163 129.204839 -81.484492 119.926699 C -81.484492 119.926699 -157.942928 -36.471526 -157.942928 -36.471526 C -162.475257 -45.733243 -158.63263 -56.916275 -149.354491 -61.448605 C -149.354491 -61.448605 -105.919662 -82.698006 -105.919662 -82.698006 C -96.641523 -87.230336 -85.458492 -83.387709 -80.926162 -74.10957 C -76.393832 -64.847852 -65.194379 -61.005224 -55.932662 -65.537554 C -55.932662 -65.537554 72.910311 -128.51395 72.910311 -128.51395 C 82.172029 -133.04628 93.371482 -129.203652 97.88739 -119.941935 Z M 97.88739 -119.941935 " stroke="#000000" stroke-width="2" stroke-opacity="1" stroke-miterlimit="4"/><path fill="#e5cfb8" d="M 179.285156 144.824219 C 180.960938 141.691406 182.339844 138.402344 183.398438 135.011719 C 183.75 133.882812 184.070312 132.699219 183.859375 131.535156 C 183.652344 130.371094 182.757812 129.25 181.582031 129.164062 C 180.570312 129.085938 179.664062 129.753906 178.925781 130.445312 C 177.097656 132.152344 175.625 134.238281 174.625 136.53125 C 174.449219 136.9375 174.246094 137.390625 173.839844 137.5625 C 173.476562 137.714844 173.066406 137.597656 172.691406 137.480469 C 172.691406 137.480469 161.429688 133.90625 161.429688 133.90625 C 159.078125 133.160156 156.695312 132.40625 154.230469 132.296875 C 153.71875 132.273438 153.175781 132.289062 152.75 132.566406 C 152.027344 133.035156 151.925781 134.105469 152.292969 134.886719 C 152.65625 135.664062 153.363281 136.21875 154.046875 136.742188 C 155.566406 137.902344 157.082031 139.066406 158.601562 140.230469 C 156.65625 140.378906 154.726562 140.714844 152.847656 141.226562 C 152.144531 141.414062 151.367188 141.703125 151.089844 142.375 C 150.589844 143.5625 152 144.605469 152.613281 145.738281 C 153.828125 147.972656 151.839844 150.738281 152.378906 153.21875 C 152.769531 155.011719 154.417969 156.273438 156.128906 156.925781 C 157.84375 157.578125 159.695312 157.777344 161.433594 158.363281 C 164.117188 159.261719 166.476562 161.097656 168.015625 163.476562 C 168.292969 163.90625 168.589844 164.390625 169.082031 164.527344 C 169.503906 164.644531 169.945312 164.46875 170.34375 164.289062 C 174.765625 162.28125 178.582031 159.003906 181.316406 155 C 182.246094 153.636719 184.382812 150.914062 183.941406 149.140625 C 183.515625 147.433594 180.527344 145.84375 179.285156 144.824219 Z M 179.285156 144.824219 " fill-opacity="1" fill-rule="nonzero"/><path fill="#dcfce7" d="M 243.230469 178.324219 C 243.015625 174.648438 240.773438 171.402344 238.238281 168.738281 C 233 163.226562 226.277344 159.339844 219.339844 156.222656 C 212.402344 153.101562 205.171875 150.679688 198.210938 147.625 C 192.941406 145.3125 187.839844 143.199219 182.148438 142.355469 C 173.238281 147.621094 166.394531 156.285156 163.335938 166.171875 C 167.484375 169.855469 171.351562 174.296875 175.503906 177.980469 C 181.859375 183.621094 188.257812 189.292969 195.53125 193.6875 C 197.648438 194.96875 199.835938 196.136719 202.074219 197.183594 C 206.277344 199.148438 210.699219 200.703125 215.289062 201.378906 C 217.582031 201.714844 219.949219 201.828125 222.195312 201.253906 C 223.761719 200.855469 225.226562 200.132812 226.644531 199.351562 C 234.832031 194.855469 243.777344 187.648438 243.230469 178.324219 Z M 243.230469 178.324219 " fill-opacity="1" fill-rule="nonzero"/><path stroke-linecap="round" transform="matrix(0.229769, 0.0615664, -0.0615664, 0.229769, 197.97979, 171.6057)" fill="none" stroke-linejoin="round" d="M 69.998314 -85.706045 C 38.43161 -90.831389 6.436044 -92.798682 -25.153578 -97.628872 C -49.067446 -101.285628 -72.08249 -104.316183 -96.111374 -101.549829 C -126.563192 -70.473247 -144.926376 -27.845132 -146.589033 15.629332 C -125.735723 26.073433 -105.199936 39.900764 -84.330765 50.340615 C -52.386114 66.330187 -20.23298 82.399903 14.083414 92.330721 C 24.074647 95.229832 34.22814 97.592443 44.456082 99.408081 C 63.661373 102.813427 83.308663 104.315259 102.681722 102.065397 C 112.358196 100.93466 122.093785 98.819039 130.58962 94.043473 C 136.516737 90.721227 141.678678 86.192947 146.586522 81.477739 " stroke="#000000" stroke-width="2" stroke-opacity="1" stroke-miterlimit="4"/><path fill="#e5cfb8" d="M 111.148438 183.257812 C 111.761719 181.089844 111.132812 178.777344 110.367188 176.660156 C 109.597656 174.542969 108.671875 172.410156 108.679688 170.15625 C 108.6875 167.902344 109.945312 165.460938 112.132812 164.921875 C 112.730469 164.777344 113.394531 164.789062 113.933594 165.09375 C 114.78125 165.582031 115.089844 166.632812 115.328125 167.582031 C 116.050781 170.511719 116.777344 173.4375 117.503906 176.363281 C 121.78125 171.621094 126.261719 167.054688 130.925781 162.691406 C 132.316406 161.386719 134.363281 160.035156 135.949219 161.085938 C 137.230469 161.941406 137.234375 163.835938 136.804688 165.316406 C 136.375 166.800781 135.648438 168.304688 135.976562 169.8125 C 136.390625 171.703125 138.363281 173.027344 138.546875 174.953125 C 138.664062 176.179688 138.015625 177.34375 137.90625 178.570312 C 137.804688 179.671875 138.140625 180.761719 138.195312 181.863281 C 138.433594 186.546875 133.914062 189.902344 129.910156 192.34375 C 125.941406 194.765625 121.511719 197.925781 121.300781 202.574219 C 116.675781 200.464844 109 197.640625 105.640625 193.714844 C 102.859375 190.46875 110.109375 186.921875 111.148438 183.257812 Z M 111.148438 183.257812 " fill-opacity="1" fill-rule="nonzero"/><path fill="#dcfce7" d="M 175.484375 203.246094 C 175.484375 203.246094 166.148438 219.414062 166.148438 219.414062 C 166.148438 219.414062 184.816406 219.414062 184.816406 219.414062 C 184.816406 219.414062 175.484375 203.246094 175.484375 203.246094 Z M 175.484375 203.246094 " fill-opacity="1" fill-rule="nonzero"/><path stroke-linecap="round" transform="matrix(0.237874, 0, 0, 0.237874, 183.150035, 218.997842)" fill="none" stroke-linejoin="round" d="M 32.228658 32.228028 C 32.228658 32.228028 -32.225672 32.228028 -32.225672 32.228028 C -32.225672 32.228028 -32.225672 -32.226302 -32.225672 -32.226302 C -32.225672 -32.226302 32.228658 -32.226302 32.228658 -32.226302 C 32.228658 -32.226302 32.228658 32.228028 32.228658 32.228028 Z M 32.228658 32.228028 " stroke="#000000" stroke-width="2" stroke-opacity="1" stroke-miterlimit="4"/><path fill="#fef9c3" d="M 51.46875 98.421875 C 51.46875 103.101562 47.675781 106.898438 42.996094 106.898438 C 38.316406 106.898438 34.523438 103.101562 34.523438 98.421875 C 34.523438 93.742188 38.316406 89.949219 42.996094 89.949219 C 47.675781 89.949219 51.46875 93.742188 51.46875 98.421875 Z M 51.46875 98.421875 " fill-opacity="1" fill-rule="nonzero"/><path stroke-linecap="round" transform="matrix(0.237874, 0, 0, 0.237874, 171.834818, 66.906463)" fill="none" stroke-linejoin="round" d="M -37.436281 25.879364 C -36.960058 16.207109 -31.393174 7.503722 -24.742473 0.475326 C -8.846475 -16.29101 14.357084 -25.881157 37.445692 -25.191455 " stroke="#000000" stroke-width="2" stroke-opacity="1" stroke-miterlimit="4"/><path stroke-linecap="round" transform="matrix(0.237874, 0, 0, 0.237874, 170.440645, 70.129422)" fill="none" stroke-linejoin="round" d="M -13.659477 11.213708 C -12.723453 5.055651 -8.486709 -0.215646 -3.379628 -3.746265 C 1.743876 -7.276884 7.737718 -9.32957 13.665874 -11.218041 " stroke="#000000" stroke-width="2" stroke-opacity="1" stroke-miterlimit="4"/><path stroke-linecap="round" transform="matrix(0.237874, 0, 0, 0.237874, 110.238692, 66.694759)" fill-opacity="1" fill="#f7faf7" fill-rule="nonzero" stroke-linejoin="round" d="M 67.983222 86.855562 C 122.601082 92.783718 142.224757 23.780637 91.975012 8.410127 C 106.343812 -19.834828 53.729373 -46.601849 39.360574 -18.356894 C 28.456707 -92.795487 -78.594955 -77.096547 -67.691088 -2.657954 C -127.448873 -13.052754 -142.22821 71.846324 -82.454004 82.241124 C -82.454004 82.241124 67.983222 86.855562 67.983222 86.855562 Z M 67.983222 86.855562 " stroke="#000000" stroke-width="2" stroke-opacity="1" stroke-miterlimit="4"/><path stroke-linecap="round" transform="matrix(0.237874, 0, 0, 0.237874, 110.285314, 82.861885)" fill-opacity="1" fill="#dcfce7" fill-rule="nonzero" stroke-linejoin="round" d="M 50.24908 -1.66912 C 50.24908 -1.66912 32.218289 -1.66912 32.218289 -1.66912 C 32.218289 -1.66912 32.218289 52.094823 32.218289 52.094823 C 32.218289 52.094823 -32.170354 52.094823 -32.170354 52.094823 C -32.170354 52.094823 -32.170354 -1.66912 -32.170354 -1.66912 C -32.170354 -1.66912 -50.250409 -1.66912 -50.250409 -1.66912 C -50.250409 -1.66912 -0.000664504 -52.099501 -0.000664504 -52.099501 C -0.000664504 -52.099501 50.24908 -1.66912 50.24908 -1.66912 Z M 50.24908 -1.66912 " stroke="#000000" stroke-width="2" stroke-opacity="1" stroke-miterlimit="4"/><path fill="#fef9c3" d="M 49.835938 218.136719 C 43.515625 222.394531 39.066406 229.335938 37.832031 236.855469 C 36.597656 244.375 38.589844 252.371094 43.214844 258.429688 C 46.429688 262.640625 51.09375 266 56.359375 266.542969 C 61.890625 267.117188 67.339844 264.542969 71.636719 261.015625 C 75.9375 257.488281 79.355469 253.027344 83.148438 248.960938 C 89.617188 242.019531 96.761719 236.089844 105.007812 231.394531 C 107.796875 229.804688 109.085938 226.558594 110.496094 223.671875 C 113.3125 217.90625 117.363281 212.742188 122.300781 208.632812 C 123.703125 207.464844 125.292969 206.191406 125.554688 204.382812 C 125.726562 203.167969 125.253906 201.964844 124.785156 200.832031 C 122.792969 195.984375 120.757812 191.082031 117.609375 186.890625 C 114.460938 182.699219 110.027344 179.230469 104.863281 178.332031 C 101.152344 181.058594 95.878906 181.441406 91.644531 183.246094 C 86.800781 185.316406 82.601562 188.867188 79.761719 193.304688 C 78.269531 195.628906 77.128906 198.214844 75.238281 200.230469 C 72.738281 202.894531 69.21875 204.285156 65.957031 205.929688 C 59.976562 208.945312 55.386719 214.394531 49.835938 218.136719 Z M 49.835938 218.136719 " fill-opacity="1" fill-rule="nonzero"/><path stroke-linecap="round" transform="matrix(0.237874, 0, 0, 0.237874, 87.781142, 213.646156)" fill="none" stroke-linejoin="round" d="M -19.475426 148.459819 C 7.718553 119.278839 37.75345 94.351025 72.419205 74.6124 C 84.144145 67.928855 89.563235 54.282601 95.491392 42.147123 C 107.331282 17.909011 124.360363 -3.800192 145.11712 -21.075595 C 151.012433 -25.985619 157.695978 -31.339023 158.779796 -38.94217 C 159.518762 -44.049252 157.531763 -49.10707 155.561184 -53.8693 C 147.186227 -74.248364 138.630633 -94.857328 125.394916 -112.477581 C 112.159199 -130.097835 93.520813 -144.680114 71.81161 -148.457055 C 56.211199 -136.994859 34.042194 -135.385553 16.241304 -127.798827 C -4.121338 -119.09544 -21.774434 -104.16831 -33.712854 -85.513502 C -39.985861 -75.742719 -44.780935 -64.871696 -52.728934 -56.398209 C -63.238684 -45.198756 -78.034442 -39.352708 -91.746383 -32.439262 C -116.887676 -19.761876 -136.182922 3.146096 -159.517852 18.877879 " stroke="#000000" stroke-width="2" stroke-opacity="1" stroke-miterlimit="4"/><path stroke-linecap="round" transform="matrix(0.237874, 0, 0, 0.237874, 109.736715, 195.564127)" fill="none" stroke-linejoin="round" d="M -45.71083 -61.176872 C -9.928413 -35.674306 21.141037 9.61615 45.707578 61.163192 " stroke="#000000" stroke-width="2" stroke-opacity="1" stroke-miterlimit="4"/><path fill="#fef9c3" d="M 58.050781 206.132812 C 60.097656 209.230469 61.800781 212.539062 63.503906 215.839844 C 63.503906 215.839844 74.722656 237.601562 74.722656 237.601562 C 77.28125 242.566406 79.917969 248.054688 78.726562 253.511719 C 77.882812 257.378906 75.144531 260.65625 71.804688 262.78125 C 68.464844 264.90625 64.558594 265.980469 60.648438 266.59375 C 53.011719 267.785156 44.234375 266.890625 39.148438 261.074219 C 35.117188 256.464844 34.367188 249.925781 31.882812 244.332031 C 30.273438 240.710938 27.929688 237.480469 25.878906 234.089844 C 22.664062 228.773438 20.140625 222.945312 19.320312 216.789062 C 18.503906 210.632812 19.496094 204.109375 22.847656 198.882812 C 25.898438 194.128906 33.578125 188.046875 39.664062 189.660156 C 47.101562 191.628906 54.019531 200.011719 58.050781 206.132812 Z M 58.050781 206.132812 " fill-opacity="1" fill-rule="nonzero"/><path stroke-linecap="round" transform="matrix(0.236571, 0.0248646, -0.0248646, 0.236571, 46.046126, 228.220506)" fill="none" stroke-linejoin="round" d="M 122.880137 133.174979 C 109.850466 143.526947 93.990981 149.734629 77.912617 154.016908 C 46.508022 162.353805 9.418004 162.470889 -14.401529 140.388147 C -33.281148 122.888389 -39.290242 95.878986 -52.135138 73.583944 C -60.454934 59.151823 -71.673405 46.67556 -81.737388 33.400965 C -97.514407 12.586449 -110.625609 -10.671319 -116.760453 -36.049335 C -122.878965 -61.429068 -121.597334 -89.138709 -109.881579 -112.463057 C -99.215653 -133.67912 -69.780485 -162.481968 -43.627049 -158.411374 C -11.666703 -153.448525 20.940064 -121.441016 40.483973 -97.620957 C 50.402886 -85.56951 58.977317 -72.485108 67.548315 -59.433369 " stroke="#000000" stroke-width="2" stroke-opacity="1" stroke-miterlimit="4"/><path fill="#e5cfb8" d="M 85.953125 167.402344 C 87.519531 167.085938 89.070312 166.597656 90.453125 165.785156 C 92.140625 164.792969 93.523438 163.355469 94.765625 161.839844 C 100.199219 155.214844 103.296875 146.46875 102.191406 137.972656 C 101.691406 134.148438 100.363281 130.445312 98.445312 127.101562 C 97.566406 125.570312 96.550781 124.097656 95.257812 122.894531 C 93.105469 120.894531 90.285156 119.753906 87.429688 119.046875 C 84.699219 118.367188 81.839844 118.054688 79.058594 118.492188 C 73.824219 119.316406 69.226562 122.820312 66.429688 127.320312 C 63.636719 131.820312 62.53125 137.222656 62.605469 142.519531 C 62.679688 147.996094 63.761719 154.066406 65.542969 159.257812 C 67.042969 163.628906 72.976562 166.339844 77.121094 167.277344 C 80.011719 167.929688 83.046875 167.992188 85.953125 167.402344 Z M 85.953125 167.402344 " fill-opacity="1" fill-rule="nonzero"/><path stroke-linecap="round" transform="matrix(0.234946, 0.0372117, -0.0372117, 0.234946, 82.924267, 144.666838)" fill="none" stroke-linejoin="round" d="M -85.778702 4.446425 C -81.868957 27.137087 -73.38416 51.630312 -62.574106 72.014361 C -53.471308 89.177315 -27.051371 96.531378 -9.226152 97.698424 C 3.20514 98.506073 15.848645 96.769558 27.527909 92.409191 C 33.823772 90.065304 39.941727 87.018042 45.149034 82.735041 C 51.503278 77.505578 56.299564 70.627486 60.460576 63.517489 C 78.648585 32.43879 85.7912 -5.918506 75.597589 -40.465939 C 71.006579 -56.015825 63.059279 -70.502089 52.894063 -83.140714 C 48.237716 -88.920683 43.052225 -94.367452 36.892417 -98.512698 " stroke="#000000" stroke-width="2" stroke-opacity="1" stroke-miterlimit="4"/><path fill="#dcfce7" d="M 52.683594 128.34375 C 48.980469 132.109375 46.878906 137.476562 47.339844 142.734375 C 48.011719 150.378906 54.453125 157.128906 62.0625 158.148438 C 62.394531 158.195312 62.757812 158.222656 63.042969 158.039062 C 63.378906 157.824219 63.488281 157.386719 63.554688 156.992188 C 63.898438 154.96875 63.914062 152.890625 63.609375 150.859375 C 66.917969 150.9375 69.734375 148.226562 71.035156 145.183594 C 72.335938 142.140625 72.5 138.757812 73.027344 135.488281 C 73.554688 132.222656 74.585938 128.8125 77.101562 126.664062 C 79.617188 124.515625 83.988281 124.304688 85.929688 126.984375 C 87.046875 128.53125 87.113281 130.5625 87.402344 132.445312 C 87.691406 134.328125 88.441406 136.40625 90.199219 137.136719 C 92.460938 138.070312 94.859375 136.28125 96.65625 134.621094 C 97.222656 134.101562 97.964844 133.542969 98.679688 133.820312 C 99.523438 134.152344 99.558594 135.300781 99.578125 136.207031 C 99.613281 137.882812 100.097656 139.546875 100.972656 140.976562 C 101.34375 141.589844 101.902344 142.21875 102.621094 142.195312 C 103.148438 142.179688 103.59375 141.804688 103.964844 141.425781 C 107.507812 137.816406 108.332031 132.375 108.523438 127.320312 C 108.660156 123.667969 108.554688 119.964844 107.558594 116.449219 C 106.5625 112.9375 104.597656 109.601562 101.601562 107.511719 C 98.765625 105.535156 95.210938 104.804688 91.753906 104.839844 C 81.386719 104.949219 71.476562 112.21875 68.257812 122.078125 C 68.144531 120.335938 67.183594 118.671875 65.738281 117.699219 C 65.242188 118.988281 65.726562 120.585938 66.855469 121.382812 C 65.859375 120.273438 63.992188 120.085938 62.796875 120.980469 C 63.667969 122.113281 64.792969 122.9375 66.042969 123.597656 C 63.609375 123.796875 61.464844 123.417969 59.035156 124.273438 C 56.648438 125.113281 54.457031 126.539062 52.683594 128.34375 Z M 52.683594 128.34375 " fill-opacity="1" fill-rule="nonzero"/><path stroke-linecap="round" transform="matrix(0.234946, 0.0372117, -0.0372117, 0.234946, 90.340862, 146.329195)" fill="none" stroke-linejoin="round" d="M -2.184154 -13.657863 C -0.724221 -4.54518 0.733143 4.551283 2.174288 13.650315 " stroke="#000000" stroke-width="2" stroke-opacity="1" stroke-miterlimit="4"/><path stroke-linecap="round" transform="matrix(0.234946, 0.0372117, -0.0372117, 0.234946, 88.106818, 151.905313)" fill="none" stroke-linejoin="round" d="M -10.188998 -1.940238 C -9.336477 -0.861553 -8.446381 0.244433 -7.264487 0.988306 C -6.085163 1.715959 -4.556871 2.022566 -3.307329 1.409003 C -1.748815 0.646747 -0.638294 -1.474405 1.067604 -1.096172 C 1.841144 -0.936043 2.397234 -0.259315 3.022382 0.223588 C 5.348743 1.999905 9.311091 0.773789 10.197613 -2.026811 " stroke="#000000" stroke-width="2" stroke-opacity="1" stroke-miterlimit="4"/><path fill="#000000" d="M 82.121094 140.449219 C 82.234375 140.464844 82.351562 140.480469 82.460938 140.453125 C 82.664062 140.394531 82.792969 140.1875 82.839844 139.980469 C 82.992188 139.335938 82.511719 138.675781 81.910156 138.398438 C 81.304688 138.121094 80.613281 138.144531 79.949219 138.191406 C 78.121094 138.328125 76.285156 138.644531 74.589844 139.351562 C 72.894531 140.054688 71.339844 141.167969 70.300781 142.679688 C 70.054688 143.035156 69.832031 143.445312 69.875 143.875 C 70.042969 145.53125 71.585938 143.621094 72.039062 143.257812 C 72.964844 142.515625 73.992188 141.902344 75.082031 141.433594 C 77.28125 140.484375 79.742188 140.113281 82.121094 140.449219 Z M 82.121094 140.449219 " fill-opacity="1" fill-rule="nonzero"/><path fill="#000000" d="M 101.277344 140.40625 C 101.472656 140.507812 101.769531 140.585938 101.871094 140.386719 C 101.902344 140.316406 101.894531 140.234375 101.882812 140.160156 C 101.710938 139.214844 100.742188 138.652344 99.84375 138.3125 C 98.824219 137.929688 90.050781 136.222656 91.710938 139.382812 C 92.300781 140.511719 95.0625 139.28125 96.183594 139.257812 C 97.941406 139.214844 99.710938 139.601562 101.277344 140.40625 Z M 101.277344 140.40625 " fill-opacity="1" fill-rule="nonzero"/><path fill="#dcfce7" d="M 82.964844 156.375 C 83.476562 156.339844 84.085938 156.398438 84.347656 156.835938 C 84.425781 156.96875 84.480469 157.136719 84.625 157.191406 C 84.726562 157.230469 84.84375 157.195312 84.949219 157.160156 C 85.449219 157.007812 85.984375 156.964844 86.5 157.035156 C 86.671875 157.058594 86.867188 157.117188 86.921875 157.277344 C 86.972656 157.414062 86.894531 157.5625 86.820312 157.6875 C 86.683594 157.917969 86.542969 158.152344 86.382812 158.367188 C 85.554688 159.46875 84.089844 160.054688 82.730469 159.820312 C 81.84375 159.667969 80.203125 158.851562 80.023438 157.828125 C 79.808594 156.582031 82.066406 156.441406 82.964844 156.375 Z M 82.964844 156.375 " fill-opacity="1" fill-rule="nonzero"/><path stroke-linecap="round" transform="matrix(0.234946, 0.0372117, -0.0372117, 0.234946, 81.673824, 157.338019)" fill="none" stroke-linejoin="round" d="M -19.666755 -2.979134 C -15.343052 -0.139191 -10.006145 0.595014 -4.860495 1.276379 C 1.674223 2.12014 8.276387 2.969844 14.81292 2.250457 C 16.447695 2.074665 18.080707 1.782769 19.668437 1.414914 " stroke="#000000" stroke-width="2" stroke-opacity="1" stroke-miterlimit="4"/><path stroke-linecap="round" transform="matrix(0.234946, 0.0372117, -0.0372117, 0.234946, 93.183837, 117.624165)" fill="none" stroke-linejoin="round" d="M -47.508316 -6.338104 C -33.014743 -22.217249 -8.657773 -28.203165 11.558229 -20.864066 C 31.76058 -13.506179 46.586423 6.723991 47.509298 28.191856 " stroke="#000000" stroke-width="2" stroke-opacity="1" stroke-miterlimit="4"/><path stroke-linecap="round" transform="matrix(0.234946, 0.0372117, -0.0372117, 0.234946, 92.697278, 120.229332)" fill="none" stroke-linejoin="round" d="M -27.779195 -6.435639 C -18.173684 -12.761968 -5.535166 -14.215048 5.24231 -10.202627 C 16.000996 -6.203855 24.64845 3.150409 27.763809 14.21218 " stroke="#000000" stroke-width="2" stroke-opacity="1" stroke-miterlimit="4"/><path fill="#f7faf7" d="M 83.164062 146.171875 C 78.890625 143.03125 75.507812 143.609375 73.011719 147.90625 C 77.542969 150.289062 81.074219 150.085938 83.164062 146.171875 Z M 83.164062 146.171875 " fill-opacity="1" fill-rule="nonzero"/><path stroke-linecap="round" transform="matrix(0.234946, 0.0372117, -0.0372117, 0.234946, 78.201551, 146.327937)" fill="none" stroke-linejoin="round" d="M -20.510974 9.966394 C -16.312132 -0.158934 -10.652395 -6.309221 -3.561635 -8.46311 C 1.32345 -9.951757 6.887276 -9.569391 13.134982 -7.283572 C 15.498467 -6.427574 17.954281 -5.303555 20.502424 -3.911513 " stroke="#000000" stroke-width="2" stroke-opacity="1" stroke-miterlimit="4"/><path fill="#000000" d="M 77.210938 145.027344 C 76.835938 146.222656 77.5 147.496094 78.695312 147.871094 C 79.886719 148.25 81.160156 147.585938 81.539062 146.390625 C 81.671875 145.960938 81.671875 145.515625 81.558594 145.105469 C 80.175781 144.335938 78.882812 144.039062 77.675781 144.207031 C 77.472656 144.4375 77.308594 144.714844 77.210938 145.027344 Z M 77.210938 145.027344 " fill-opacity="1" fill-rule="nonzero"/><path fill="#f7faf7" d="M 99.851562 144.355469 C 96.378906 141.804688 93.628906 142.273438 91.601562 145.765625 C 95.28125 147.699219 98.148438 147.535156 99.851562 144.355469 Z M 99.851562 144.355469 " fill-opacity="1" fill-rule="nonzero"/><path stroke-linecap="round" transform="matrix(0.234946, 0.0372117, -0.0372117, 0.234946, 95.81647, 144.482425)" fill="none" stroke-linejoin="round" d="M -16.657021 8.099899 C -13.253782 -0.120416 -8.661498 -5.137317 -2.902333 -6.880788 C 1.078802 -8.093254 5.601067 -7.778687 10.68325 -5.923437 C 12.589068 -5.227718 14.595728 -4.315205 16.654572 -3.178189 " stroke="#000000" stroke-width="2" stroke-opacity="1" stroke-miterlimit="4"/><path fill="#000000" d="M 95.011719 143.425781 C 94.707031 144.394531 95.246094 145.429688 96.21875 145.738281 C 97.1875 146.042969 98.222656 145.503906 98.527344 144.535156 C 98.636719 144.183594 98.636719 143.820312 98.546875 143.488281 C 97.421875 142.863281 96.371094 142.621094 95.390625 142.757812 C 95.222656 142.945312 95.09375 143.171875 95.011719 143.425781 Z M 95.011719 143.425781 " fill-opacity="1" fill-rule="nonzero"/><path fill="#e5cfb8" d="M 67.117188 159.816406 C 66.367188 161.273438 64.417969 161.972656 62.910156 161.328125 C 61.160156 160.574219 60.429688 158.539062 59.203125 157.082031 C 58.394531 156.121094 57.339844 155.398438 56.492188 154.472656 C 55.640625 153.550781 54.976562 152.308594 55.222656 151.078125 C 55.347656 150.457031 55.695312 149.898438 56.125 149.429688 C 57.261719 148.179688 59.019531 147.523438 60.695312 147.722656 C 62.375 147.917969 63.933594 148.960938 64.75 150.4375 C 66.328125 153.285156 66.730469 156.585938 67.117188 159.816406 Z M 67.117188 159.816406 " fill-opacity="1" fill-rule="nonzero"/><path stroke-linecap="round" transform="matrix(0.234946, 0.0372117, -0.0372117, 0.234946, 61.495527, 154.313821)" fill="none" stroke-linejoin="round" d="M 4.666511 -15.375763 C 0.901972 -18.254391 -3.768785 -20.241309 -8.493086 -19.94196 C -13.236176 -19.656262 -17.954938 -16.697601 -19.454472 -12.203796 C -19.947197 -10.695905 -20.082141 -9.02854 -19.50006 -7.557872 C -18.859852 -5.930148 -17.441268 -4.741604 -15.961332 -3.795544 C -12.692337 -1.736244 -8.949103 -0.566739 -5.587124 1.344824 C -1.421584 3.711033 2.092261 7.211282 4.480375 11.371989 C 5.563793 13.278665 6.438123 15.334841 7.795507 17.081742 C 9.15289 18.828642 11.139301 20.243149 13.347847 20.225873 C 16.085686 20.19127 18.271012 18.032895 20.088432 15.966043 " stroke="#000000" stroke-width="2" stroke-opacity="1" stroke-miterlimit="4"/><path stroke-linecap="round" transform="matrix(0.234946, 0.0372117, -0.0372117, 0.234946, 63.500026, 154.909948)" fill="none" stroke-linejoin="round" d="M 2.120179 -8.132597 C 0.199098 -8.609758 -1.783334 -8.844436 -3.757103 -8.814467 C -5.16914 -8.806962 -6.861891 -8.472352 -7.385443 -7.159092 C -7.894539 -5.964505 -7.076875 -4.581028 -6.040956 -3.814036 C -3.722301 -2.086376 -0.532084 -2.309011 2.345634 -2.615161 C -0.380722 0.0113068 -0.93601 4.588324 1.081982 7.77683 C 1.327185 8.170274 1.621047 8.556012 2.059925 8.702641 C 2.447576 8.840757 2.869278 8.773966 3.264486 8.644866 C 4.794088 8.119956 5.965606 6.803826 6.647019 5.332554 C 7.331002 3.877501 7.622195 2.251893 7.883518 0.647643 " stroke="#000000" stroke-width="2" stroke-opacity="1" stroke-miterlimit="4"/></svg>