<svg xmlns="http://www.w3.org/2000/svg" xmlns:xlink="http://www.w3.org/1999/xlink" width="370" zoomAndPan="magnify" viewBox="0 0 277.5 284.999983" height="380" preserveAspectRatio="xMidYMid meet" version="1.0"><defs><clipPath id="d50907a217"><path d="M 23.320312 14 L 253.90625 14 L 253.90625 271.5 L 23.320312 271.5 Z M 23.320312 14 " clip-rule="nonzero"/></clipPath></defs><path fill="#93c5fd" d="M 252.824219 197.605469 C 252.824219 205.453125 248.789062 212.097656 242.84375 215.503906 L 201.449219 239.40625 L 37.1875 82.394531 L 62.1875 67.960938 L 85.964844 75.175781 C 84.914062 74.859375 76.082031 43.054688 76.082031 43.054688 L 118.199219 18.726562 C 126.207031 14.164062 136.480469 13.988281 146.25 19.113281 C 171.394531 32.300781 184.226562 58.828125 187.527344 80.039062 C 193.722656 77.550781 201.125 77.902344 208.214844 81.625 C 232.847656 94.546875 243.28125 122.847656 243.28125 141.199219 C 243.28125 147.945312 240.816406 153.960938 236.8125 158.363281 C 247.929688 170.140625 252.824219 186.203125 252.824219 197.605469 Z M 252.824219 197.605469 " fill-opacity="1" fill-rule="nonzero"/><path fill="#f0f7fe" d="M 195.183594 182.40625 C 199.1875 178 201.648438 171.988281 201.648438 165.238281 C 201.648438 146.886719 191.21875 118.585938 166.585938 105.664062 C 159.496094 101.945312 152.09375 101.589844 145.898438 104.078125 C 142.601562 82.867188 129.765625 56.347656 104.617188 43.152344 C 84.425781 32.558594 62.0625 44.597656 62.0625 71.3125 C 62.0625 75.3125 62.488281 79.335938 63.261719 83.332031 C 62.921875 83.144531 62.585938 82.949219 62.242188 82.765625 C 44.164062 73.285156 24.148438 84.0625 24.148438 107.972656 C 24.148438 132.71875 41.875 158.652344 61.148438 169.601562 L 181.464844 239.035156 C 196.21875 247.417969 211.183594 236.757812 211.183594 221.644531 C 211.1875 210.246094 206.296875 194.179688 195.183594 182.40625 Z M 195.183594 182.40625 " fill-opacity="1" fill-rule="nonzero"/><path fill="#000000" d="M 154.308594 185.082031 L 141.09375 192.710938 L 141.09375 262.582031 L 127.539062 269.78125 L 104.109375 110.144531 L 117.664062 102.320312 Z M 154.308594 185.082031 " fill-opacity="1" fill-rule="nonzero"/><path fill="#dcfce7" d="M 79.957031 157.804688 L 67.660156 150.703125 L 104.113281 110.144531 L 140.753906 192.910156 L 127.539062 185.28125 L 127.539062 270.414062 L 79.949219 242.941406 L 79.949219 157.804688 Z M 79.957031 157.804688 " fill-opacity="1" fill-rule="nonzero"/><g clip-path="url(#d50907a217)"><path fill="#000000" d="M 237.847656 158.347656 C 241.851562 153.683594 244.046875 147.621094 244.046875 141.195312 C 244.046875 131.035156 240.992188 119.3125 235.664062 109.023438 C 229.21875 96.574219 219.851562 86.859375 208.574219 80.949219 C 201.800781 77.394531 194.582031 76.714844 188.140625 78.996094 C 184.667969 58.265625 172.011719 31.761719 146.609375 18.4375 C 136.863281 13.324219 126.375 13.191406 117.824219 18.066406 L 76.457031 41.957031 C 76.222656 42.085938 75.988281 42.226562 75.757812 42.363281 L 75.699219 42.394531 C 75.671875 42.417969 75.640625 42.433594 75.601562 42.453125 C 67.429688 47.398438 62.390625 56.398438 61.457031 67.5 L 36.804688 81.738281 L 36.808594 81.746094 C 36.613281 81.855469 36.417969 81.957031 36.226562 82.070312 C 28.066406 87.003906 23.386719 96.449219 23.386719 107.980469 C 23.386719 119.699219 27.429688 132.621094 34.777344 144.371094 C 41.730469 155.5 50.964844 164.699219 60.773438 170.265625 L 79.195312 180.898438 L 79.195312 243.375 L 128.316406 271.730469 L 141.871094 264.53125 L 141.871094 217.0625 L 181.097656 239.707031 C 184.667969 241.730469 188.414062 242.75 192.0625 242.75 C 195.433594 242.75 198.722656 241.882812 201.71875 240.136719 C 201.757812 240.113281 201.800781 240.085938 201.839844 240.058594 L 243.222656 216.167969 C 249.613281 212.507812 253.585938 205.394531 253.585938 197.605469 C 253.589844 187.328125 249.453125 170.964844 237.847656 158.347656 Z M 207.859375 82.300781 C 233.285156 95.640625 242.511719 124.832031 242.511719 141.195312 C 242.511719 147.449219 240.3125 153.328125 236.320312 157.769531 L 198.148438 179.8125 C 200.914062 175.589844 202.40625 170.542969 202.40625 165.242188 C 202.40625 155.082031 199.351562 143.359375 194.027344 133.070312 C 187.578125 120.617188 178.210938 110.910156 166.933594 104.996094 C 161.753906 102.277344 156.316406 101.246094 151.167969 101.929688 L 187.859375 80.742188 C 194.085938 78.25 201.191406 78.804688 207.859375 82.300781 Z M 118.585938 19.390625 C 126.671875 14.78125 136.628906 14.925781 145.898438 19.789062 C 170.96875 32.941406 183.375 59.222656 186.691406 79.644531 L 146.476562 102.863281 C 142.960938 82.164062 130.3125 55.765625 104.980469 42.476562 C 98.296875 38.976562 91.105469 37.84375 84.507812 39.074219 Z M 61.347656 69.332031 C 61.320312 69.992188 61.300781 70.648438 61.300781 71.320312 C 61.300781 74.730469 61.609375 78.285156 62.226562 81.902344 C 56.476562 78.980469 50.328125 78.011719 44.644531 78.972656 Z M 126.777344 269.085938 L 80.722656 242.492188 L 80.722656 157.363281 L 68.863281 150.515625 L 103.898438 111.535156 L 139.113281 191.070312 L 126.78125 183.949219 L 126.78125 269.085938 Z M 141.113281 191.820312 L 105.097656 110.464844 L 117.320312 103.40625 L 153.335938 184.761719 Z M 140.332031 262.125 L 128.308594 268.507812 L 128.308594 186.601562 L 139.726562 193.191406 C 139.914062 193.300781 140.125 193.34375 140.332031 193.320312 L 140.332031 214.414062 L 134.894531 211.277344 L 134.128906 212.605469 L 140.332031 216.183594 Z M 181.847656 238.378906 L 141.859375 215.300781 L 141.859375 193.152344 L 155.289062 185.398438 L 118.027344 101.230469 L 103.625 109.542969 L 103.332031 109.867188 L 66.460938 150.894531 L 79.1875 158.242188 L 79.1875 179.128906 L 61.527344 168.9375 C 43.53125 158.71875 24.917969 133.121094 24.917969 107.980469 C 24.917969 97 29.332031 88.035156 37.023438 83.378906 C 44.324219 78.964844 53.390625 78.988281 61.886719 83.449219 C 62.09375 83.558594 62.300781 83.671875 62.5 83.789062 C 62.628906 83.859375 62.761719 83.9375 62.894531 84.011719 L 64.328125 84.796875 L 64.019531 83.199219 C 63.230469 79.132812 62.835938 75.136719 62.835938 71.324219 C 62.835938 59.023438 67.777344 48.980469 76.40625 43.765625 C 84.46875 38.886719 94.886719 38.917969 104.269531 43.839844 C 129.550781 57.105469 141.957031 83.71875 145.148438 104.207031 L 145.296875 105.160156 L 146.191406 104.800781 C 152.433594 102.292969 159.550781 102.84375 166.234375 106.351562 C 191.660156 119.691406 200.890625 148.882812 200.890625 165.25 C 200.890625 171.535156 198.660156 177.449219 194.621094 181.902344 L 194.144531 182.425781 L 194.632812 182.941406 C 206.296875 195.296875 210.433594 211.519531 210.433594 221.65625 C 210.433594 228.84375 206.800781 235.417969 200.949219 238.824219 C 195.195312 242.164062 188.234375 242.003906 181.847656 238.378906 Z M 242.460938 214.839844 L 207.464844 235.050781 C 210.320312 231.339844 211.953125 226.632812 211.953125 221.648438 C 211.953125 211.421875 207.859375 195.179688 196.390625 182.589844 L 236.664062 159.332031 C 248.007812 171.632812 252.054688 187.585938 252.054688 197.601562 C 252.054688 204.847656 248.382812 211.453125 242.460938 214.839844 Z M 242.460938 214.839844 " fill-opacity="1" fill-rule="nonzero"/></g></svg>