<svg xmlns="http://www.w3.org/2000/svg" xmlns:xlink="http://www.w3.org/1999/xlink" width="370" zoomAndPan="magnify" viewBox="0 0 277.5 284.999983" height="380" preserveAspectRatio="xMidYMid meet" version="1.0"><path fill="#caddff" d="M 74.882812 87.503906 C 98.792969 63.4375 91.949219 48.355469 108.308594 37.214844 C 133.484375 20.070312 180.46875 34.820312 208.1875 58.398438 C 242.140625 87.28125 259.65625 140.019531 239.703125 187.726562 C 218.453125 238.535156 162.539062 264.910156 112.648438 256.960938 C 68.097656 249.863281 24.300781 214.75 19.914062 172.636719 C 19.4375 168.070312 17.335938 143.398438 32.0625 122.125 C 44.234375 104.542969 55.929688 106.578125 74.882812 87.503906 " fill-opacity="1" fill-rule="nonzero"/><path fill="#000000" d="M 153.277344 57.625 C 148.441406 58.949219 143.445312 56.101562 142.121094 51.261719 C 140.796875 46.421875 143.644531 41.421875 148.480469 40.097656 C 153.316406 38.769531 158.3125 41.621094 159.636719 46.460938 C 160.960938 51.300781 158.113281 56.300781 153.277344 57.625 Z M 168.945312 45.742188 L 168.015625 42.335938 L 164.164062 42.511719 C 163.808594 41.761719 163.394531 41.050781 162.925781 40.386719 L 164.964844 37.117188 L 162.457031 34.636719 L 159.210938 36.714844 C 158.535156 36.25 157.820312 35.84375 157.078125 35.496094 L 157.210938 31.644531 L 153.800781 30.75 L 152.027344 34.167969 C 151.21875 34.101562 150.398438 34.109375 149.570312 34.183594 L 147.761719 30.78125 L 144.359375 31.714844 L 144.53125 35.566406 C 143.785156 35.921875 143.074219 36.335938 142.410156 36.804688 L 139.144531 34.765625 L 136.664062 37.273438 L 138.742188 40.523438 C 138.277344 41.199219 137.871094 41.914062 137.527344 42.65625 L 133.675781 42.523438 L 132.78125 45.9375 L 136.195312 47.710938 C 136.132812 48.519531 136.140625 49.339844 136.214844 50.167969 L 132.8125 51.980469 L 133.746094 55.386719 L 137.59375 55.210938 C 137.949219 55.960938 138.363281 56.671875 138.828125 57.335938 L 136.792969 60.601562 L 139.300781 63.085938 L 142.546875 61.007812 C 143.222656 61.46875 143.933594 61.878906 144.679688 62.222656 L 144.546875 66.078125 L 147.957031 66.972656 L 149.730469 63.554688 C 150.539062 63.617188 151.359375 63.609375 152.1875 63.535156 L 153.996094 66.9375 L 157.398438 66.007812 L 157.222656 62.15625 C 157.972656 61.800781 158.683594 61.386719 159.347656 60.917969 L 162.613281 62.957031 L 165.09375 60.449219 L 163.015625 57.199219 C 163.480469 56.523438 163.886719 55.808594 164.234375 55.066406 L 168.082031 55.199219 L 168.976562 51.785156 L 165.5625 50.011719 C 165.625 49.199219 165.617188 48.378906 165.542969 47.550781 L 168.945312 45.742188 " fill-opacity="1" fill-rule="nonzero"/><path fill="#93c5fd" d="M 53.78125 257.617188 L 156.738281 257.617188 C 161.175781 257.617188 164.316406 254.03125 163.757812 249.609375 L 138.40625 49.335938 C 137.847656 44.917969 133.796875 41.332031 129.359375 41.332031 L 31.570312 40.1875 C 20.347656 40.1875 18.824219 44.917969 19.382812 49.335938 L 44.734375 249.609375 C 45.292969 254.03125 49.34375 257.617188 53.78125 257.617188 " fill-opacity="1" fill-rule="nonzero"/><path fill="#ffffff" d="M 59.976562 257.617188 L 162.933594 257.617188 C 167.371094 257.617188 170.511719 254.023438 169.953125 249.585938 L 144.601562 48.675781 C 144.039062 44.238281 139.992188 40.640625 135.554688 40.640625 L 32.597656 40.640625 C 28.164062 40.640625 25.019531 44.238281 25.578125 48.675781 L 50.929688 249.585938 C 51.488281 254.023438 55.539062 257.617188 59.976562 257.617188 " fill-opacity="1" fill-rule="nonzero"/><path fill="#000000" d="M 162.933594 258.21875 L 59.976562 258.21875 C 55.347656 258.21875 51.105469 254.453125 50.519531 249.824219 L 25.167969 48.914062 C 24.882812 46.636719 25.503906 44.496094 26.925781 42.886719 C 28.328125 41.292969 30.34375 40.414062 32.597656 40.414062 L 135.554688 40.414062 C 140.183594 40.414062 144.425781 44.179688 145.011719 48.8125 L 148.625 77.453125 C 148.652344 77.675781 148.492188 77.882812 148.265625 77.914062 C 148.042969 77.941406 147.832031 77.78125 147.804688 77.554688 L 144.191406 48.914062 C 143.65625 44.683594 139.785156 41.242188 135.554688 41.242188 L 32.597656 41.242188 C 30.585938 41.242188 28.789062 42.019531 27.542969 43.433594 C 26.285156 44.863281 25.730469 46.773438 25.988281 48.8125 L 51.339844 249.722656 C 51.875 253.949219 55.75 257.390625 59.976562 257.390625 L 162.933594 257.390625 C 164.945312 257.390625 166.742188 256.613281 167.984375 255.203125 C 169.246094 253.773438 169.800781 251.863281 169.542969 249.824219 L 162.328125 192.65625 C 162.300781 192.429688 162.460938 192.222656 162.6875 192.195312 C 162.914062 192.167969 163.121094 192.324219 163.148438 192.554688 L 170.363281 249.722656 C 170.648438 251.996094 170.027344 254.136719 168.605469 255.75 C 167.203125 257.339844 165.1875 258.21875 162.933594 258.21875 " fill-opacity="1" fill-rule="nonzero"/><path fill="#caddff" d="M 164.085938 249.863281 L 139.882812 58.027344 C 139.75 57 138.816406 56.171875 137.789062 56.171875 L 34.28125 56.171875 C 33.257812 56.171875 32.53125 57 32.660156 58.027344 L 56.867188 249.863281 C 56.996094 250.886719 57.933594 251.714844 58.957031 251.714844 L 162.464844 251.714844 C 163.488281 251.714844 164.214844 250.886719 164.085938 249.863281 " fill-opacity="1" fill-rule="nonzero"/><path fill="#caddff" d="M 85.367188 50.859375 C 87.027344 50.859375 88.203125 49.515625 87.996094 47.851562 C 87.785156 46.1875 86.269531 44.84375 84.605469 44.84375 C 82.945312 44.84375 81.765625 46.1875 81.976562 47.851562 C 82.1875 49.515625 83.703125 50.859375 85.367188 50.859375 " fill-opacity="1" fill-rule="nonzero"/><path fill="#ffffff" d="M 163.285156 51.882812 C 163.285156 52.960938 162.40625 53.835938 161.328125 53.835938 C 160.25 53.835938 159.375 52.960938 159.375 51.882812 C 159.375 50.800781 160.25 49.925781 161.328125 49.925781 C 162.40625 49.925781 163.285156 50.800781 163.285156 51.882812 " fill-opacity="1" fill-rule="nonzero"/><path fill="#000000" d="M 118.160156 122.074219 L 95.203125 122.195312 L 85.398438 132.714844 L 106.984375 139.933594 L 118.160156 122.074219 " fill-opacity="1" fill-rule="nonzero"/><path fill="#93c5fd" d="M 125.160156 242.457031 C 120.457031 245.449219 113.789062 243.398438 110.300781 237.886719 L 67.050781 169.628906 L 84.007812 158.84375 L 127.332031 227.222656 C 130.792969 232.6875 129.820312 239.492188 125.160156 242.457031 " fill-opacity="1" fill-rule="nonzero"/><path fill="#000000" d="M 67.621094 169.757812 L 110.648438 237.664062 C 112.441406 240.496094 115.195312 242.507812 118.199219 243.179688 C 120.613281 243.71875 123.003906 243.339844 124.9375 242.109375 C 129.390625 239.277344 130.308594 232.695312 126.984375 227.441406 L 83.878906 159.414062 Z M 120.332031 244.246094 C 119.570312 244.246094 118.796875 244.160156 118.019531 243.984375 C 114.800781 243.265625 111.863281 241.121094 109.953125 238.105469 L 66.703125 169.851562 C 66.582031 169.660156 66.636719 169.40625 66.828125 169.28125 L 83.785156 158.496094 C 83.878906 158.4375 83.988281 158.417969 84.097656 158.441406 C 84.203125 158.464844 84.296875 158.53125 84.355469 158.625 L 127.683594 227 C 131.25 232.640625 130.21875 239.730469 125.378906 242.804688 C 123.886719 243.757812 122.148438 244.246094 120.332031 244.246094 " fill-opacity="1" fill-rule="nonzero"/><path fill="#ffffff" d="M 130.738281 114.148438 L 80.222656 139.886719 L 59.683594 155.671875 L 50.859375 166.96875 L 50.800781 167.058594 C 49.109375 168.988281 49.152344 174.03125 51 179.425781 C 52.824219 184.765625 55.890625 188.730469 58.398438 189.308594 L 58.316406 189.335938 L 71.519531 192.789062 L 97.214844 192.535156 L 153.34375 181.453125 L 217.863281 202.710938 L 218.328125 202.792969 C 202.097656 197.25 182.976562 171.65625 171.382812 137.757812 C 159.800781 103.898438 159.257812 72.066406 168.691406 57.820312 L 168.679688 57.808594 L 131.214844 113.4375 L 130.738281 114.148438 " fill-opacity="1" fill-rule="nonzero"/><path fill="#93c5fd" d="M 235.335938 116.164062 C 249.726562 158.238281 247.078125 197.179688 229.414062 203.140625 C 211.757812 209.105469 185.773438 179.832031 171.382812 137.757812 C 156.992188 95.683594 159.640625 56.742188 177.300781 50.777344 C 194.960938 44.816406 220.945312 74.089844 235.335938 116.164062 " fill-opacity="1" fill-rule="nonzero"/><path fill="#000000" d="M 224.605469 204.332031 C 216.878906 204.332031 207.933594 198.957031 198.863281 188.738281 C 187.867188 176.351562 177.96875 158.292969 170.992188 137.890625 C 160.421875 107 158.699219 76.683594 166.59375 60.660156 C 169.21875 55.328125 172.777344 51.871094 177.167969 50.386719 C 184.042969 48.066406 192.304688 50.839844 201.054688 58.410156 C 209.542969 65.757812 217.855469 77.019531 225.089844 90.984375 C 225.195312 91.1875 225.113281 91.433594 224.910156 91.542969 C 224.710938 91.644531 224.460938 91.566406 224.355469 91.363281 C 209.578125 62.835938 190.71875 46.683594 177.433594 51.171875 C 173.261719 52.578125 169.863281 55.894531 167.335938 61.023438 C 159.53125 76.863281 161.273438 106.929688 171.773438 137.625 C 184.835938 175.816406 207.507812 203.503906 224.605469 203.503906 C 226.21875 203.503906 227.78125 203.257812 229.285156 202.75 C 233.457031 201.339844 236.855469 198.027344 239.382812 192.898438 C 247.1875 177.058594 245.441406 146.992188 234.945312 116.296875 C 232.746094 109.863281 230.222656 103.589844 227.445312 97.644531 C 227.347656 97.4375 227.4375 97.191406 227.644531 97.09375 C 227.851562 97 228.097656 97.085938 228.191406 97.292969 C 230.984375 103.265625 233.515625 109.570312 235.726562 116.027344 C 246.292969 146.921875 248.019531 177.238281 240.125 193.261719 C 237.496094 198.597656 233.9375 202.054688 229.546875 203.535156 C 227.96875 204.066406 226.316406 204.332031 224.605469 204.332031 " fill-opacity="1" fill-rule="nonzero"/><path fill="#000000" d="M 222.136719 195.390625 C 215.296875 195.390625 207.375 190.632812 199.351562 181.59375 C 189.625 170.636719 180.875 154.671875 174.707031 136.636719 C 165.363281 109.324219 163.839844 82.515625 170.820312 68.34375 C 173.148438 63.617188 176.304688 60.554688 180.195312 59.238281 C 185.453125 57.464844 191.738281 59.089844 198.359375 63.949219 C 204.722656 68.613281 211.242188 76.117188 217.203125 85.644531 C 217.324219 85.839844 217.265625 86.09375 217.070312 86.214844 C 216.878906 86.335938 216.625 86.277344 216.503906 86.085938 C 204.320312 66.613281 190.511719 56.628906 180.460938 60.019531 C 176.785156 61.261719 173.792969 64.1875 171.5625 68.707031 C 164.671875 82.691406 166.210938 109.253906 175.488281 136.371094 C 187.023438 170.101562 207.042969 194.5625 222.132812 194.5625 C 223.554688 194.5625 224.929688 194.347656 226.257812 193.898438 C 240.1875 189.195312 243.515625 160.191406 234 126.429688 C 233.9375 126.210938 234.066406 125.984375 234.285156 125.921875 C 234.503906 125.859375 234.730469 125.988281 234.792969 126.207031 C 239.421875 142.617188 241.179688 158.578125 239.742188 171.144531 C 238.277344 183.9375 233.582031 192.296875 226.519531 194.683594 C 225.117188 195.15625 223.652344 195.390625 222.136719 195.390625 " fill-opacity="1" fill-rule="nonzero"/><path fill="#ffffff" d="M 201.144531 127.757812 C 204.476562 137.5 203.863281 146.519531 199.773438 147.898438 C 195.6875 149.28125 189.667969 142.5 186.335938 132.757812 C 183.003906 123.015625 183.617188 114 187.707031 112.617188 C 191.796875 111.238281 197.8125 118.015625 201.144531 127.757812 " fill-opacity="1" fill-rule="nonzero"/><path fill="#000000" d="M 153.34375 181.039062 C 153.390625 181.039062 153.433594 181.046875 153.476562 181.0625 L 212.46875 200.496094 C 206.015625 196.675781 199.308594 190.101562 192.785156 181.152344 C 184.160156 169.328125 176.625 154.367188 170.992188 137.890625 C 160.957031 108.550781 158.949219 79.972656 165.34375 63.5 L 131.078125 114.378906 C 131.039062 114.4375 130.988281 114.484375 130.925781 114.519531 L 80.441406 140.238281 L 59.976562 155.964844 L 51.1875 167.222656 L 51.140625 167.292969 C 51.132812 167.304688 51.121094 167.320312 51.109375 167.332031 C 49.519531 169.144531 49.640625 174.175781 51.390625 179.296875 C 53.105469 184.3125 56.09375 188.355469 58.492188 188.90625 C 58.5625 188.921875 58.625 188.957031 58.675781 189.003906 L 71.570312 192.375 L 97.175781 192.121094 L 153.265625 181.046875 C 153.292969 181.042969 153.320312 181.039062 153.34375 181.039062 Z M 218.328125 203.207031 C 218.304688 203.207031 218.28125 203.203125 218.253906 203.199219 L 217.789062 203.117188 C 217.769531 203.113281 217.75 203.109375 217.734375 203.101562 L 153.320312 181.878906 L 97.296875 192.9375 C 97.269531 192.945312 97.246094 192.945312 97.21875 192.949219 L 71.523438 193.199219 C 71.488281 193.203125 71.449219 193.195312 71.414062 193.1875 L 58.210938 189.734375 C 58.140625 189.71875 58.082031 189.683594 58.03125 189.636719 C 55.394531 188.808594 52.378906 184.738281 50.609375 179.5625 C 48.714844 174.023438 48.660156 168.90625 50.472656 166.808594 L 50.519531 166.738281 L 59.355469 155.417969 C 59.378906 155.390625 59.402344 155.363281 59.429688 155.34375 L 79.96875 139.558594 C 79.988281 139.542969 80.011719 139.527344 80.035156 139.515625 L 130.453125 113.832031 L 168.335938 57.578125 C 168.460938 57.390625 168.71875 57.339844 168.90625 57.464844 C 169.097656 57.59375 169.160156 57.855469 169.035156 58.046875 C 164.460938 64.953125 162.164062 76.453125 162.566406 90.417969 C 162.988281 104.921875 166.171875 121.246094 171.773438 137.625 C 177.378906 154.023438 184.878906 168.90625 193.449219 180.664062 C 201.707031 191.996094 210.59375 199.714844 218.460938 202.402344 C 218.667969 202.472656 218.78125 202.6875 218.726562 202.898438 C 218.679688 203.082031 218.511719 203.207031 218.328125 203.207031 " fill-opacity="1" fill-rule="nonzero"/><path fill="#ffffff" d="M 130.851562 113.980469 L 168.679688 57.808594 L 168.691406 57.820312 C 159.257812 72.066406 159.800781 103.898438 171.382812 137.757812 C 182.976562 171.65625 202.097656 197.25 218.328125 202.792969 L 217.863281 202.710938 L 153.453125 181.488281 L 151.957031 181.003906 C 144.476562 178.496094 135.707031 166.960938 130.496094 151.617188 C 125.148438 135.867188 126.003906 121.089844 130.375 114.660156 L 130.851562 113.980469 " fill-opacity="1" fill-rule="nonzero"/><path fill="#000000" d="M 130.851562 113.980469 Z M 165.34375 63.5 L 131.191406 114.210938 C 131.191406 114.214844 131.191406 114.214844 131.191406 114.21875 L 130.714844 114.898438 C 126.65625 120.867188 125.410156 135.351562 130.890625 151.484375 C 135.9375 166.347656 144.457031 178.054688 152.089844 180.609375 L 153.582031 181.097656 L 212.46875 200.496094 C 206.015625 196.675781 199.308594 190.101562 192.785156 181.152344 C 184.160156 169.328125 176.625 154.367188 170.992188 137.890625 C 160.957031 108.550781 158.949219 79.972656 165.34375 63.5 Z M 218.328125 203.207031 C 218.304688 203.207031 218.28125 203.203125 218.253906 203.199219 L 217.789062 203.117188 C 217.769531 203.113281 217.75 203.109375 217.734375 203.101562 L 153.324219 181.878906 L 151.832031 181.394531 C 143.960938 178.761719 135.234375 166.847656 130.105469 151.75 C 127.570312 144.277344 126.277344 136.628906 126.378906 129.636719 C 126.46875 123.164062 127.769531 117.761719 130.035156 114.429688 L 130.507812 113.746094 L 168.335938 57.578125 C 168.460938 57.390625 168.71875 57.339844 168.90625 57.464844 C 169.097656 57.59375 169.160156 57.855469 169.035156 58.046875 C 164.460938 64.953125 162.164062 76.453125 162.566406 90.417969 C 162.988281 104.921875 166.171875 121.246094 171.773438 137.625 C 177.378906 154.023438 184.878906 168.90625 193.449219 180.664062 C 201.707031 191.996094 210.59375 199.714844 218.460938 202.402344 C 218.667969 202.472656 218.78125 202.6875 218.726562 202.898438 C 218.679688 203.082031 218.511719 203.207031 218.328125 203.207031 " fill-opacity="1" fill-rule="nonzero"/><path fill="#000000" d="M 70.804688 193.015625 C 70.769531 193.015625 70.734375 193.011719 70.699219 193 L 58.210938 189.734375 C 58.140625 189.71875 58.082031 189.683594 58.03125 189.636719 C 55.394531 188.808594 52.378906 184.738281 50.609375 179.5625 C 48.714844 174.023438 48.660156 168.90625 50.472656 166.808594 L 50.519531 166.738281 L 59.355469 155.417969 C 59.496094 155.238281 59.757812 155.207031 59.9375 155.347656 C 60.117188 155.484375 60.148438 155.746094 60.007812 155.925781 L 51.1875 167.222656 L 51.140625 167.292969 C 51.132812 167.304688 51.121094 167.320312 51.109375 167.332031 C 49.519531 169.144531 49.640625 174.175781 51.390625 179.296875 C 53.105469 184.3125 56.09375 188.355469 58.492188 188.90625 C 58.5625 188.921875 58.625 188.957031 58.675781 189.003906 L 70.910156 192.203125 C 71.128906 192.257812 71.261719 192.484375 71.207031 192.707031 C 71.15625 192.890625 70.988281 193.015625 70.804688 193.015625 " fill-opacity="1" fill-rule="nonzero"/><path fill="#93c5fd" d="M 71.644531 192.730469 C 67.5625 191.820312 62.671875 185.113281 59.695312 176.410156 C 56.539062 167.191406 56.824219 158.183594 60.007812 155.4375 L 50.859375 166.96875 L 50.800781 167.058594 C 49.109375 168.988281 49.152344 174.03125 51 179.429688 C 52.824219 184.765625 55.890625 188.730469 58.398438 189.308594 L 58.316406 189.335938 L 71.644531 192.730469 " fill-opacity="1" fill-rule="nonzero"/><path fill="#000000" d="M 58.675781 189 L 68.355469 191.46875 C 65.003906 188.792969 61.625 183.328125 59.304688 176.542969 C 57.066406 169.996094 56.5 163.480469 57.570312 159.179688 L 51.140625 167.292969 C 51.132812 167.304688 51.121094 167.320312 51.109375 167.332031 C 49.519531 169.144531 49.640625 174.175781 51.390625 179.296875 C 53.105469 184.3125 56.09375 188.355469 58.492188 188.90625 C 58.558594 188.921875 58.625 188.957031 58.675781 189 Z M 71.644531 193.144531 C 71.617188 193.144531 71.585938 193.140625 71.554688 193.136719 C 71.453125 193.113281 71.351562 193.085938 71.246094 193.054688 L 58.214844 189.734375 C 58.144531 189.71875 58.082031 189.683594 58.03125 189.636719 C 55.394531 188.808594 52.378906 184.738281 50.609375 179.5625 C 48.714844 174.023438 48.660156 168.90625 50.472656 166.808594 L 50.519531 166.738281 C 50.523438 166.730469 50.53125 166.722656 50.535156 166.710938 L 58.554688 156.609375 C 58.890625 156.015625 59.289062 155.515625 59.738281 155.125 C 59.902344 154.984375 60.140625 154.992188 60.296875 155.140625 C 60.449219 155.289062 60.464844 155.527344 60.332031 155.695312 L 59.222656 157.097656 C 57.183594 160.769531 57.460938 168.597656 60.085938 176.277344 C 62.949219 184.652344 67.585938 191.144531 71.460938 192.257812 L 71.746094 192.332031 C 71.964844 192.386719 72.097656 192.609375 72.046875 192.828125 C 72 193.015625 71.832031 193.144531 71.644531 193.144531 " fill-opacity="1" fill-rule="nonzero"/><path fill="#ffffff" d="M 96.277344 192.542969 L 97.371094 192.488281 C 91.414062 192.828125 83.609375 182.753906 79.035156 169.382812 C 74.371094 155.746094 75.011719 142.917969 80.222656 139.886719 L 79.535156 140.414062 L 60.0625 155.390625 C 56.828125 158.078125 56.523438 167.140625 59.695312 176.410156 C 62.753906 185.359375 67.953125 192.171875 72.09375 192.769531 L 96.277344 192.542969 " fill-opacity="1" fill-rule="nonzero"/><path fill="#000000" d="M 77.273438 142.675781 L 60.316406 155.71875 C 57.148438 158.351562 57.042969 167.386719 60.085938 176.277344 C 63.066406 184.996094 68.125 191.75 72.125 192.355469 L 93.984375 192.152344 C 88.570312 189.613281 82.550781 180.9375 78.644531 169.515625 C 74.9375 158.675781 74.550781 148.140625 77.273438 142.675781 Z M 72.097656 193.179688 C 72.074219 193.179688 72.054688 193.179688 72.035156 193.175781 C 67.675781 192.546875 62.4375 185.707031 59.304688 176.542969 C 56.105469 167.195312 56.320312 157.964844 59.800781 155.074219 L 78.890625 140.390625 C 79.238281 140.050781 79.613281 139.761719 80.011719 139.53125 C 80.203125 139.417969 80.441406 139.476562 80.5625 139.65625 C 80.6875 139.835938 80.644531 140.082031 80.472656 140.214844 L 79.394531 141.042969 C 77.605469 142.8125 76.53125 146.160156 76.335938 150.675781 C 76.101562 156.140625 77.199219 162.738281 79.425781 169.25 C 83.914062 182.371094 91.445312 192.085938 97.078125 192.085938 C 97.144531 192.085938 97.210938 192.082031 97.273438 192.082031 L 97.351562 192.078125 C 97.582031 192.070312 97.773438 192.238281 97.785156 192.46875 C 97.796875 192.695312 97.625 192.890625 97.394531 192.902344 C 97.367188 192.902344 97.339844 192.90625 97.316406 192.90625 L 96.296875 192.957031 C 96.292969 192.957031 96.289062 192.957031 96.28125 192.957031 L 72.097656 193.179688 " fill-opacity="1" fill-rule="nonzero"/><path fill="#000000" d="M 187.707031 112.621094 C 183.617188 114 182.828125 123.078125 186.335938 132.757812 C 192.21875 148.992188 198.941406 148.183594 199.742188 148.023438 C 199.757812 148.019531 199.761719 148.039062 199.75 148.046875 L 184.113281 157.1875 C 180.886719 150.828125 177.929688 143.84375 175.382812 136.40625 C 172.945312 129.277344 171.066406 122.25 169.734375 115.515625 L 187.707031 112.621094 " fill-opacity="1" fill-rule="nonzero"/><path fill="#000000" d="M 170.222656 115.851562 C 171.574219 122.582031 173.441406 129.453125 175.773438 136.273438 C 178.207031 143.390625 181.070312 150.230469 184.285156 156.609375 L 198.292969 148.421875 C 195.726562 148.023438 190.527344 145.539062 185.949219 132.898438 C 183.402344 125.875 182.976562 118.804688 184.863281 114.890625 C 185.164062 114.269531 185.507812 113.75 185.902344 113.328125 Z M 183.945312 157.765625 L 183.746094 157.375 C 180.4375 150.847656 177.488281 143.839844 174.992188 136.539062 C 172.601562 129.539062 170.695312 122.496094 169.328125 115.59375 L 169.246094 115.175781 L 187.640625 112.210938 L 187.839844 113.011719 C 186.925781 113.320312 186.175781 114.070312 185.605469 115.25 C 183.839844 118.914062 184.289062 125.894531 186.726562 132.617188 C 192.496094 148.554688 198.945312 147.761719 199.660156 147.617188 L 200.003906 147.550781 L 200.265625 148.210938 L 199.953125 148.40625 L 183.945312 157.765625 " fill-opacity="1" fill-rule="nonzero"/><path fill="#ffffff" d="M 94.148438 177.078125 C 93.964844 177.171875 87.398438 185.960938 87.398438 185.960938 L 84.550781 181.300781 L 90.339844 174.140625 L 94.148438 177.078125 " fill-opacity="1" fill-rule="nonzero"/><path fill="#000000" d="M 85.058594 181.335938 L 87.433594 185.226562 C 91.480469 179.8125 92.976562 177.863281 93.558594 177.144531 L 90.410156 174.714844 Z M 87.398438 186.375 C 87.390625 186.375 87.386719 186.375 87.378906 186.375 C 87.242188 186.367188 87.117188 186.292969 87.046875 186.179688 L 84.199219 181.515625 C 84.109375 181.367188 84.121094 181.179688 84.230469 181.042969 L 90.019531 173.878906 C 90.160156 173.707031 90.414062 173.675781 90.59375 173.8125 L 94.402344 176.75 C 94.511719 176.835938 94.574219 176.972656 94.558594 177.113281 C 94.550781 177.222656 94.496094 177.324219 94.414062 177.394531 C 94.050781 177.785156 90.230469 182.863281 87.726562 186.210938 C 87.652344 186.316406 87.527344 186.375 87.398438 186.375 " fill-opacity="1" fill-rule="nonzero"/><path fill="#000000" d="M 88.183594 181.5 C 88.609375 181.566406 89.121094 181.746094 89.53125 182.179688 C 90.152344 182.839844 90.265625 183.828125 89.882812 184.65625 C 88.925781 186.722656 86.167969 192.367188 83.050781 195.988281 C 81.953125 197.269531 80.101562 197.207031 79.640625 195.003906 C 78.890625 191.398438 79.078125 185.328125 82.140625 179.582031 C 82.492188 178.921875 83.152344 178.476562 83.898438 178.414062 C 84.503906 178.363281 85.273438 178.339844 86.027344 178.4375 C 86.75 178.527344 87.289062 179.140625 87.308594 179.867188 L 87.324219 180.523438 C 87.335938 181.011719 87.695312 181.421875 88.183594 181.5 " fill-opacity="1" fill-rule="nonzero"/><path fill="#ffffff" d="M 81.921875 195.777344 C 81.8125 195.777344 81.703125 195.738281 81.621094 195.648438 C 81.484375 195.503906 78.351562 191.945312 83.140625 180.242188 C 83.226562 180.035156 83.46875 179.933594 83.679688 180.019531 C 83.890625 180.105469 83.992188 180.347656 83.90625 180.558594 C 79.359375 191.667969 82.199219 195.058594 82.230469 195.089844 C 82.378906 195.257812 82.367188 195.519531 82.199219 195.671875 C 82.121094 195.746094 82.019531 195.777344 81.921875 195.777344 " fill-opacity="1" fill-rule="nonzero"/><path fill="#ffffff" d="M 86.613281 190.511719 C 86.550781 190.511719 86.484375 190.496094 86.425781 190.464844 L 83.992188 189.195312 C 83.789062 189.089844 83.710938 188.839844 83.816406 188.636719 C 83.921875 188.433594 84.171875 188.355469 84.375 188.460938 L 86.804688 189.730469 C 87.007812 189.835938 87.085938 190.085938 86.980469 190.289062 C 86.90625 190.429688 86.765625 190.511719 86.613281 190.511719 " fill-opacity="1" fill-rule="nonzero"/><path fill="#ffffff" d="M 87.914062 188.785156 C 87.851562 188.785156 87.785156 188.769531 87.722656 188.734375 L 84.882812 187.234375 C 84.679688 187.128906 84.601562 186.878906 84.710938 186.679688 C 84.816406 186.476562 85.066406 186.398438 85.269531 186.503906 L 88.109375 188.003906 C 88.3125 188.113281 88.386719 188.363281 88.28125 188.5625 C 88.207031 188.703125 88.0625 188.785156 87.914062 188.785156 " fill-opacity="1" fill-rule="nonzero"/><path fill="#000000" d="M 86.875 126.597656 C 84.566406 125.410156 79.472656 122.6875 77.878906 124.734375 C 75.414062 127.910156 74.746094 135.800781 76.089844 137.96875 C 78.277344 141.492188 100.976562 151.496094 100.3125 150.878906 C 99.648438 150.261719 89.753906 168.925781 86.429688 176.316406 L 93.425781 179.796875 C 93.425781 179.796875 118.160156 155.183594 118.429688 151.3125 C 118.914062 144.390625 102.675781 135.445312 97.644531 132.222656 C 96.964844 131.789062 90.964844 128.695312 86.875 126.597656 " fill-opacity="1" fill-rule="nonzero"/><path fill="#000000" d="M 78.734375 82.78125 C 77.871094 84.335938 78.96875 84.945312 78.285156 88.003906 C 77.777344 90.253906 76.925781 91.082031 77.414062 92.234375 C 77.855469 93.273438 79.011719 93.691406 79.777344 93.964844 C 83.242188 95.21875 86.710938 93.589844 88.839844 92.589844 C 90.5625 91.777344 92.925781 90.667969 92.824219 89.429688 C 92.726562 88.207031 90.339844 88.269531 89.3125 86.183594 C 88.484375 84.503906 89.566406 83.523438 88.683594 82.09375 C 87.535156 80.246094 84.675781 80.191406 84.214844 80.183594 C 82.375 80.148438 79.796875 80.871094 78.734375 82.78125 " fill-opacity="1" fill-rule="nonzero"/><path fill="#ffffff" d="M 97.960938 93.050781 L 88.609375 94.953125 C 88.4375 94.980469 88.273438 94.878906 88.222656 94.714844 C 87.675781 92.914062 88.742188 90.976562 89.050781 90.472656 C 89.097656 90.394531 89.175781 90.339844 89.265625 90.320312 C 89.730469 90.21875 90.152344 90.074219 90.53125 89.894531 C 91 89.671875 91.214844 89.117188 91.027344 88.632812 C 90.722656 87.851562 90.402344 86.804688 90.210938 86.371094 C 90.167969 86.265625 90.175781 86.144531 90.242188 86.050781 C 90.410156 85.824219 90.664062 85.65625 90.648438 85.304688 C 90.644531 85.171875 90.558594 85.050781 90.433594 85.007812 C 89.285156 84.609375 88.464844 82.828125 87.714844 82.265625 C 87.355469 81.996094 87.109375 81.914062 86.703125 81.671875 C 86.636719 81.628906 86.554688 81.609375 86.476562 81.621094 C 84.484375 81.960938 87.398438 84.546875 84.746094 85.867188 C 84.617188 85.933594 84.53125 86.074219 84.554688 86.222656 C 84.589844 86.4375 84.566406 86.726562 84.527344 86.988281 C 84.527344 86.992188 84.527344 86.992188 84.527344 86.996094 C 84.488281 87.261719 84.167969 87.378906 83.96875 87.199219 C 83.59375 86.863281 83.195312 86.753906 82.953125 86.878906 C 82.609375 87.0625 82.601562 87.707031 82.703125 88.101562 C 82.90625 88.886719 83.695312 89.277344 84.148438 89.441406 C 84.320312 89.503906 84.410156 89.691406 84.351562 89.867188 C 84 90.914062 82.921875 94.191406 82.785156 95.699219 C 82.769531 95.851562 82.65625 95.976562 82.503906 96.003906 L 80.722656 96.3125 C 78.039062 96.773438 74.816406 98.238281 72.703125 99.957031 L 69.980469 102.039062 C 69.769531 102.210938 68.824219 102.714844 69.003906 102.914062 C 74.25 108.75 85.195312 105.738281 89.269531 104.148438 C 93.21875 102.605469 97.441406 94.757812 98.792969 96.421875 C 99.683594 97.519531 98.222656 93.007812 97.960938 93.050781 " fill-opacity="1" fill-rule="nonzero"/><path fill="#000000" d="M 69.511719 102.855469 C 75.332031 108.90625 87.710938 104.3125 89.117188 103.761719 C 90.957031 103.042969 92.96875 100.765625 94.582031 98.9375 C 96.359375 96.925781 97.414062 95.78125 98.332031 95.78125 C 98.339844 95.78125 98.347656 95.78125 98.355469 95.78125 C 98.425781 95.78125 98.496094 95.789062 98.5625 95.804688 C 98.382812 95.066406 98.003906 93.945312 97.789062 93.507812 L 88.691406 95.355469 C 88.304688 95.425781 87.9375 95.199219 87.828125 94.835938 C 87.234375 92.882812 88.34375 90.839844 88.695312 90.257812 C 88.800781 90.085938 88.976562 89.960938 89.175781 89.917969 C 89.597656 89.824219 89.996094 89.6875 90.355469 89.519531 C 90.625 89.390625 90.753906 89.066406 90.640625 88.78125 C 90.492188 88.398438 90.339844 87.949219 90.203125 87.554688 C 90.0625 87.140625 89.925781 86.746094 89.835938 86.535156 C 89.726562 86.292969 89.757812 86.011719 89.910156 85.804688 C 89.957031 85.738281 90.011719 85.679688 90.066406 85.617188 C 90.175781 85.492188 90.222656 85.4375 90.234375 85.375 C 89.4375 85.070312 88.832031 84.261719 88.292969 83.550781 C 87.992188 83.152344 87.707031 82.773438 87.46875 82.59375 C 87.273438 82.449219 87.121094 82.367188 86.925781 82.265625 C 86.800781 82.199219 86.667969 82.128906 86.511719 82.035156 C 86.386719 82.058594 86.246094 82.105469 86.1875 82.183594 C 86.085938 82.332031 86.15625 82.714844 86.226562 83.085938 C 86.394531 83.992188 86.644531 85.359375 84.972656 86.21875 C 84.996094 86.4375 84.984375 86.714844 84.9375 87.046875 C 84.898438 87.328125 84.710938 87.554688 84.449219 87.652344 C 84.191406 87.746094 83.898438 87.691406 83.695312 87.507812 C 83.410156 87.253906 83.191406 87.226562 83.144531 87.246094 C 83.078125 87.296875 83.015625 87.648438 83.105469 87.996094 C 83.257812 88.597656 83.914062 88.914062 84.289062 89.050781 C 84.675781 89.191406 84.875 89.605469 84.742188 89.996094 C 84.414062 90.972656 83.332031 94.269531 83.195312 95.734375 C 83.164062 96.074219 82.910156 96.355469 82.574219 96.410156 L 80.792969 96.71875 C 78.171875 97.171875 75.027344 98.601562 72.960938 100.277344 L 70.230469 102.367188 C 70.171875 102.414062 70.066406 102.480469 69.9375 102.566406 C 69.835938 102.628906 69.648438 102.75 69.511719 102.855469 Z M 78.234375 106.761719 C 74.730469 106.761719 71.148438 105.914062 68.699219 103.191406 C 68.597656 103.082031 68.554688 102.9375 68.574219 102.789062 C 68.617188 102.457031 68.949219 102.21875 69.488281 101.871094 C 69.589844 101.808594 69.675781 101.753906 69.71875 101.71875 L 72.449219 99.628906 C 74.605469 97.878906 77.90625 96.378906 80.652344 95.90625 L 82.378906 95.605469 C 82.535156 94.101562 83.5 91.105469 83.9375 89.800781 C 83.398438 89.597656 82.542969 89.128906 82.304688 88.203125 C 82.191406 87.761719 82.140625 86.839844 82.761719 86.515625 C 83.144531 86.3125 83.660156 86.421875 84.136719 86.800781 C 84.171875 86.511719 84.160156 86.355469 84.148438 86.289062 C 84.09375 85.964844 84.261719 85.648438 84.5625 85.5 C 85.722656 84.917969 85.578125 84.140625 85.414062 83.234375 C 85.3125 82.695312 85.210938 82.140625 85.511719 81.710938 C 85.695312 81.449219 85.988281 81.285156 86.40625 81.214844 C 86.578125 81.183594 86.761719 81.222656 86.917969 81.316406 C 87.066406 81.40625 87.191406 81.472656 87.3125 81.535156 C 87.519531 81.644531 87.71875 81.75 87.960938 81.933594 C 88.296875 82.183594 88.613281 82.605469 88.953125 83.050781 C 89.433594 83.691406 89.980469 84.414062 90.566406 84.617188 C 90.851562 84.714844 91.050781 84.984375 91.0625 85.289062 C 91.082031 85.722656 90.84375 85.988281 90.683594 86.167969 C 90.660156 86.195312 90.632812 86.222656 90.609375 86.25 C 90.714844 86.492188 90.839844 86.863281 90.984375 87.285156 C 91.117188 87.675781 91.269531 88.117188 91.410156 88.484375 C 91.679688 89.171875 91.371094 89.953125 90.710938 90.265625 C 90.300781 90.457031 89.855469 90.609375 89.386719 90.71875 C 89.132812 91.132812 88.148438 92.925781 88.601562 94.53125 L 97.878906 92.648438 C 97.882812 92.644531 97.886719 92.644531 97.890625 92.644531 C 98.269531 92.578125 98.472656 92.867188 98.894531 94.050781 C 99.808594 96.625 99.449219 96.828125 99.234375 96.949219 C 99.0625 97.042969 98.792969 97.078125 98.472656 96.683594 C 98.417969 96.613281 98.375 96.605469 98.335938 96.605469 C 98.335938 96.605469 98.332031 96.605469 98.332031 96.605469 C 97.742188 96.605469 96.394531 98.132812 95.203125 99.484375 C 93.441406 101.480469 91.445312 103.742188 89.417969 104.53125 C 88.535156 104.878906 83.46875 106.761719 78.234375 106.761719 " fill-opacity="1" fill-rule="nonzero"/><path fill="#ffffff" d="M 86.371094 90.289062 C 86.371094 90.289062 87.582031 90.84375 89.023438 90.375 L 86.371094 90.289062 " fill-opacity="1" fill-rule="nonzero"/><path fill="#000000" d="M 87.824219 90.980469 C 86.894531 90.980469 86.238281 90.683594 86.199219 90.667969 C 85.992188 90.570312 85.898438 90.324219 85.996094 90.117188 C 86.089844 89.910156 86.335938 89.820312 86.542969 89.914062 C 86.558594 89.921875 87.636719 90.390625 88.894531 89.984375 C 89.109375 89.914062 89.34375 90.03125 89.414062 90.25 C 89.484375 90.464844 89.367188 90.699219 89.148438 90.769531 C 88.675781 90.921875 88.222656 90.980469 87.824219 90.980469 " fill-opacity="1" fill-rule="nonzero"/><path fill="#000000" d="M 80.132812 82.023438 C 80.132812 82.023438 79.699219 78.394531 76.796875 79.238281 C 73.894531 80.085938 76.535156 83.175781 78.683594 83.5 C 80.835938 83.828125 80.132812 82.023438 80.132812 82.023438 " fill-opacity="1" fill-rule="nonzero"/><path fill="#ffffff" d="M 135.359375 70.84375 L 139.042969 67.582031 C 139.300781 67.355469 139.679688 67.34375 139.949219 67.554688 C 140.25 67.796875 140.308594 68.238281 140.070312 68.542969 L 138.878906 70.078125 L 139.679688 72.347656 C 139.925781 73.046875 139.710938 73.824219 139.140625 74.296875 L 137.632812 75.546875 C 136.875 76.171875 135.8125 76.269531 134.957031 75.792969 L 134.378906 75.472656 C 133.492188 74.980469 133.011719 73.976562 133.191406 72.976562 L 133.398438 71.796875 C 133.53125 71.058594 134.257812 70.578125 134.988281 70.753906 L 135.359375 70.84375 " fill-opacity="1" fill-rule="nonzero"/><path fill="#000000" d="M 134.683594 71.132812 C 134.507812 71.132812 134.34375 71.183594 134.195312 71.277344 C 133.988281 71.414062 133.847656 71.625 133.804688 71.867188 L 133.597656 73.046875 C 133.449219 73.875 133.84375 74.703125 134.578125 75.113281 L 135.15625 75.433594 C 135.867188 75.828125 136.738281 75.75 137.367188 75.230469 L 138.875 73.976562 C 139.3125 73.617188 139.480469 73.019531 139.289062 72.484375 L 138.488281 70.214844 C 138.441406 70.085938 138.464844 69.9375 138.550781 69.824219 L 139.742188 68.289062 C 139.839844 68.164062 139.816406 67.980469 139.691406 67.878906 C 139.582031 67.792969 139.421875 67.796875 139.316406 67.890625 L 135.632812 71.152344 C 135.53125 71.242188 135.394531 71.277344 135.261719 71.246094 L 134.890625 71.15625 C 134.820312 71.140625 134.75 71.132812 134.683594 71.132812 Z M 136.117188 76.511719 C 135.652344 76.511719 135.183594 76.394531 134.753906 76.15625 L 134.179688 75.835938 C 133.136719 75.257812 132.574219 74.078125 132.78125 72.90625 L 132.992188 71.726562 C 133.074219 71.261719 133.347656 70.847656 133.742188 70.585938 C 134.132812 70.328125 134.625 70.242188 135.082031 70.351562 L 135.246094 70.390625 L 138.769531 67.273438 C 139.175781 66.914062 139.777344 66.894531 140.203125 67.234375 C 140.683594 67.609375 140.769531 68.3125 140.394531 68.796875 L 139.34375 70.15625 L 140.070312 72.210938 C 140.371094 73.070312 140.105469 74.035156 139.402344 74.617188 L 137.894531 75.863281 C 137.378906 76.292969 136.75 76.507812 136.117188 76.511719 " fill-opacity="1" fill-rule="nonzero"/><path fill="#ffffff" d="M 135.359375 70.839844 L 136.632812 71.875 C 136.632812 71.875 136.140625 73.132812 135.28125 72.570312 L 135.359375 70.839844 " fill-opacity="1" fill-rule="nonzero"/><path fill="#000000" d="M 135.714844 73.128906 C 135.527344 73.128906 135.300781 73.078125 135.054688 72.914062 C 134.863281 72.789062 134.808594 72.535156 134.933594 72.34375 C 135.058594 72.152344 135.316406 72.101562 135.507812 72.222656 C 135.664062 72.328125 135.75 72.300781 135.78125 72.292969 C 135.902344 72.253906 136.019531 72.117188 136.113281 71.984375 L 135.097656 71.164062 C 134.921875 71.019531 134.894531 70.757812 135.039062 70.582031 C 135.179688 70.402344 135.441406 70.378906 135.617188 70.519531 L 136.894531 71.558594 C 137.035156 71.671875 137.085938 71.863281 137.019531 72.027344 C 136.984375 72.117188 136.667969 72.875 136.03125 73.078125 C 135.945312 73.105469 135.835938 73.128906 135.714844 73.128906 " fill-opacity="1" fill-rule="nonzero"/><path fill="#ffffff" d="M 139.089844 70.6875 L 137.519531 72.464844 L 139.089844 70.6875 " fill-opacity="1" fill-rule="nonzero"/><path fill="#000000" d="M 137.519531 72.878906 C 137.425781 72.878906 137.328125 72.84375 137.25 72.773438 C 137.078125 72.625 137.0625 72.363281 137.210938 72.191406 L 138.78125 70.414062 C 138.933594 70.242188 139.195312 70.226562 139.367188 70.378906 C 139.535156 70.527344 139.550781 70.789062 139.402344 70.960938 L 137.832031 72.738281 C 137.75 72.832031 137.636719 72.878906 137.519531 72.878906 " fill-opacity="1" fill-rule="nonzero"/><path fill="#ffffff" d="M 139.480469 72.15625 L 138.21875 73.558594 L 139.480469 72.15625 " fill-opacity="1" fill-rule="nonzero"/><path fill="#000000" d="M 138.21875 73.96875 C 138.117188 73.96875 138.019531 73.933594 137.941406 73.863281 C 137.773438 73.710938 137.757812 73.449219 137.910156 73.28125 L 139.175781 71.878906 C 139.328125 71.707031 139.585938 71.695312 139.757812 71.847656 C 139.925781 72 139.941406 72.261719 139.789062 72.433594 L 138.523438 73.832031 C 138.441406 73.921875 138.332031 73.96875 138.21875 73.96875 " fill-opacity="1" fill-rule="nonzero"/><path fill="#000000" d="M 77.546875 96.691406 L 79.101562 96.171875 C 79.101562 96.171875 88.082031 102.503906 92.5 93.722656 L 94.648438 93.210938 L 98.382812 105.542969 L 76.589844 110.3125 L 77.546875 96.691406 " fill-opacity="1" fill-rule="nonzero"/><path fill="#93c5fd" d="M 135.234375 77.175781 C 133.761719 76.636719 132.289062 76.101562 130.816406 75.5625 C 124.191406 82.609375 117.859375 86.097656 113.09375 87.980469 C 107.222656 90.304688 97.183594 92.78125 97.183594 92.78125 C 97.183594 92.78125 96.992188 97.476562 88.996094 102.488281 C 81 107.496094 69.367188 101.640625 69.367188 101.640625 C 69.367188 101.640625 55.707031 112.28125 54.640625 118.996094 C 52.871094 130.152344 72.152344 136.410156 72.152344 136.410156 L 73.109375 133.414062 C 73.109375 133.414062 65.539062 126.667969 67.535156 120.261719 C 69.53125 113.855469 74.046875 111.183594 74.046875 111.183594 C 75.019531 118.726562 74.066406 127.414062 74.066406 127.414062 C 86.816406 131.277344 98.136719 127.550781 103.15625 125.351562 C 104.867188 124.601562 105.882812 122.824219 105.679688 120.972656 C 104.910156 113.988281 102.582031 105.113281 102.582031 105.113281 C 105.570312 105.09375 108.808594 104.664062 112.128906 103.542969 C 128.34375 98.070312 134.265625 80.253906 135.234375 77.175781 " fill-opacity="1" fill-rule="nonzero"/><path fill="#000000" d="M 88.871094 124.585938 C 88.703125 124.585938 88.542969 124.480469 88.484375 124.3125 C 88.40625 124.097656 88.519531 123.859375 88.734375 123.785156 C 98.3125 120.347656 100.1875 109.753906 100.203125 109.644531 C 100.242188 109.421875 100.453125 109.269531 100.679688 109.304688 C 100.90625 109.34375 101.058594 109.558594 101.019531 109.78125 C 101 109.894531 99.058594 120.960938 89.011719 124.5625 C 88.964844 124.578125 88.917969 124.585938 88.871094 124.585938 " fill-opacity="1" fill-rule="nonzero"/><path fill="#ffffff" d="M 90.671875 129.949219 L 80.167969 115.414062 C 79.902344 115.042969 79.386719 114.960938 79.015625 115.226562 L 60.011719 128.957031 C 59.644531 129.222656 59.558594 129.738281 59.828125 130.109375 L 70.328125 144.644531 C 70.597656 145.015625 71.113281 145.097656 71.484375 144.832031 L 90.484375 131.101562 C 90.855469 130.835938 90.9375 130.320312 90.671875 129.949219 " fill-opacity="1" fill-rule="nonzero"/><path fill="#000000" d="M 79.5 115.484375 C 79.414062 115.484375 79.332031 115.507812 79.257812 115.5625 L 60.253906 129.292969 C 60.164062 129.355469 60.105469 129.453125 60.089844 129.558594 C 60.070312 129.671875 60.097656 129.777344 60.160156 129.867188 L 70.664062 144.402344 C 70.796875 144.589844 71.058594 144.632812 71.242188 144.496094 L 90.242188 130.769531 C 90.332031 130.703125 90.390625 130.609375 90.410156 130.5 C 90.425781 130.390625 90.402344 130.28125 90.335938 130.191406 L 79.835938 115.652344 C 79.753906 115.542969 79.628906 115.484375 79.5 115.484375 Z M 71 145.402344 C 70.617188 145.402344 70.234375 145.222656 69.996094 144.890625 L 59.492188 130.351562 C 59.296875 130.082031 59.21875 129.757812 59.273438 129.429688 C 59.324219 129.101562 59.503906 128.816406 59.769531 128.621094 L 78.773438 114.890625 C 79.328125 114.492188 80.105469 114.617188 80.503906 115.171875 L 91.007812 129.707031 C 91.199219 129.976562 91.277344 130.300781 91.226562 130.628906 C 91.171875 130.957031 90.996094 131.242188 90.726562 131.4375 L 71.726562 145.167969 C 71.507812 145.324219 71.253906 145.402344 71 145.402344 " fill-opacity="1" fill-rule="nonzero"/><path fill="#000000" d="M 70.8125 142.328125 L 62.179688 130.378906 L 80.167969 117.382812 L 88.800781 129.332031 L 70.8125 142.328125 " fill-opacity="1" fill-rule="nonzero"/><path fill="#ffffff" d="M 88.59375 125.367188 L 83.867188 118.824219 C 83.539062 118.371094 82.90625 118.269531 82.457031 118.597656 L 80.957031 119.679688 L 86.867188 127.859375 L 88.367188 126.777344 C 88.816406 126.453125 88.921875 125.820312 88.59375 125.367188 " fill-opacity="1" fill-rule="nonzero"/><path fill="#ffffff" d="M 87.410156 121.242188 C 87.273438 121.050781 87.316406 120.78125 87.507812 120.644531 C 87.699219 120.507812 87.964844 120.550781 88.105469 120.742188 C 88.242188 120.933594 88.199219 121.199219 88.007812 121.339844 C 87.816406 121.476562 87.550781 121.433594 87.410156 121.242188 Z M 88.9375 120.140625 C 88.234375 119.167969 86.878906 118.949219 85.910156 119.652344 L 84.152344 120.921875 L 86.691406 124.4375 L 88.449219 123.167969 C 89.421875 122.46875 89.636719 121.113281 88.9375 120.140625 " fill-opacity="1" fill-rule="nonzero"/><path fill="#ffffff" d="M 84.535156 130.691406 L 77.535156 121.003906 L 78.339844 120.425781 L 85.339844 130.113281 L 84.535156 130.691406 " fill-opacity="1" fill-rule="nonzero"/><path fill="#ffffff" d="M 82.890625 131.882812 L 75.890625 122.195312 L 76.691406 121.613281 L 83.691406 131.300781 L 82.890625 131.882812 " fill-opacity="1" fill-rule="nonzero"/><path fill="#ffffff" d="M 81.242188 133.070312 L 74.242188 123.382812 L 75.046875 122.804688 L 82.046875 132.492188 L 81.242188 133.070312 " fill-opacity="1" fill-rule="nonzero"/><path fill="#ffffff" d="M 71.664062 135.984375 C 71.664062 135.984375 74.8125 140.878906 77.308594 140.648438 C 79.808594 140.417969 79.542969 138.601562 79.542969 138.601562 L 76.15625 136.054688 C 76.15625 136.054688 79.492188 137.058594 79.292969 135.835938 C 79.1875 135.207031 78.886719 135.191406 78.117188 135.058594 C 76.113281 134.71875 72.421875 133.933594 72.421875 133.933594 L 71.664062 135.984375 " fill-opacity="1" fill-rule="nonzero"/><path fill="#000000" d="M 72.121094 135.933594 C 73.0625 137.332031 75.511719 140.40625 77.273438 140.238281 C 78.027344 140.167969 78.5625 139.9375 78.863281 139.558594 C 79.078125 139.285156 79.128906 138.988281 79.136719 138.8125 L 75.90625 136.386719 C 75.746094 136.265625 75.695312 136.046875 75.785156 135.871094 C 75.875 135.691406 76.082031 135.601562 76.273438 135.660156 C 77.421875 136.003906 78.683594 136.140625 78.890625 135.941406 C 78.886719 135.9375 78.886719 135.925781 78.882812 135.902344 C 78.835938 135.601562 78.835938 135.601562 78.171875 135.488281 L 78.046875 135.46875 C 76.417969 135.1875 73.65625 134.617188 72.6875 134.410156 Z M 77.140625 141.070312 C 74.523438 141.070312 71.644531 136.71875 71.316406 136.207031 C 71.246094 136.097656 71.230469 135.960938 71.277344 135.839844 L 72.035156 133.789062 C 72.105469 133.597656 72.308594 133.488281 72.507812 133.527344 C 72.546875 133.539062 76.214844 134.316406 78.183594 134.652344 L 78.308594 134.671875 C 79.003906 134.792969 79.554688 134.882812 79.699219 135.769531 C 79.75 136.082031 79.660156 136.363281 79.4375 136.558594 C 79.109375 136.847656 78.5 136.890625 77.875 136.832031 L 79.792969 138.269531 C 79.878906 138.335938 79.9375 138.433594 79.953125 138.539062 C 79.957031 138.574219 80.066406 139.367188 79.511719 140.070312 C 79.066406 140.636719 78.339844 140.96875 77.347656 141.0625 C 77.277344 141.066406 77.207031 141.070312 77.140625 141.070312 " fill-opacity="1" fill-rule="nonzero"/><path fill="#ffffff" d="M 75.417969 138.660156 C 75.417969 138.660156 76.175781 139.527344 77.929688 140.546875 L 75.417969 138.660156 " fill-opacity="1" fill-rule="nonzero"/><path fill="#000000" d="M 77.929688 140.960938 C 77.859375 140.960938 77.785156 140.945312 77.722656 140.90625 C 75.929688 139.863281 75.140625 138.96875 75.109375 138.929688 C 74.957031 138.761719 74.976562 138.5 75.148438 138.347656 C 75.316406 138.199219 75.578125 138.214844 75.730469 138.386719 C 75.738281 138.398438 76.476562 139.222656 78.136719 140.191406 C 78.335938 140.304688 78.402344 140.558594 78.285156 140.757812 C 78.210938 140.886719 78.070312 140.960938 77.929688 140.960938 " fill-opacity="1" fill-rule="nonzero"/><path fill="#ffffff" d="M 76.191406 137.941406 C 76.191406 137.941406 77.21875 138.882812 79.042969 139.972656 L 76.191406 137.941406 " fill-opacity="1" fill-rule="nonzero"/><path fill="#000000" d="M 79.042969 140.386719 C 78.972656 140.386719 78.898438 140.367188 78.832031 140.328125 C 76.992188 139.226562 75.957031 138.285156 75.914062 138.246094 C 75.746094 138.09375 75.734375 137.832031 75.886719 137.664062 C 76.039062 137.496094 76.300781 137.484375 76.46875 137.636719 C 76.480469 137.648438 77.492188 138.5625 79.257812 139.617188 C 79.453125 139.734375 79.515625 139.988281 79.398438 140.183594 C 79.324219 140.3125 79.183594 140.386719 79.042969 140.386719 " fill-opacity="1" fill-rule="nonzero"/><path fill="#93c5fd" d="M 67.535156 120.261719 C 67.8125 119.371094 68.140625 118.554688 68.496094 117.804688 C 68.308594 117.648438 68.121094 117.496094 67.9375 117.339844 C 66.582031 116.203125 65.238281 115.070312 63.832031 114 C 62.414062 112.921875 60.984375 111.859375 59.546875 110.804688 C 57.085938 113.585938 55.03125 116.554688 54.640625 118.996094 C 52.871094 130.152344 72.152344 136.410156 72.152344 136.410156 L 73.109375 133.414062 C 73.109375 133.414062 65.539062 126.667969 67.535156 120.261719 " fill-opacity="1" fill-rule="nonzero"/><path fill="#ffffff" d="M 219.105469 110.3125 C 219.105469 104.554688 223.777344 99.882812 229.535156 99.882812 C 235.296875 99.882812 239.96875 104.554688 239.96875 110.3125 C 239.96875 116.074219 235.296875 120.742188 229.535156 120.742188 C 223.777344 120.742188 219.105469 116.074219 219.105469 110.3125 " fill-opacity="1" fill-rule="nonzero"/><path fill="#000000" d="M 229.539062 100.296875 C 224.015625 100.296875 219.523438 104.789062 219.523438 110.3125 C 219.523438 115.835938 224.015625 120.328125 229.539062 120.328125 C 235.0625 120.328125 239.554688 115.835938 239.554688 110.3125 C 239.554688 104.789062 235.0625 100.296875 229.539062 100.296875 Z M 229.539062 121.15625 C 223.558594 121.15625 218.695312 116.292969 218.695312 110.3125 C 218.695312 104.335938 223.558594 99.46875 229.539062 99.46875 C 235.515625 99.46875 240.378906 104.335938 240.378906 110.3125 C 240.378906 116.292969 235.515625 121.15625 229.539062 121.15625 " fill-opacity="1" fill-rule="nonzero"/><path fill="#93c5fd" d="M 232.351562 111.355469 C 231.765625 111.355469 231.25 111.636719 230.917969 112.066406 L 227.394531 110.699219 C 227.398438 110.652344 227.410156 110.609375 227.410156 110.558594 C 227.410156 110.472656 227.394531 110.386719 227.386719 110.300781 L 230.992188 108.632812 C 231.328125 109.011719 231.808594 109.257812 232.351562 109.261719 C 233.355469 109.261719 234.171875 108.441406 234.171875 107.429688 C 234.175781 106.417969 233.355469 105.59375 232.351562 105.59375 C 231.347656 105.589844 230.53125 106.414062 230.53125 107.421875 C 230.53125 107.511719 230.546875 107.59375 230.558594 107.679688 L 226.949219 109.351562 C 226.617188 108.96875 226.132812 108.722656 225.589844 108.722656 C 224.585938 108.722656 223.769531 109.542969 223.769531 110.550781 C 223.769531 111.566406 224.585938 112.386719 225.589844 112.390625 C 226.171875 112.390625 226.691406 112.109375 227.023438 111.675781 L 230.542969 113.046875 C 230.542969 113.09375 230.53125 113.136719 230.53125 113.183594 C 230.53125 114.195312 231.347656 115.019531 232.351562 115.019531 C 233.355469 115.023438 234.171875 114.199219 234.171875 113.191406 C 234.171875 112.179688 233.355469 111.355469 232.351562 111.355469 " fill-opacity="1" fill-rule="nonzero"/><path fill="#ffffff" d="M 213.539062 149.734375 C 215.769531 145.824219 220.746094 144.460938 224.652344 146.691406 C 228.5625 148.917969 229.925781 153.890625 227.699219 157.800781 C 225.46875 161.710938 220.496094 163.074219 216.585938 160.847656 C 212.675781 158.617188 211.3125 153.644531 213.539062 149.734375 " fill-opacity="1" fill-rule="nonzero"/><path fill="#000000" d="M 213.902344 149.9375 C 212.878906 151.734375 212.617188 153.820312 213.160156 155.8125 C 213.707031 157.804688 214.996094 159.464844 216.789062 160.488281 C 220.496094 162.597656 225.226562 161.300781 227.339844 157.597656 C 228.363281 155.800781 228.625 153.71875 228.082031 151.722656 C 227.535156 149.730469 226.246094 148.070312 224.449219 147.046875 C 222.65625 146.023438 220.570312 145.761719 218.578125 146.308594 C 216.582031 146.855469 214.921875 148.144531 213.902344 149.9375 Z M 220.605469 162.328125 C 219.171875 162.328125 217.714844 161.964844 216.382812 161.203125 C 212.28125 158.867188 210.847656 153.632812 213.183594 149.53125 L 213.183594 149.527344 C 214.316406 147.542969 216.152344 146.117188 218.359375 145.511719 C 220.566406 144.90625 222.871094 145.195312 224.859375 146.332031 C 228.960938 148.667969 230.394531 153.90625 228.058594 158.007812 C 226.480469 160.773438 223.585938 162.328125 220.605469 162.328125 " fill-opacity="1" fill-rule="nonzero"/><path fill="#93c5fd" d="M 218.628906 157.351562 C 218.535156 157.355469 218.445312 157.308594 218.394531 157.226562 C 217.972656 156.523438 216.070312 153.128906 217.484375 150.914062 C 218.976562 148.570312 221.355469 150.480469 221.324219 152.035156 C 221.324219 152.09375 221.355469 152.148438 221.410156 152.171875 C 221.460938 152.199219 221.523438 152.191406 221.570312 152.15625 C 222.320312 151.574219 223.660156 151.605469 224.417969 152.519531 C 225.320312 153.605469 224.863281 157.121094 218.628906 157.351562 " fill-opacity="1" fill-rule="nonzero"/><path fill="#ffffff" d="M 184.902344 87.402344 C 185.84375 82.238281 190.792969 78.792969 195.960938 79.707031 C 201.128906 80.617188 204.554688 85.539062 203.613281 90.703125 C 202.671875 95.863281 197.71875 99.308594 192.550781 98.394531 C 187.386719 97.484375 183.960938 92.5625 184.902344 87.402344 " fill-opacity="1" fill-rule="nonzero"/><path fill="#000000" d="M 194.300781 79.972656 C 189.972656 79.972656 186.109375 83.078125 185.304688 87.476562 C 184.871094 89.859375 185.394531 92.269531 186.773438 94.253906 C 188.15625 96.242188 190.234375 97.570312 192.625 97.988281 C 193.15625 98.082031 193.6875 98.128906 194.210938 98.128906 C 198.539062 98.128906 202.402344 95.027344 203.203125 90.628906 C 203.640625 88.242188 203.117188 85.832031 201.738281 83.847656 C 200.355469 81.859375 198.277344 80.535156 195.890625 80.113281 C 195.355469 80.019531 194.824219 79.972656 194.300781 79.972656 Z M 194.210938 98.953125 C 193.640625 98.953125 193.0625 98.90625 192.480469 98.804688 C 189.875 98.34375 187.605469 96.894531 186.097656 94.726562 C 184.589844 92.558594 184.019531 89.933594 184.496094 87.328125 C 185.472656 81.953125 190.648438 78.351562 196.03125 79.300781 C 198.640625 79.761719 200.90625 81.207031 202.414062 83.375 C 203.925781 85.542969 204.492188 88.171875 204.019531 90.777344 C 203.144531 95.574219 198.929688 98.953125 194.210938 98.953125 " fill-opacity="1" fill-rule="nonzero"/><path fill="#93c5fd" d="M 200.042969 85.394531 L 196.738281 86.609375 C 196.566406 86.675781 196.523438 86.894531 196.65625 87.019531 L 197.046875 87.382812 C 197.144531 87.476562 197.152344 87.628906 197.058594 87.726562 L 195.285156 89.636719 C 195.191406 89.734375 195.039062 89.742188 194.9375 89.648438 L 192.667969 87.535156 C 192.570312 87.445312 192.414062 87.449219 192.324219 87.546875 L 188.367188 91.78125 C 188.273438 91.878906 188.277344 92.03125 188.378906 92.125 L 189.207031 92.898438 C 189.308594 92.988281 189.460938 92.984375 189.554688 92.882812 L 192.40625 89.84375 C 192.5 89.742188 192.652344 89.738281 192.75 89.828125 L 195.019531 91.941406 C 195.121094 92.035156 195.273438 92.027344 195.367188 91.929688 L 198.246094 88.835938 C 198.335938 88.738281 198.492188 88.730469 198.589844 88.824219 L 199.011719 89.214844 C 199.144531 89.339844 199.363281 89.277344 199.414062 89.101562 L 200.363281 85.691406 C 200.414062 85.5 200.230469 85.328125 200.042969 85.394531 " fill-opacity="1" fill-rule="nonzero"/><path fill="#000000" d="M 52.484375 237.339844 C 46.609375 238.949219 40.539062 235.488281 38.929688 229.605469 C 37.320312 223.726562 40.78125 217.652344 46.65625 216.042969 C 52.535156 214.433594 58.601562 217.894531 60.210938 223.773438 C 61.820312 229.65625 58.359375 235.726562 52.484375 237.339844 Z M 71.519531 222.898438 L 70.386719 218.761719 L 65.710938 218.976562 C 65.277344 218.066406 64.777344 217.203125 64.210938 216.394531 L 66.683594 212.425781 L 63.636719 209.410156 L 59.695312 211.933594 C 58.871094 211.371094 58.007812 210.875 57.101562 210.457031 L 57.265625 205.773438 L 53.121094 204.6875 L 50.96875 208.839844 C 49.984375 208.761719 48.988281 208.769531 47.980469 208.863281 L 45.785156 204.726562 L 41.648438 205.859375 L 41.863281 210.539062 C 40.953125 210.972656 40.089844 211.472656 39.28125 212.042969 L 35.316406 209.566406 L 32.304688 212.613281 L 34.824219 216.5625 C 34.261719 217.382812 33.769531 218.25 33.347656 219.152344 L 28.671875 218.992188 L 27.582031 223.140625 L 31.734375 225.292969 C 31.65625 226.277344 31.664062 227.273438 31.753906 228.28125 L 27.625 230.480469 L 28.753906 234.617188 L 33.429688 234.40625 C 33.863281 235.316406 34.367188 236.179688 34.933594 236.988281 L 32.457031 240.953125 L 35.503906 243.972656 L 39.449219 241.445312 C 40.269531 242.011719 41.136719 242.503906 42.039062 242.925781 L 41.878906 247.605469 L 46.023438 248.691406 L 48.175781 244.539062 C 49.160156 244.617188 50.15625 244.609375 51.160156 244.519531 L 53.359375 248.652344 L 57.492188 247.519531 L 57.28125 242.84375 C 58.191406 242.410156 59.054688 241.90625 59.859375 241.339844 L 63.824219 243.816406 L 66.839844 240.765625 L 64.316406 236.820312 C 64.878906 235.996094 65.375 235.132812 65.792969 234.226562 L 70.472656 234.386719 L 71.558594 230.242188 L 67.410156 228.085938 C 67.484375 227.105469 67.476562 226.105469 67.386719 225.101562 L 71.519531 222.898438 " fill-opacity="1" fill-rule="nonzero"/><path fill="#000000" d="M 93.183594 210.269531 C 92.972656 210.269531 92.792969 210.109375 92.773438 209.894531 C 92.753906 209.667969 92.921875 209.46875 93.148438 209.449219 C 94.230469 209.347656 95.359375 209.308594 96.488281 209.320312 C 96.714844 209.320312 96.898438 209.507812 96.898438 209.738281 C 96.894531 209.964844 96.703125 210.144531 96.480469 210.144531 C 95.375 210.132812 94.277344 210.171875 93.222656 210.269531 C 93.210938 210.269531 93.195312 210.269531 93.183594 210.269531 Z M 103.046875 210.8125 C 103.023438 210.8125 103 210.808594 102.972656 210.804688 C 101.878906 210.601562 100.792969 210.445312 99.738281 210.335938 C 99.511719 210.3125 99.34375 210.109375 99.367188 209.882812 C 99.390625 209.65625 99.597656 209.492188 99.820312 209.515625 C 100.898438 209.625 102.007812 209.785156 103.121094 209.992188 C 103.347656 210.03125 103.492188 210.246094 103.453125 210.472656 C 103.417969 210.671875 103.242188 210.8125 103.046875 210.8125 Z M 246.566406 210.933594 C 246.359375 210.933594 246.175781 210.773438 246.15625 210.5625 C 246.050781 209.507812 245.90625 208.414062 245.730469 207.308594 C 245.691406 207.085938 245.847656 206.871094 246.070312 206.835938 C 246.296875 206.796875 246.507812 206.953125 246.542969 207.179688 C 246.726562 208.300781 246.871094 209.410156 246.976562 210.480469 C 247 210.707031 246.835938 210.910156 246.609375 210.929688 C 246.59375 210.933594 246.582031 210.933594 246.566406 210.933594 Z M 86.734375 211.632812 C 86.5625 211.632812 86.402344 211.527344 86.34375 211.359375 C 86.269531 211.140625 86.382812 210.90625 86.597656 210.832031 C 87.640625 210.472656 88.730469 210.171875 89.832031 209.941406 C 90.058594 209.890625 90.277344 210.035156 90.324219 210.261719 C 90.371094 210.484375 90.226562 210.703125 90.003906 210.75 C 88.933594 210.972656 87.878906 211.265625 86.871094 211.613281 C 86.824219 211.628906 86.78125 211.632812 86.734375 211.632812 Z M 109.445312 212.449219 C 109.402344 212.449219 109.359375 212.445312 109.316406 212.429688 C 108.257812 212.085938 107.199219 211.777344 106.167969 211.511719 C 105.949219 211.453125 105.816406 211.230469 105.871094 211.007812 C 105.929688 210.789062 106.152344 210.652344 106.375 210.710938 C 107.421875 210.984375 108.496094 211.296875 109.570312 211.644531 C 109.789062 211.714844 109.90625 211.949219 109.835938 212.164062 C 109.78125 212.339844 109.617188 212.449219 109.445312 212.449219 Z M 80.851562 214.601562 C 80.71875 214.601562 80.589844 214.539062 80.507812 214.421875 C 80.378906 214.234375 80.429688 213.976562 80.617188 213.847656 C 81.539062 213.210938 82.511719 212.636719 83.507812 212.136719 C 83.710938 212.035156 83.957031 212.117188 84.0625 212.320312 C 84.164062 212.523438 84.082031 212.773438 83.878906 212.875 C 82.917969 213.359375 81.976562 213.914062 81.082031 214.527344 C 81.011719 214.578125 80.929688 214.601562 80.851562 214.601562 Z M 115.605469 214.839844 C 115.550781 214.839844 115.492188 214.828125 115.4375 214.804688 C 114.429688 214.351562 113.410156 213.921875 112.40625 213.535156 C 112.195312 213.453125 112.089844 213.210938 112.171875 213 C 112.253906 212.785156 112.492188 212.679688 112.707031 212.765625 C 113.71875 213.15625 114.753906 213.589844 115.777344 214.046875 C 115.984375 214.140625 116.078125 214.386719 115.984375 214.59375 C 115.914062 214.746094 115.765625 214.839844 115.605469 214.839844 Z M 246.746094 217.53125 C 246.734375 217.53125 246.730469 217.53125 246.722656 217.53125 C 246.496094 217.519531 246.320312 217.324219 246.332031 217.097656 C 246.371094 216.421875 246.390625 215.722656 246.390625 215.019531 C 246.390625 214.625 246.382812 214.230469 246.371094 213.828125 C 246.363281 213.601562 246.542969 213.410156 246.773438 213.402344 C 247.003906 213.390625 247.191406 213.578125 247.195312 213.804688 C 247.207031 214.210938 247.214844 214.617188 247.214844 215.019531 C 247.214844 215.738281 247.195312 216.453125 247.15625 217.140625 C 247.144531 217.363281 246.960938 217.53125 246.746094 217.53125 Z M 121.507812 217.824219 C 121.4375 217.824219 121.367188 217.808594 121.304688 217.769531 C 120.351562 217.230469 119.375 216.710938 118.40625 216.21875 C 118.203125 216.117188 118.121094 215.867188 118.222656 215.664062 C 118.328125 215.460938 118.574219 215.378906 118.777344 215.480469 C 119.757812 215.976562 120.746094 216.507812 121.710938 217.050781 C 121.90625 217.164062 121.976562 217.414062 121.867188 217.613281 C 121.789062 217.75 121.652344 217.824219 121.507812 217.824219 Z M 127.117188 221.316406 C 127.035156 221.316406 126.953125 221.296875 126.882812 221.246094 C 125.988281 220.632812 125.0625 220.027344 124.132812 219.449219 C 123.9375 219.328125 123.878906 219.070312 124 218.878906 C 124.121094 218.683594 124.375 218.625 124.566406 218.746094 C 125.507812 219.332031 126.445312 219.945312 127.351562 220.566406 C 127.539062 220.691406 127.585938 220.949219 127.457031 221.140625 C 127.378906 221.253906 127.246094 221.316406 127.117188 221.316406 Z M 245.738281 224.050781 C 245.703125 224.050781 245.667969 224.046875 245.632812 224.039062 C 245.414062 223.980469 245.28125 223.753906 245.339844 223.53125 C 245.613281 222.503906 245.832031 221.429688 246 220.34375 C 246.035156 220.117188 246.246094 219.964844 246.46875 219.996094 C 246.695312 220.03125 246.851562 220.242188 246.816406 220.46875 C 246.644531 221.582031 246.417969 222.683594 246.140625 223.742188 C 246.089844 223.929688 245.921875 224.050781 245.738281 224.050781 Z M 132.382812 225.3125 C 132.289062 225.3125 132.195312 225.277344 132.117188 225.214844 C 131.386719 224.597656 130.671875 224.019531 129.984375 223.496094 C 129.839844 223.386719 129.695312 223.277344 129.550781 223.164062 C 129.371094 223.027344 129.332031 222.769531 129.472656 222.585938 C 129.609375 222.402344 129.867188 222.367188 130.050781 222.503906 C 130.195312 222.617188 130.34375 222.726562 130.488281 222.839844 C 131.183594 223.371094 131.910156 223.957031 132.648438 224.582031 C 132.824219 224.730469 132.847656 224.988281 132.699219 225.164062 C 132.617188 225.261719 132.5 225.3125 132.382812 225.3125 Z M 189.9375 225.625 C 189.890625 225.625 189.84375 225.617188 189.796875 225.597656 C 188.777344 225.230469 187.746094 225.109375 186.746094 225.246094 C 186.519531 225.277344 186.3125 225.117188 186.28125 224.890625 C 186.25 224.664062 186.40625 224.457031 186.632812 224.425781 C 187.769531 224.273438 188.933594 224.40625 190.078125 224.824219 C 190.292969 224.902344 190.402344 225.140625 190.328125 225.351562 C 190.265625 225.519531 190.109375 225.625 189.9375 225.625 Z M 181.660156 229.078125 C 181.601562 229.078125 181.542969 229.066406 181.484375 229.039062 C 181.277344 228.941406 181.191406 228.695312 181.289062 228.488281 C 181.820312 227.367188 182.539062 226.449219 183.421875 225.761719 C 183.601562 225.621094 183.859375 225.652344 184 225.832031 C 184.140625 226.011719 184.109375 226.273438 183.929688 226.410156 C 183.148438 227.019531 182.511719 227.839844 182.03125 228.84375 C 181.964844 228.992188 181.816406 229.078125 181.660156 229.078125 Z M 195.050781 229.675781 C 194.925781 229.675781 194.804688 229.621094 194.722656 229.511719 C 194.042969 228.617188 193.296875 227.839844 192.511719 227.195312 C 192.335938 227.050781 192.3125 226.789062 192.457031 226.613281 C 192.601562 226.4375 192.859375 226.410156 193.039062 226.554688 C 193.871094 227.238281 194.65625 228.066406 195.378906 229.011719 C 195.519531 229.191406 195.484375 229.453125 195.304688 229.589844 C 195.226562 229.648438 195.140625 229.675781 195.050781 229.675781 Z M 137.273438 229.757812 C 137.171875 229.757812 137.070312 229.722656 136.988281 229.644531 C 136.128906 228.816406 135.34375 228.078125 134.585938 227.386719 C 134.417969 227.234375 134.40625 226.972656 134.5625 226.804688 C 134.714844 226.632812 134.976562 226.621094 135.144531 226.777344 C 135.90625 227.46875 136.695312 228.214844 137.5625 229.046875 C 137.726562 229.207031 137.730469 229.46875 137.574219 229.632812 C 137.492188 229.71875 137.382812 229.757812 137.273438 229.757812 Z M 243.335938 230.191406 C 243.269531 230.191406 243.203125 230.175781 243.140625 230.144531 C 242.941406 230.039062 242.867188 229.789062 242.972656 229.585938 C 243.480469 228.625 243.9375 227.628906 244.328125 226.625 C 244.414062 226.414062 244.652344 226.308594 244.867188 226.394531 C 245.078125 226.476562 245.183594 226.714844 245.097656 226.929688 C 244.695312 227.960938 244.226562 228.984375 243.703125 229.972656 C 243.628906 230.113281 243.484375 230.191406 243.335938 230.191406 Z M 141.96875 234.417969 C 141.863281 234.417969 141.757812 234.378906 141.675781 234.296875 C 140.894531 233.507812 140.117188 232.726562 139.34375 231.957031 C 139.183594 231.792969 139.183594 231.53125 139.34375 231.371094 C 139.503906 231.207031 139.765625 231.207031 139.925781 231.371094 C 140.703125 232.140625 141.480469 232.925781 142.261719 233.714844 C 142.421875 233.875 142.421875 234.136719 142.261719 234.296875 C 142.179688 234.378906 142.074219 234.417969 141.96875 234.417969 Z M 180.859375 235.542969 C 180.660156 235.542969 180.488281 235.402344 180.453125 235.199219 C 180.34375 234.539062 180.289062 233.867188 180.289062 233.191406 C 180.289062 232.71875 180.316406 232.25 180.367188 231.789062 C 180.394531 231.5625 180.601562 231.402344 180.828125 231.425781 C 181.054688 231.453125 181.214844 231.65625 181.191406 231.886719 C 181.140625 232.3125 181.113281 232.753906 181.113281 233.191406 C 181.113281 233.820312 181.167969 234.449219 181.265625 235.0625 C 181.304688 235.289062 181.152344 235.503906 180.929688 235.539062 C 180.90625 235.542969 180.882812 235.542969 180.859375 235.542969 Z M 197.921875 235.585938 C 197.734375 235.585938 197.566406 235.457031 197.519531 235.265625 C 197.292969 234.300781 196.910156 233.257812 196.417969 232.253906 C 196.316406 232.050781 196.402344 231.800781 196.605469 231.699219 C 196.8125 231.601562 197.058594 231.683594 197.160156 231.890625 C 197.6875 232.964844 198.078125 234.039062 198.324219 235.074219 C 198.375 235.296875 198.238281 235.519531 198.015625 235.574219 C 197.984375 235.582031 197.953125 235.585938 197.921875 235.585938 Z M 239.636719 235.652344 C 239.542969 235.652344 239.449219 235.621094 239.375 235.554688 C 239.199219 235.410156 239.175781 235.148438 239.320312 234.972656 C 240.027344 234.125 240.691406 233.25 241.289062 232.375 C 241.417969 232.183594 241.675781 232.136719 241.863281 232.265625 C 242.050781 232.390625 242.101562 232.648438 241.972656 232.835938 C 241.359375 233.738281 240.683594 234.636719 239.953125 235.503906 C 239.875 235.601562 239.757812 235.652344 239.636719 235.652344 Z M 146.636719 239.101562 C 146.53125 239.101562 146.425781 239.0625 146.34375 238.984375 C 145.558594 238.207031 144.78125 237.425781 144.003906 236.644531 C 143.839844 236.480469 143.84375 236.21875 144.003906 236.058594 C 144.167969 235.898438 144.429688 235.898438 144.589844 236.0625 C 145.363281 236.839844 146.144531 237.621094 146.925781 238.394531 C 147.085938 238.554688 147.089844 238.816406 146.929688 238.980469 C 146.847656 239.0625 146.742188 239.101562 146.636719 239.101562 Z M 234.988281 240.335938 C 234.871094 240.335938 234.757812 240.289062 234.675781 240.191406 C 234.527344 240.019531 234.542969 239.757812 234.71875 239.609375 C 235.5625 238.882812 236.371094 238.132812 237.117188 237.382812 C 237.277344 237.222656 237.539062 237.222656 237.699219 237.382812 C 237.863281 237.542969 237.863281 237.804688 237.703125 237.96875 C 236.941406 238.730469 236.117188 239.496094 235.257812 240.234375 C 235.179688 240.304688 235.082031 240.335938 234.988281 240.335938 Z M 183.746094 241.390625 C 183.632812 241.390625 183.515625 241.34375 183.4375 241.25 C 182.664062 240.367188 182.019531 239.425781 181.523438 238.445312 C 181.417969 238.242188 181.496094 237.992188 181.699219 237.890625 C 181.902344 237.789062 182.152344 237.867188 182.257812 238.070312 C 182.722656 238.988281 183.332031 239.875 184.058594 240.707031 C 184.207031 240.878906 184.191406 241.140625 184.019531 241.289062 C 183.941406 241.359375 183.84375 241.390625 183.746094 241.390625 Z M 197.914062 242.140625 C 197.886719 242.140625 197.855469 242.136719 197.824219 242.132812 C 197.601562 242.082031 197.460938 241.859375 197.511719 241.636719 C 197.738281 240.617188 197.851562 239.546875 197.851562 238.460938 C 197.851562 238.234375 198.039062 238.042969 198.265625 238.042969 C 198.496094 238.042969 198.679688 238.222656 198.679688 238.449219 C 198.679688 239.605469 198.558594 240.734375 198.320312 241.816406 C 198.277344 242.011719 198.101562 242.140625 197.914062 242.140625 Z M 151.425781 243.667969 C 151.324219 243.667969 151.226562 243.632812 151.144531 243.558594 C 150.363281 242.847656 149.566406 242.105469 148.722656 241.296875 C 148.554688 241.136719 148.550781 240.875 148.707031 240.710938 C 148.863281 240.546875 149.125 240.539062 149.289062 240.699219 C 150.132812 241.503906 150.921875 242.238281 151.703125 242.949219 C 151.871094 243.101562 151.882812 243.363281 151.730469 243.53125 C 151.648438 243.621094 151.535156 243.667969 151.425781 243.667969 Z M 229.777344 244.394531 C 229.648438 244.394531 229.519531 244.332031 229.4375 244.21875 C 229.308594 244.03125 229.355469 243.773438 229.542969 243.640625 C 230.398438 243.050781 231.285156 242.394531 232.179688 241.695312 C 232.359375 241.554688 232.617188 241.585938 232.761719 241.765625 C 232.902344 241.945312 232.867188 242.203125 232.6875 242.34375 C 231.78125 243.054688 230.878906 243.722656 230.011719 244.320312 C 229.941406 244.371094 229.859375 244.394531 229.777344 244.394531 Z M 188.914062 245.464844 C 188.84375 245.464844 188.773438 245.445312 188.707031 245.410156 C 187.691406 244.835938 186.746094 244.210938 185.90625 243.558594 C 185.722656 243.417969 185.691406 243.15625 185.832031 242.976562 C 185.972656 242.796875 186.230469 242.765625 186.410156 242.902344 C 187.222656 243.535156 188.132812 244.132812 189.117188 244.691406 C 189.316406 244.804688 189.386719 245.054688 189.273438 245.253906 C 189.195312 245.390625 189.054688 245.464844 188.914062 245.464844 Z M 224.066406 247.703125 C 223.914062 247.703125 223.761719 247.613281 223.691406 247.460938 C 223.597656 247.253906 223.6875 247.011719 223.894531 246.914062 C 224.847656 246.472656 225.820312 245.964844 226.785156 245.402344 C 226.984375 245.289062 227.234375 245.355469 227.351562 245.550781 C 227.464844 245.746094 227.398438 246 227.203125 246.117188 C 226.214844 246.691406 225.21875 247.214844 224.238281 247.664062 C 224.183594 247.691406 224.125 247.703125 224.066406 247.703125 Z M 156.472656 247.933594 C 156.382812 247.933594 156.296875 247.90625 156.21875 247.847656 C 155.386719 247.199219 154.515625 246.496094 153.640625 245.75 C 153.464844 245.605469 153.445312 245.34375 153.59375 245.167969 C 153.738281 244.996094 154 244.972656 154.175781 245.121094 C 155.042969 245.855469 155.898438 246.554688 156.726562 247.191406 C 156.90625 247.332031 156.941406 247.59375 156.800781 247.773438 C 156.71875 247.878906 156.597656 247.933594 156.472656 247.933594 Z M 194.972656 248.085938 C 194.929688 248.085938 194.886719 248.078125 194.84375 248.066406 C 193.753906 247.707031 192.703125 247.3125 191.714844 246.890625 C 191.503906 246.800781 191.40625 246.558594 191.496094 246.347656 C 191.585938 246.140625 191.832031 246.042969 192.039062 246.132812 C 192.941406 246.515625 193.898438 246.878906 194.890625 247.210938 C 195.507812 246.402344 196.035156 245.546875 196.460938 244.660156 C 196.558594 244.457031 196.808594 244.371094 197.011719 244.46875 C 197.21875 244.566406 197.304688 244.8125 197.207031 245.019531 C 196.722656 246.019531 196.121094 246.984375 195.410156 247.890625 C 195.34375 247.972656 195.253906 248.023438 195.160156 248.042969 C 195.101562 248.070312 195.035156 248.085938 194.972656 248.085938 Z M 201.386719 249.679688 C 201.363281 249.679688 201.339844 249.675781 201.3125 249.671875 C 200.214844 249.480469 199.117188 249.246094 198.050781 248.984375 C 197.832031 248.929688 197.695312 248.707031 197.75 248.484375 C 197.804688 248.261719 198.03125 248.125 198.25 248.183594 C 199.296875 248.441406 200.378906 248.667969 201.457031 248.859375 C 201.683594 248.898438 201.832031 249.113281 201.792969 249.335938 C 201.757812 249.539062 201.582031 249.679688 201.386719 249.679688 Z M 217.8125 249.789062 C 217.625 249.789062 217.453125 249.65625 217.410156 249.460938 C 217.363281 249.238281 217.507812 249.019531 217.726562 248.972656 C 218.789062 248.746094 219.847656 248.457031 220.871094 248.117188 C 221.085938 248.042969 221.320312 248.160156 221.390625 248.378906 C 221.464844 248.59375 221.347656 248.828125 221.128906 248.902344 C 220.078125 249.25 218.992188 249.546875 217.902344 249.78125 C 217.871094 249.785156 217.84375 249.789062 217.8125 249.789062 Z M 207.953125 250.417969 C 207.945312 250.417969 207.9375 250.417969 207.929688 250.417969 C 206.878906 250.359375 205.761719 250.265625 204.613281 250.136719 C 204.386719 250.113281 204.222656 249.910156 204.25 249.683594 C 204.273438 249.453125 204.484375 249.292969 204.703125 249.316406 C 205.839844 249.441406 206.9375 249.535156 207.976562 249.59375 C 208.203125 249.605469 208.378906 249.800781 208.363281 250.027344 C 208.351562 250.25 208.167969 250.417969 207.953125 250.417969 Z M 211.257812 250.492188 C 211.03125 250.492188 210.847656 250.308594 210.84375 250.085938 C 210.839844 249.855469 211.019531 249.667969 211.25 249.664062 C 212.371094 249.648438 213.46875 249.585938 214.507812 249.476562 C 214.738281 249.453125 214.941406 249.617188 214.964844 249.84375 C 214.988281 250.070312 214.824219 250.273438 214.597656 250.300781 C 213.527344 250.410156 212.40625 250.476562 211.261719 250.492188 C 211.257812 250.492188 211.257812 250.492188 211.257812 250.492188 Z M 161.925781 251.660156 C 161.855469 251.660156 161.78125 251.640625 161.71875 251.601562 C 160.800781 251.0625 159.855469 250.460938 158.910156 249.808594 C 158.71875 249.683594 158.671875 249.425781 158.800781 249.238281 C 158.929688 249.046875 159.1875 249 159.375 249.128906 C 160.304688 249.769531 161.234375 250.363281 162.136719 250.890625 C 162.332031 251.007812 162.398438 251.261719 162.28125 251.457031 C 162.207031 251.585938 162.066406 251.660156 161.925781 251.660156 Z M 190.144531 252.386719 C 190.003906 252.386719 189.871094 252.316406 189.792969 252.191406 C 189.671875 251.996094 189.730469 251.742188 189.925781 251.621094 C 190.867188 251.042969 191.742188 250.398438 192.535156 249.710938 C 192.707031 249.558594 192.96875 249.578125 193.117188 249.75 C 193.265625 249.921875 193.25 250.183594 193.078125 250.332031 C 192.25 251.050781 191.335938 251.722656 190.359375 252.324219 C 190.292969 252.367188 190.21875 252.386719 190.144531 252.386719 Z M 167.886719 254.492188 C 167.839844 254.492188 167.792969 254.484375 167.746094 254.464844 C 166.726562 254.101562 165.6875 253.664062 164.664062 253.175781 C 164.457031 253.078125 164.371094 252.828125 164.46875 252.625 C 164.566406 252.417969 164.8125 252.332031 165.019531 252.429688 C 166.019531 252.910156 167.03125 253.332031 168.023438 253.6875 C 168.238281 253.765625 168.351562 254.003906 168.273438 254.21875 C 168.214844 254.386719 168.054688 254.492188 167.886719 254.492188 Z M 184.109375 255.039062 C 183.929688 255.039062 183.765625 254.921875 183.710938 254.742188 C 183.648438 254.523438 183.773438 254.292969 183.992188 254.230469 C 185.042969 253.925781 186.070312 253.554688 187.050781 253.125 C 187.257812 253.03125 187.503906 253.128906 187.59375 253.335938 C 187.683594 253.546875 187.589844 253.789062 187.378906 253.882812 C 186.371094 254.324219 185.308594 254.707031 184.222656 255.023438 C 184.183594 255.035156 184.148438 255.039062 184.109375 255.039062 Z M 174.300781 255.96875 C 174.289062 255.96875 174.273438 255.96875 174.257812 255.964844 C 173.164062 255.855469 172.050781 255.667969 170.957031 255.417969 C 170.734375 255.363281 170.59375 255.140625 170.648438 254.921875 C 170.699219 254.699219 170.917969 254.558594 171.140625 254.613281 C 172.203125 254.859375 173.28125 255.039062 174.34375 255.144531 C 174.570312 255.167969 174.734375 255.371094 174.710938 255.597656 C 174.691406 255.808594 174.511719 255.96875 174.300781 255.96875 Z M 177.601562 256.082031 C 177.378906 256.082031 177.191406 255.90625 177.1875 255.683594 C 177.179688 255.453125 177.359375 255.265625 177.585938 255.257812 C 178.65625 255.222656 179.742188 255.117188 180.820312 254.945312 C 181.042969 254.90625 181.257812 255.0625 181.292969 255.285156 C 181.332031 255.511719 181.179688 255.722656 180.953125 255.761719 C 179.839844 255.9375 178.714844 256.046875 177.613281 256.082031 C 177.609375 256.082031 177.605469 256.082031 177.601562 256.082031 " fill-opacity="1" fill-rule="nonzero"/><path fill="#000000" d="M 235.324219 85.027344 C 235.152344 85.027344 234.992188 84.921875 234.933594 84.75 C 233.699219 81.277344 232.199219 77.855469 230.46875 74.574219 C 224.027344 62.355469 214.34375 52.046875 202.464844 44.757812 C 202.269531 44.640625 202.210938 44.382812 202.328125 44.191406 C 202.449219 43.996094 202.703125 43.933594 202.894531 44.054688 C 214.902344 51.417969 224.6875 61.839844 231.199219 74.1875 C 232.945312 77.503906 234.464844 80.964844 235.714844 84.476562 C 235.789062 84.691406 235.675781 84.925781 235.460938 85.003906 C 235.414062 85.019531 235.367188 85.027344 235.324219 85.027344 " fill-opacity="1" fill-rule="nonzero"/><path fill="#000000" d="M 242.050781 88.011719 C 241.878906 88.011719 241.71875 87.90625 241.660156 87.734375 C 240.125 83.410156 238.253906 79.148438 236.105469 75.066406 C 228.082031 59.855469 216.03125 47.023438 201.242188 37.949219 C 201.050781 37.828125 200.988281 37.578125 201.105469 37.382812 C 201.226562 37.1875 201.480469 37.125 201.675781 37.246094 C 216.585938 46.394531 228.746094 59.339844 236.835938 74.679688 C 239.007812 78.796875 240.890625 83.097656 242.4375 87.460938 C 242.515625 87.675781 242.402344 87.910156 242.1875 87.984375 C 242.144531 88.003906 242.097656 88.011719 242.050781 88.011719 " fill-opacity="1" fill-rule="nonzero"/><path fill="#000000" d="M 55.792969 75.183594 C 55.691406 75.183594 55.589844 75.144531 55.507812 75.070312 C 55.34375 74.910156 55.339844 74.648438 55.496094 74.484375 L 56.507812 73.425781 C 56.667969 73.261719 56.929688 73.253906 57.09375 73.414062 C 57.257812 73.570312 57.265625 73.832031 57.105469 74 L 56.09375 75.054688 C 56.011719 75.140625 55.902344 75.183594 55.792969 75.183594 " fill-opacity="1" fill-rule="nonzero"/><path fill="#000000" d="M 52.246094 78.886719 C 52.144531 78.886719 52.042969 78.847656 51.960938 78.769531 C 51.796875 78.613281 51.792969 78.351562 51.949219 78.1875 L 52.960938 77.128906 C 53.121094 76.964844 53.382812 76.957031 53.546875 77.117188 C 53.710938 77.273438 53.71875 77.535156 53.558594 77.699219 L 52.546875 78.757812 C 52.464844 78.84375 52.355469 78.886719 52.246094 78.886719 " fill-opacity="1" fill-rule="nonzero"/><path fill="#000000" d="M 53.242188 75.238281 C 53.136719 75.238281 53.03125 75.199219 52.953125 75.121094 L 51.921875 74.109375 C 51.761719 73.949219 51.757812 73.6875 51.917969 73.523438 C 52.078125 73.359375 52.339844 73.359375 52.503906 73.519531 L 53.53125 74.53125 C 53.695312 74.691406 53.695312 74.953125 53.535156 75.117188 C 53.457031 75.199219 53.347656 75.238281 53.242188 75.238281 " fill-opacity="1" fill-rule="nonzero"/><path fill="#000000" d="M 56.84375 78.78125 C 56.738281 78.78125 56.632812 78.742188 56.550781 78.664062 L 55.523438 77.652344 C 55.359375 77.492188 55.359375 77.230469 55.519531 77.066406 C 55.679688 76.90625 55.941406 76.902344 56.101562 77.0625 L 57.132812 78.074219 C 57.292969 78.238281 57.296875 78.5 57.136719 78.660156 C 57.054688 78.742188 56.949219 78.78125 56.84375 78.78125 " fill-opacity="1" fill-rule="nonzero"/><path fill="#000000" d="M 178.582031 203.964844 C 178.480469 203.964844 178.378906 203.925781 178.296875 203.847656 C 178.132812 203.691406 178.128906 203.429688 178.285156 203.265625 L 179.300781 202.207031 C 179.457031 202.042969 179.71875 202.035156 179.882812 202.195312 C 180.046875 202.351562 180.054688 202.613281 179.894531 202.777344 L 178.882812 203.835938 C 178.800781 203.917969 178.691406 203.964844 178.582031 203.964844 " fill-opacity="1" fill-rule="nonzero"/><path fill="#000000" d="M 175.039062 207.664062 C 174.933594 207.664062 174.832031 207.628906 174.75 207.550781 C 174.585938 207.390625 174.582031 207.132812 174.738281 206.964844 L 175.753906 205.910156 C 175.910156 205.746094 176.171875 205.738281 176.335938 205.898438 C 176.5 206.054688 176.507812 206.316406 176.347656 206.480469 L 175.335938 207.539062 C 175.253906 207.621094 175.144531 207.664062 175.039062 207.664062 " fill-opacity="1" fill-rule="nonzero"/><path fill="#000000" d="M 176.03125 204.019531 C 175.925781 204.019531 175.824219 203.980469 175.742188 203.902344 L 174.714844 202.886719 C 174.550781 202.726562 174.546875 202.464844 174.707031 202.304688 C 174.871094 202.140625 175.128906 202.140625 175.292969 202.300781 L 176.320312 203.3125 C 176.484375 203.472656 176.484375 203.734375 176.328125 203.894531 C 176.246094 203.976562 176.140625 204.019531 176.03125 204.019531 " fill-opacity="1" fill-rule="nonzero"/><path fill="#000000" d="M 179.632812 207.5625 C 179.527344 207.5625 179.421875 207.523438 179.34375 207.445312 L 178.3125 206.433594 C 178.152344 206.273438 178.148438 206.011719 178.308594 205.847656 C 178.46875 205.683594 178.730469 205.683594 178.894531 205.84375 L 179.921875 206.855469 C 180.082031 207.015625 180.085938 207.277344 179.925781 207.441406 C 179.84375 207.523438 179.738281 207.5625 179.632812 207.5625 " fill-opacity="1" fill-rule="nonzero"/><path fill="#000000" d="M 26.507812 167.796875 C 26.402344 167.796875 26.300781 167.761719 26.21875 167.683594 C 26.054688 167.527344 26.050781 167.265625 26.207031 167.101562 L 27.222656 166.042969 C 27.378906 165.878906 27.640625 165.871094 27.804688 166.027344 C 27.96875 166.1875 27.976562 166.449219 27.816406 166.613281 L 26.804688 167.671875 C 26.722656 167.757812 26.613281 167.796875 26.507812 167.796875 " fill-opacity="1" fill-rule="nonzero"/><path fill="#000000" d="M 22.960938 171.5 C 22.855469 171.5 22.753906 171.464844 22.671875 171.386719 C 22.507812 171.230469 22.503906 170.96875 22.660156 170.800781 L 23.671875 169.742188 C 23.832031 169.578125 24.09375 169.574219 24.257812 169.730469 C 24.421875 169.890625 24.429688 170.152344 24.269531 170.316406 L 23.257812 171.375 C 23.175781 171.457031 23.066406 171.5 22.960938 171.5 " fill-opacity="1" fill-rule="nonzero"/><path fill="#000000" d="M 23.953125 167.855469 C 23.847656 167.855469 23.742188 167.816406 23.664062 167.738281 L 22.636719 166.722656 C 22.472656 166.5625 22.46875 166.300781 22.628906 166.140625 C 22.789062 165.976562 23.050781 165.976562 23.214844 166.136719 L 24.242188 167.148438 C 24.40625 167.308594 24.40625 167.570312 24.246094 167.734375 C 24.167969 167.816406 24.058594 167.855469 23.953125 167.855469 " fill-opacity="1" fill-rule="nonzero"/><path fill="#000000" d="M 27.554688 171.398438 C 27.449219 171.398438 27.34375 171.359375 27.265625 171.28125 L 26.234375 170.269531 C 26.074219 170.109375 26.070312 169.847656 26.230469 169.683594 C 26.390625 169.519531 26.652344 169.519531 26.816406 169.679688 L 27.84375 170.691406 C 28.007812 170.851562 28.007812 171.113281 27.847656 171.277344 C 27.765625 171.355469 27.660156 171.398438 27.554688 171.398438 " fill-opacity="1" fill-rule="nonzero"/></svg>