<svg xmlns="http://www.w3.org/2000/svg" xmlns:xlink="http://www.w3.org/1999/xlink" width="355" zoomAndPan="magnify" viewBox="0 0 266.25 374.249991" height="499" preserveAspectRatio="xMidYMid meet" version="1.0"><defs><clipPath id="97b7dd5607"><path d="M 69 61.226562 L 114 61.226562 L 114 99 L 69 99 Z M 69 61.226562 " clip-rule="nonzero"/></clipPath><clipPath id="9507838f2f"><path d="M 69 61.226562 L 114 61.226562 L 114 99 L 69 99 Z M 69 61.226562 " clip-rule="nonzero"/></clipPath><clipPath id="e5c6b0c9b2"><path d="M 215 226 L 259.335938 226 L 259.335938 265 L 215 265 Z M 215 226 " clip-rule="nonzero"/></clipPath><clipPath id="b04f9e49d6"><path d="M 60 300 L 90 300 L 90 312.519531 L 60 312.519531 Z M 60 300 " clip-rule="nonzero"/></clipPath><clipPath id="ca0570eb33"><path d="M 11 296 L 41 296 L 41 312.519531 L 11 312.519531 Z M 11 296 " clip-rule="nonzero"/></clipPath><clipPath id="fadd0f396a"><path d="M 114 244 L 220 244 L 220 312.519531 L 114 312.519531 Z M 114 244 " clip-rule="nonzero"/></clipPath><clipPath id="fcf2fcaa96"><path d="M 114 243 L 220 243 L 220 312.519531 L 114 312.519531 Z M 114 243 " clip-rule="nonzero"/></clipPath><clipPath id="06ab4d629a"><path d="M 139 275 L 196 275 L 196 312.519531 L 139 312.519531 Z M 139 275 " clip-rule="nonzero"/></clipPath><clipPath id="349a333583"><path d="M 138 275 L 196 275 L 196 312.519531 L 138 312.519531 Z M 138 275 " clip-rule="nonzero"/></clipPath><clipPath id="2372f4930c"><path d="M 109 311 L 119 311 L 119 312.519531 L 109 312.519531 Z M 109 311 " clip-rule="nonzero"/></clipPath><clipPath id="83a8b1b252"><path d="M 123 311 L 134 311 L 134 312.519531 L 123 312.519531 Z M 123 311 " clip-rule="nonzero"/></clipPath><clipPath id="d41f1dec8a"><path d="M 210 311 L 227 311 L 227 312.519531 L 210 312.519531 Z M 210 311 " clip-rule="nonzero"/></clipPath><clipPath id="9cc6889c45"><path d="M 231 311 L 239 311 L 239 312.519531 L 231 312.519531 Z M 231 311 " clip-rule="nonzero"/></clipPath></defs><path fill="#eef4ff" d="M 247.914062 213.699219 C 245.667969 228.101562 239.019531 242.703125 226.558594 250.246094 C 217.464844 255.785156 206.371094 256.863281 195.714844 256.863281 C 185.0625 256.863281 174.355469 255.882812 163.847656 257.792969 C 156.808594 259.066406 148.597656 260.832031 144.296875 266.515625 C 137.113281 276.019531 127.777344 284.738281 116.09375 286.894531 C 104.414062 289.050781 92.339844 287.335938 80.660156 285.230469 C 69.515625 283.269531 58.128906 280.867188 48.546875 274.84375 C 38.96875 268.816406 31.34375 258.378906 31.734375 247.0625 C 32.222656 231.53125 46.933594 219.039062 47.03125 203.507812 C 47.179688 187.78125 32.859375 176.316406 25.136719 162.644531 C 16.484375 147.210938 16.484375 127.417969 25.039062 112.035156 C 33.589844 96.648438 50.453125 86.3125 68 85.625 C 94.738281 84.597656 117.855469 104 144.003906 109.828125 C 155.390625 112.378906 167.171875 112.28125 178.609375 114.484375 C 200.457031 118.746094 220.449219 131.777344 233.253906 150.054688 C 246.011719 168.328125 251.386719 191.648438 247.914062 213.699219 Z M 247.914062 213.699219 " fill-opacity="1" fill-rule="nonzero"/><path stroke-linecap="round" transform="matrix(0.488767, 0, 0, 0.489944, -37.279428, 15.417613)" fill-opacity="1" fill="#ffffff" fill-rule="nonzero" stroke-linejoin="round" d="M 368.397917 381.302524 C 354.803436 381.302524 343.79838 370.196337 343.79838 356.698293 L 343.79838 157.201511 C 343.79838 143.59982 354.89934 132.59728 368.397917 132.59728 L 567.799622 132.59728 C 581.402095 132.59728 592.399159 143.703467 592.399159 157.201511 L 592.399159 356.602619 C 592.399159 370.196337 581.298199 381.198877 567.799622 381.198877 L 368.397917 381.198877 Z M 368.397917 381.302524 " stroke="#112544" stroke-width="1.5" stroke-opacity="1" stroke-miterlimit="10"/><path stroke-linecap="round" transform="matrix(0.488767, 0, 0, 0.489944, -37.279428, 15.417613)" fill-opacity="1" fill="#e1e5ff" fill-rule="nonzero" stroke-linejoin="round" d="M 580.403089 157.201511 L 580.403089 356.602619 C 580.403089 363.602785 574.696764 369.19973 567.799622 369.19973 L 368.397917 369.19973 C 361.396879 369.19973 355.802442 363.499138 355.802442 356.602619 L 355.802442 157.201511 C 355.802442 150.201344 361.500776 144.596427 368.397917 144.596427 L 567.799622 144.596427 C 574.80066 144.500753 580.403089 150.201344 580.403089 157.201511 Z M 580.403089 157.201511 " stroke="#112544" stroke-width="1.5" stroke-opacity="1" stroke-miterlimit="10"/><path fill="#ccd2ff" d="M 235.988281 170.925781 L 235.988281 185.527344 C 235.988281 186.898438 234.867188 188.023438 233.496094 188.023438 L 147.132812 188.023438 C 145.765625 188.023438 144.640625 186.898438 144.640625 185.527344 L 144.640625 170.925781 C 144.640625 169.554688 145.765625 168.425781 147.132812 168.425781 L 233.496094 168.425781 C 234.867188 168.476562 235.988281 169.554688 235.988281 170.925781 Z M 235.988281 170.925781 " fill-opacity="1" fill-rule="nonzero"/><path stroke-linecap="round" transform="matrix(0.488767, 0, 0, 0.489944, -37.279428, 15.417613)" fill-opacity="1" fill="#ffffff" fill-rule="nonzero" stroke-linejoin="round" d="M 562.900494 313.302042 L 562.900494 343.096602 C 562.900494 345.903047 560.598783 348.199229 557.801565 348.199229 L 381.097288 348.199229 C 378.30007 348.199229 375.998359 345.903047 375.998359 343.096602 L 375.998359 313.302042 C 375.998359 310.50357 378.30007 308.199415 381.097288 308.199415 L 557.801565 308.199415 C 560.598783 308.199415 562.900494 310.50357 562.900494 313.302042 Z M 562.900494 313.302042 " stroke="#112544" stroke-width="1.5" stroke-opacity="1" stroke-miterlimit="10"/><path fill="#ccd2ff" d="M 235.988281 142.214844 L 235.988281 156.816406 C 235.988281 158.1875 234.867188 159.3125 233.496094 159.3125 L 147.132812 159.3125 C 145.765625 159.3125 144.640625 158.1875 144.640625 156.816406 L 144.640625 142.214844 C 144.640625 140.84375 145.765625 139.714844 147.132812 139.714844 L 233.496094 139.714844 C 234.867188 139.714844 235.988281 140.792969 235.988281 142.214844 Z M 235.988281 142.214844 " fill-opacity="1" fill-rule="nonzero"/><path stroke-linecap="round" transform="matrix(0.488767, 0, 0, 0.489944, -37.279428, 15.417613)" fill-opacity="1" fill="#ffffff" fill-rule="nonzero" stroke-linejoin="round" d="M 562.900494 254.59791 L 562.900494 284.400442 C 562.900494 287.198914 560.598783 289.50307 557.801565 289.50307 L 381.097288 289.50307 C 378.30007 289.50307 375.998359 287.198914 375.998359 284.400442 L 375.998359 254.59791 C 375.998359 251.799438 378.30007 249.503255 381.097288 249.503255 L 557.801565 249.503255 C 560.598783 249.503255 562.900494 251.799438 562.900494 254.59791 Z M 562.900494 254.59791 " stroke="#112544" stroke-width="1.5" stroke-opacity="1" stroke-miterlimit="10"/><path fill="#ccd2ff" d="M 207.59375 113.554688 C 207.59375 123.597656 199.480469 131.777344 189.410156 131.777344 C 179.390625 131.777344 171.226562 123.644531 171.226562 113.554688 C 171.226562 103.460938 179.34375 95.328125 189.410156 95.328125 C 199.429688 95.328125 207.59375 103.507812 207.59375 113.554688 Z M 207.59375 113.554688 " fill-opacity="1" fill-rule="nonzero"/><path stroke-linecap="round" transform="matrix(0.488767, 0, 0, 0.489944, -37.279428, 15.417613)" fill-opacity="1" fill="#ffffff" fill-rule="nonzero" stroke-linejoin="round" d="M 505.301773 196.196746 C 505.301773 216.702929 488.70228 233.398088 468.09877 233.398088 C 447.503251 233.398088 430.903758 216.798603 430.903758 196.196746 C 430.903758 175.602861 447.503251 159.003376 468.09877 159.003376 C 488.70228 159.003376 505.301773 175.602861 505.301773 196.196746 Z M 505.301773 196.196746 " stroke="#112544" stroke-width="1.5" stroke-opacity="1" stroke-miterlimit="10"/><path fill="#efa130" d="M 195.667969 104.683594 C 195.667969 106.988281 193.808594 108.851562 191.511719 108.851562 C 190.191406 108.851562 189.019531 108.214844 188.238281 107.28125 C 187.652344 106.597656 187.308594 105.664062 187.308594 104.683594 C 187.308594 102.382812 189.167969 100.519531 191.464844 100.519531 C 191.902344 100.519531 192.34375 100.570312 192.734375 100.71875 C 194.445312 101.253906 195.667969 102.824219 195.667969 104.683594 Z M 195.667969 104.683594 " fill-opacity="1" fill-rule="nonzero"/><path fill="#ffc25e" d="M 193.664062 103.3125 C 193.664062 105.617188 191.804688 107.476562 189.507812 107.476562 C 189.070312 107.476562 188.628906 107.429688 188.238281 107.28125 C 187.652344 106.597656 187.308594 105.664062 187.308594 104.683594 C 187.308594 102.382812 189.167969 100.519531 191.464844 100.519531 C 191.902344 100.519531 192.34375 100.570312 192.734375 100.71875 C 193.320312 101.453125 193.664062 102.332031 193.664062 103.3125 Z M 193.664062 103.3125 " fill-opacity="1" fill-rule="nonzero"/><path stroke-linecap="round" transform="matrix(0.488767, 0, 0, 0.489944, -37.279428, 15.417613)" fill="none" stroke-linejoin="round" d="M 476.602313 182.196412 C 476.602313 186.900397 472.798096 190.703448 468.09877 190.703448 C 463.399443 190.703448 459.603218 186.900397 459.603218 182.196412 C 459.603218 177.5004 463.399443 173.697348 468.09877 173.697348 C 472.798096 173.697348 476.602313 177.5004 476.602313 182.196412 Z M 476.602313 182.196412 " stroke="#112544" stroke-width="1.5" stroke-opacity="1" stroke-miterlimit="10"/><path fill="#efa130" d="M 200.800781 121.050781 L 182.175781 121.050781 C 181.542969 121.050781 181.050781 120.511719 181.101562 119.875 C 181.101562 119.675781 181.152344 119.480469 181.199219 119.335938 C 182.03125 114.433594 186.332031 110.664062 191.464844 110.664062 C 192.734375 110.664062 193.957031 110.90625 195.082031 111.300781 C 198.695312 112.621094 201.386719 115.90625 201.824219 119.875 C 201.921875 120.460938 201.433594 121.050781 200.800781 121.050781 Z M 200.800781 121.050781 " fill-opacity="1" fill-rule="nonzero"/><path fill="#ffc25e" d="M 197.769531 119.285156 L 181.199219 119.285156 C 182.03125 114.386719 186.332031 110.613281 191.464844 110.613281 C 192.734375 110.613281 193.957031 110.859375 195.082031 111.25 C 197.085938 112.917969 198.453125 115.316406 198.796875 118.0625 C 198.894531 118.746094 198.402344 119.285156 197.769531 119.285156 Z M 197.769531 119.285156 " fill-opacity="1" fill-rule="nonzero"/><path stroke-linecap="round" transform="matrix(0.488767, 0, 0, 0.489944, -37.279428, 15.417613)" fill="none" stroke-linejoin="round" d="M 487.10387 215.602675 C 488.398582 215.602675 489.397589 214.502421 489.301684 213.202846 C 487.99898 202.598948 478.999929 194.402853 468.09877 194.402853 C 457.19761 194.402853 448.198559 202.598948 446.903847 213.202846 C 446.696053 214.502421 447.798957 215.602675 449.101661 215.602675 Z M 487.10387 215.602675 " stroke="#112544" stroke-width="1.5" stroke-opacity="1" stroke-miterlimit="10"/><path fill="#757bff" d="M 161.257812 147.457031 C 161.257812 149.808594 159.351562 151.671875 157.054688 151.671875 C 155.734375 151.671875 154.511719 151.035156 153.730469 150.054688 C 153.144531 149.320312 152.800781 148.386719 152.800781 147.410156 C 152.800781 145.058594 154.707031 143.144531 157.054688 143.144531 C 157.496094 143.144531 157.933594 143.195312 158.324219 143.34375 C 160.035156 143.980469 161.257812 145.59375 161.257812 147.457031 Z M 161.257812 147.457031 " fill-opacity="1" fill-rule="nonzero"/><path fill="#8d95ff" d="M 159.253906 146.085938 C 159.253906 148.4375 157.347656 150.347656 155.050781 150.347656 C 154.609375 150.347656 154.171875 150.300781 153.78125 150.152344 C 153.191406 149.417969 152.851562 148.488281 152.851562 147.507812 C 152.851562 145.15625 154.757812 143.242188 157.101562 143.242188 C 157.542969 143.242188 157.984375 143.292969 158.375 143.441406 C 158.910156 144.125 159.253906 145.058594 159.253906 146.085938 Z M 159.253906 146.085938 " fill-opacity="1" fill-rule="nonzero"/><path stroke-linecap="round" transform="matrix(0.488767, 0, 0, 0.489944, -37.279428, 15.417613)" fill="none" stroke-linejoin="round" d="M 406.200324 269.499176 C 406.200324 274.298835 402.300203 278.197561 397.600876 278.197561 C 392.797653 278.197561 389.001428 274.298835 389.001428 269.499176 C 389.001428 264.699517 392.901549 260.896465 397.600876 260.896465 C 402.300203 260.896465 406.200324 264.699517 406.200324 269.499176 Z M 406.200324 269.499176 " stroke="#112544" stroke-width="1.5" stroke-opacity="1" stroke-miterlimit="10"/><path fill="#757bff" d="M 175.335938 147.457031 C 175.335938 149.808594 173.429688 151.671875 171.128906 151.671875 C 169.8125 151.671875 168.589844 151.035156 167.808594 150.054688 C 167.21875 149.320312 166.878906 148.386719 166.878906 147.410156 C 166.878906 145.058594 168.785156 143.144531 171.128906 143.144531 C 171.570312 143.144531 172.011719 143.195312 172.402344 143.34375 C 174.113281 143.980469 175.335938 145.59375 175.335938 147.457031 Z M 175.335938 147.457031 " fill-opacity="1" fill-rule="nonzero"/><path fill="#8d95ff" d="M 173.332031 146.085938 C 173.332031 148.4375 171.425781 150.347656 169.125 150.347656 C 168.6875 150.347656 168.246094 150.300781 167.855469 150.152344 C 167.269531 149.417969 166.925781 148.488281 166.925781 147.507812 C 166.925781 145.15625 168.832031 143.242188 171.179688 143.242188 C 171.621094 143.242188 172.058594 143.292969 172.449219 143.441406 C 172.988281 144.125 173.332031 145.058594 173.332031 146.085938 Z M 173.332031 146.085938 " fill-opacity="1" fill-rule="nonzero"/><path stroke-linecap="round" transform="matrix(0.488767, 0, 0, 0.489944, -37.279428, 15.417613)" fill="none" stroke-linejoin="round" d="M 435.003681 269.499176 C 435.003681 274.298835 431.103559 278.197561 426.396241 278.197561 C 421.601009 278.197561 417.796792 274.298835 417.796792 269.499176 C 417.796792 264.699517 421.696914 260.896465 426.396241 260.896465 C 431.199464 260.896465 435.003681 264.699517 435.003681 269.499176 Z M 435.003681 269.499176 " stroke="#112544" stroke-width="1.5" stroke-opacity="1" stroke-miterlimit="10"/><path fill="#757bff" d="M 189.460938 147.457031 C 189.460938 149.808594 187.554688 151.671875 185.257812 151.671875 C 183.9375 151.671875 182.714844 151.035156 181.933594 150.054688 C 181.347656 149.320312 181.003906 148.386719 181.003906 147.410156 C 181.003906 145.058594 182.910156 143.144531 185.257812 143.144531 C 185.695312 143.144531 186.136719 143.195312 186.527344 143.34375 C 188.238281 143.980469 189.460938 145.59375 189.460938 147.457031 Z M 189.460938 147.457031 " fill-opacity="1" fill-rule="nonzero"/><path fill="#8d95ff" d="M 187.40625 146.085938 C 187.40625 148.4375 185.5 150.347656 183.203125 150.347656 C 182.761719 150.347656 182.324219 150.300781 181.933594 150.152344 C 181.347656 149.417969 181.003906 148.488281 181.003906 147.507812 C 181.003906 145.15625 182.910156 143.242188 185.257812 143.242188 C 185.695312 143.242188 186.136719 143.292969 186.527344 143.441406 C 187.066406 144.125 187.40625 145.058594 187.40625 146.085938 Z M 187.40625 146.085938 " fill-opacity="1" fill-rule="nonzero"/><path stroke-linecap="round" transform="matrix(0.488767, 0, 0, 0.489944, -37.279428, 15.417613)" fill="none" stroke-linejoin="round" d="M 463.902942 269.499176 C 463.902942 274.298835 460.002821 278.197561 455.303494 278.197561 C 450.50027 278.197561 446.696053 274.298835 446.696053 269.499176 C 446.696053 264.699517 450.596175 260.896465 455.303494 260.896465 C 460.002821 260.896465 463.902942 264.699517 463.902942 269.499176 Z M 463.902942 269.499176 " stroke="#112544" stroke-width="1.5" stroke-opacity="1" stroke-miterlimit="10"/><path fill="#757bff" d="M 203.535156 147.457031 C 203.535156 149.808594 201.628906 151.671875 199.332031 151.671875 C 198.011719 151.671875 196.789062 151.035156 196.007812 150.054688 C 195.421875 149.320312 195.082031 148.386719 195.082031 147.410156 C 195.082031 145.058594 196.988281 143.144531 199.332031 143.144531 C 199.773438 143.144531 200.210938 143.195312 200.601562 143.34375 C 202.3125 143.980469 203.535156 145.59375 203.535156 147.457031 Z M 203.535156 147.457031 " fill-opacity="1" fill-rule="nonzero"/><path fill="#8d95ff" d="M 201.53125 146.085938 C 201.53125 148.4375 199.625 150.347656 197.328125 150.347656 C 196.890625 150.347656 196.449219 150.300781 196.058594 150.152344 C 195.472656 149.417969 195.128906 148.488281 195.128906 147.507812 C 195.128906 145.15625 197.035156 143.242188 199.382812 143.242188 C 199.820312 143.242188 200.261719 143.292969 200.652344 143.441406 C 201.191406 144.125 201.53125 145.058594 201.53125 146.085938 Z M 201.53125 146.085938 " fill-opacity="1" fill-rule="nonzero"/><path stroke-linecap="round" transform="matrix(0.488767, 0, 0, 0.489944, -37.279428, 15.417613)" fill="none" stroke-linejoin="round" d="M 492.698307 269.499176 C 492.698307 274.298835 488.798185 278.197561 484.098858 278.197561 C 479.303627 278.197561 475.49941 274.298835 475.49941 269.499176 C 475.49941 264.699517 479.399532 260.896465 484.098858 260.896465 C 488.902082 260.896465 492.698307 264.699517 492.698307 269.499176 Z M 492.698307 269.499176 " stroke="#112544" stroke-width="1.5" stroke-opacity="1" stroke-miterlimit="10"/><path fill="#757bff" d="M 217.660156 147.457031 C 217.660156 149.808594 215.753906 151.671875 213.457031 151.671875 C 212.136719 151.671875 210.917969 151.035156 210.132812 150.054688 C 209.546875 149.320312 209.207031 148.386719 209.207031 147.410156 C 209.207031 145.058594 211.113281 143.144531 213.457031 143.144531 C 213.898438 143.144531 214.335938 143.195312 214.730469 143.34375 C 216.390625 143.980469 217.660156 145.59375 217.660156 147.457031 Z M 217.660156 147.457031 " fill-opacity="1" fill-rule="nonzero"/><path fill="#8d95ff" d="M 215.609375 146.085938 C 215.609375 148.4375 213.703125 150.347656 211.40625 150.347656 C 210.964844 150.347656 210.523438 150.300781 210.132812 150.152344 C 209.546875 149.417969 209.207031 148.488281 209.207031 147.507812 C 209.207031 145.15625 211.113281 143.242188 213.457031 143.242188 C 213.898438 143.242188 214.335938 143.292969 214.730469 143.441406 C 215.265625 144.125 215.609375 145.058594 215.609375 146.085938 Z M 215.609375 146.085938 " fill-opacity="1" fill-rule="nonzero"/><path stroke-linecap="round" transform="matrix(0.488767, 0, 0, 0.489944, -37.279428, 15.417613)" fill="none" stroke-linejoin="round" d="M 521.597568 269.499176 C 521.597568 274.298835 517.697446 278.197561 512.99812 278.197561 C 508.202888 278.197561 504.398671 274.298835 504.398671 269.499176 C 504.398671 264.699517 508.298793 260.896465 512.99812 260.896465 C 517.697446 260.896465 521.597568 264.699517 521.597568 269.499176 Z M 521.597568 269.499176 " stroke="#112544" stroke-width="1.5" stroke-opacity="1" stroke-miterlimit="10"/><path fill="#757bff" d="M 161.257812 176.21875 C 161.257812 178.570312 159.351562 180.429688 157.054688 180.429688 C 155.734375 180.429688 154.511719 179.792969 153.730469 178.8125 C 153.144531 178.078125 152.800781 177.148438 152.800781 176.167969 C 152.800781 173.816406 154.707031 171.90625 157.054688 171.90625 C 157.496094 171.90625 157.933594 171.953125 158.324219 172.101562 C 160.035156 172.738281 161.257812 174.304688 161.257812 176.21875 Z M 161.257812 176.21875 " fill-opacity="1" fill-rule="nonzero"/><path fill="#8d95ff" d="M 159.253906 174.796875 C 159.253906 177.148438 157.347656 179.058594 155.050781 179.058594 C 154.609375 179.058594 154.171875 179.011719 153.78125 178.863281 C 153.191406 178.128906 152.851562 177.195312 152.851562 176.21875 C 152.851562 173.867188 154.757812 171.953125 157.101562 171.953125 C 157.542969 171.953125 157.984375 172.003906 158.375 172.152344 C 158.910156 172.886719 159.253906 173.816406 159.253906 174.796875 Z M 159.253906 174.796875 " fill-opacity="1" fill-rule="nonzero"/><path stroke-linecap="round" transform="matrix(0.488767, 0, 0, 0.489944, -37.279428, 15.417613)" fill="none" stroke-linejoin="round" d="M 406.200324 328.203309 C 406.200324 333.002967 402.300203 336.901694 397.600876 336.901694 C 392.797653 336.901694 389.001428 333.002967 389.001428 328.203309 C 389.001428 323.40365 392.901549 319.600598 397.600876 319.600598 C 402.300203 319.600598 406.200324 323.40365 406.200324 328.203309 Z M 406.200324 328.203309 " stroke="#112544" stroke-width="1.5" stroke-opacity="1" stroke-miterlimit="10"/><path fill="#757bff" d="M 175.335938 176.21875 C 175.335938 178.570312 173.429688 180.429688 171.128906 180.429688 C 169.8125 180.429688 168.589844 179.792969 167.808594 178.8125 C 167.21875 178.078125 166.878906 177.148438 166.878906 176.167969 C 166.878906 173.816406 168.785156 171.90625 171.128906 171.90625 C 171.570312 171.90625 172.011719 171.953125 172.402344 172.101562 C 174.113281 172.738281 175.335938 174.304688 175.335938 176.21875 Z M 175.335938 176.21875 " fill-opacity="1" fill-rule="nonzero"/><path fill="#8d95ff" d="M 173.332031 174.796875 C 173.332031 177.148438 171.425781 179.058594 169.125 179.058594 C 168.6875 179.058594 168.246094 179.011719 167.855469 178.863281 C 167.269531 178.128906 166.925781 177.195312 166.925781 176.21875 C 166.925781 173.867188 168.832031 171.953125 171.179688 171.953125 C 171.621094 171.953125 172.058594 172.003906 172.449219 172.152344 C 172.988281 172.886719 173.332031 173.816406 173.332031 174.796875 Z M 173.332031 174.796875 " fill-opacity="1" fill-rule="nonzero"/><path stroke-linecap="round" transform="matrix(0.488767, 0, 0, 0.489944, -37.279428, 15.417613)" fill="none" stroke-linejoin="round" d="M 435.003681 328.203309 C 435.003681 333.002967 431.103559 336.901694 426.396241 336.901694 C 421.601009 336.901694 417.796792 333.002967 417.796792 328.203309 C 417.796792 323.40365 421.696914 319.600598 426.396241 319.600598 C 431.199464 319.600598 435.003681 323.40365 435.003681 328.203309 Z M 435.003681 328.203309 " stroke="#112544" stroke-width="1.5" stroke-opacity="1" stroke-miterlimit="10"/><path fill="#757bff" d="M 189.460938 176.21875 C 189.460938 178.570312 187.554688 180.429688 185.257812 180.429688 C 183.9375 180.429688 182.714844 179.792969 181.933594 178.8125 C 181.347656 178.078125 181.003906 177.148438 181.003906 176.167969 C 181.003906 173.816406 182.910156 171.90625 185.257812 171.90625 C 185.695312 171.90625 186.136719 171.953125 186.527344 172.101562 C 188.238281 172.738281 189.460938 174.304688 189.460938 176.21875 Z M 189.460938 176.21875 " fill-opacity="1" fill-rule="nonzero"/><path fill="#8d95ff" d="M 187.40625 174.796875 C 187.40625 177.148438 185.5 179.058594 183.203125 179.058594 C 182.761719 179.058594 182.324219 179.011719 181.933594 178.863281 C 181.347656 178.128906 181.003906 177.195312 181.003906 176.21875 C 181.003906 173.867188 182.910156 171.953125 185.257812 171.953125 C 185.695312 171.953125 186.136719 172.003906 186.527344 172.152344 C 187.066406 172.886719 187.40625 173.816406 187.40625 174.796875 Z M 187.40625 174.796875 " fill-opacity="1" fill-rule="nonzero"/><path stroke-linecap="round" transform="matrix(0.488767, 0, 0, 0.489944, -37.279428, 15.417613)" fill="none" stroke-linejoin="round" d="M 463.902942 328.203309 C 463.902942 333.002967 460.002821 336.901694 455.303494 336.901694 C 450.50027 336.901694 446.696053 333.002967 446.696053 328.203309 C 446.696053 323.40365 450.596175 319.600598 455.303494 319.600598 C 460.002821 319.600598 463.902942 323.40365 463.902942 328.203309 Z M 463.902942 328.203309 " stroke="#112544" stroke-width="1.5" stroke-opacity="1" stroke-miterlimit="10"/><path fill="#757bff" d="M 203.535156 176.21875 C 203.535156 178.570312 201.628906 180.429688 199.332031 180.429688 C 198.011719 180.429688 196.789062 179.792969 196.007812 178.8125 C 195.421875 178.078125 195.082031 177.148438 195.082031 176.167969 C 195.082031 173.816406 196.988281 171.90625 199.332031 171.90625 C 199.773438 171.90625 200.210938 171.953125 200.601562 172.101562 C 202.3125 172.738281 203.535156 174.304688 203.535156 176.21875 Z M 203.535156 176.21875 " fill-opacity="1" fill-rule="nonzero"/><path fill="#8d95ff" d="M 201.53125 174.796875 C 201.53125 177.148438 199.625 179.058594 197.328125 179.058594 C 196.890625 179.058594 196.449219 179.011719 196.058594 178.863281 C 195.472656 178.128906 195.128906 177.195312 195.128906 176.21875 C 195.128906 173.867188 197.035156 171.953125 199.382812 171.953125 C 199.820312 171.953125 200.261719 172.003906 200.652344 172.152344 C 201.191406 172.886719 201.53125 173.816406 201.53125 174.796875 Z M 201.53125 174.796875 " fill-opacity="1" fill-rule="nonzero"/><path stroke-linecap="round" transform="matrix(0.488767, 0, 0, 0.489944, -37.279428, 15.417613)" fill="none" stroke-linejoin="round" d="M 492.698307 328.203309 C 492.698307 333.002967 488.798185 336.901694 484.098858 336.901694 C 479.303627 336.901694 475.49941 333.002967 475.49941 328.203309 C 475.49941 323.40365 479.399532 319.600598 484.098858 319.600598 C 488.902082 319.600598 492.698307 323.40365 492.698307 328.203309 Z M 492.698307 328.203309 " stroke="#112544" stroke-width="1.5" stroke-opacity="1" stroke-miterlimit="10"/><path fill="#757bff" d="M 217.660156 176.21875 C 217.660156 178.570312 215.753906 180.429688 213.457031 180.429688 C 212.136719 180.429688 210.917969 179.792969 210.132812 178.8125 C 209.546875 178.078125 209.207031 177.148438 209.207031 176.167969 C 209.207031 173.816406 211.113281 171.90625 213.457031 171.90625 C 213.898438 171.90625 214.335938 171.953125 214.730469 172.101562 C 216.390625 172.738281 217.660156 174.304688 217.660156 176.21875 Z M 217.660156 176.21875 " fill-opacity="1" fill-rule="nonzero"/><path fill="#8d95ff" d="M 215.609375 174.796875 C 215.609375 177.148438 213.703125 179.058594 211.40625 179.058594 C 210.964844 179.058594 210.523438 179.011719 210.132812 178.863281 C 209.546875 178.128906 209.207031 177.195312 209.207031 176.21875 C 209.207031 173.867188 211.113281 171.953125 213.457031 171.953125 C 213.898438 171.953125 214.335938 172.003906 214.730469 172.152344 C 215.265625 172.886719 215.609375 173.816406 215.609375 174.796875 Z M 215.609375 174.796875 " fill-opacity="1" fill-rule="nonzero"/><path stroke-linecap="round" transform="matrix(0.488767, 0, 0, 0.489944, -37.279428, 15.417613)" fill="none" stroke-linejoin="round" d="M 521.597568 328.203309 C 521.597568 333.002967 517.697446 336.901694 512.99812 336.901694 C 508.202888 336.901694 504.398671 333.002967 504.398671 328.203309 C 504.398671 323.40365 508.298793 319.600598 512.99812 319.600598 C 517.697446 319.600598 521.597568 323.40365 521.597568 328.203309 Z M 521.597568 328.203309 " stroke="#112544" stroke-width="1.5" stroke-opacity="1" stroke-miterlimit="10"/><g clip-path="url(#97b7dd5607)"><path fill="#ffffff" d="M 113.066406 66.421875 L 113.066406 93.808594 C 113.066406 96.453125 110.914062 98.609375 108.273438 98.609375 L 74.453125 98.609375 C 71.8125 98.609375 69.664062 96.453125 69.664062 93.808594 L 69.664062 66.421875 C 69.664062 63.773438 71.8125 61.621094 74.453125 61.621094 L 108.273438 61.621094 C 110.964844 61.621094 113.066406 63.773438 113.066406 66.421875 Z M 113.066406 66.421875 " fill-opacity="1" fill-rule="nonzero"/></g><path fill="#ccd2ff" d="M 113.066406 66.421875 L 113.066406 93.808594 C 113.066406 96.453125 110.914062 98.609375 108.273438 98.609375 L 74.453125 98.609375 C 72.644531 98.609375 71.03125 97.582031 70.25 96.0625 C 70.882812 96.355469 71.570312 96.503906 72.253906 96.503906 L 106.074219 96.503906 C 108.714844 96.503906 110.867188 94.347656 110.867188 91.703125 L 110.867188 64.363281 C 110.867188 63.53125 110.671875 62.796875 110.277344 62.109375 C 111.941406 62.84375 113.066406 64.511719 113.066406 66.421875 Z M 113.066406 66.421875 " fill-opacity="1" fill-rule="nonzero"/><g clip-path="url(#9507838f2f)"><path stroke-linecap="round" transform="matrix(0.488767, 0, 0, 0.489944, -37.279428, 15.417613)" fill="none" stroke-linejoin="round" d="M 307.602375 104.102296 L 307.602375 159.999983 C 307.602375 165.397606 303.198754 169.798622 297.796126 169.798622 L 228.600937 169.798622 C 223.19831 169.798622 218.802681 165.397606 218.802681 159.999983 L 218.802681 104.102296 C 218.802681 98.6967 223.19831 94.303657 228.600937 94.303657 L 297.796126 94.303657 C 303.302651 94.303657 307.602375 98.6967 307.602375 104.102296 Z M 307.602375 104.102296 " stroke="#112544" stroke-width="1.5" stroke-opacity="1" stroke-miterlimit="10"/></g><path fill="#ffffff" d="M 258.914062 232.023438 L 258.914062 259.410156 C 258.914062 262.054688 256.761719 264.210938 254.125 264.210938 L 220.300781 264.210938 C 217.660156 264.210938 215.511719 262.054688 215.511719 259.410156 L 215.511719 232.023438 C 215.511719 229.375 217.660156 227.21875 220.300781 227.21875 L 254.125 227.21875 C 256.761719 227.269531 258.914062 229.375 258.914062 232.023438 Z M 258.914062 232.023438 " fill-opacity="1" fill-rule="nonzero"/><path fill="#ccd2ff" d="M 258.914062 232.023438 L 258.914062 259.410156 C 258.914062 262.054688 256.761719 264.210938 254.125 264.210938 L 220.300781 264.210938 C 218.492188 264.210938 216.878906 263.183594 216.097656 261.664062 C 216.734375 261.957031 217.417969 262.105469 218.101562 262.105469 L 251.925781 262.105469 C 254.5625 262.105469 256.714844 259.949219 256.714844 257.304688 L 256.714844 229.914062 C 256.714844 229.082031 256.519531 228.347656 256.128906 227.660156 C 257.789062 228.445312 258.914062 230.109375 258.914062 232.023438 Z M 258.914062 232.023438 " fill-opacity="1" fill-rule="nonzero"/><g clip-path="url(#e5c6b0c9b2)"><path stroke-linecap="round" transform="matrix(0.488767, 0, 0, 0.489944, -37.279428, 15.417613)" fill="none" stroke-linejoin="round" d="M 606.001633 442.103517 L 606.001633 498.001205 C 606.001633 503.398828 601.598012 507.799844 596.203376 507.799844 L 527.000195 507.799844 C 521.597568 507.799844 517.201939 503.398828 517.201939 498.001205 L 517.201939 442.103517 C 517.201939 436.697922 521.597568 432.296905 527.000195 432.296905 L 596.203376 432.296905 C 601.598012 432.400553 606.001633 436.697922 606.001633 442.103517 Z M 606.001633 442.103517 " stroke="#112544" stroke-width="1.5" stroke-opacity="1" stroke-miterlimit="10"/></g><path stroke-linecap="round" transform="matrix(0.488767, 0, 0, 0.489944, -37.279428, 15.417613)" fill="none" stroke-linejoin="round" d="M 263.302429 169.798622 L 263.302429 227.298854 L 343.702475 227.298854 " stroke="#112544" stroke-width="1.5" stroke-opacity="1" stroke-miterlimit="10"/><path stroke-linecap="round" transform="matrix(0.488767, 0, 0, 0.489944, -37.279428, 15.417613)" fill="none" stroke-linejoin="round" d="M 517.297844 470.502827 L 461.801032 470.502827 L 461.801032 381.996162 " stroke="#112544" stroke-width="1.5" stroke-opacity="1" stroke-miterlimit="10"/><path fill="#e1e5ff" d="M 86.132812 88.859375 C 84.765625 88.027344 83.738281 86.949219 82.957031 85.625 C 82.222656 84.253906 81.832031 82.832031 81.832031 81.265625 C 81.832031 79.355469 82.320312 77.542969 83.300781 75.875 C 84.277344 74.210938 85.597656 72.886719 87.257812 71.859375 C 88.921875 70.878906 90.730469 70.339844 92.636719 70.339844 C 94.394531 70.339844 96.007812 70.730469 97.472656 71.46875 C 98.941406 72.203125 100.160156 73.28125 101.042969 74.601562 C 101.921875 75.925781 102.359375 77.445312 102.359375 79.160156 C 102.359375 80.238281 102.214844 81.265625 101.871094 82.195312 C 101.53125 83.175781 101.042969 83.960938 100.308594 84.546875 C 99.625 85.1875 98.695312 85.480469 97.621094 85.480469 C 96.789062 85.480469 96.105469 85.285156 95.617188 84.941406 C 95.128906 84.546875 94.835938 84.109375 94.738281 83.617188 C 94.199219 84.253906 93.5625 84.746094 92.832031 85.085938 C 92.097656 85.382812 91.316406 85.578125 90.484375 85.578125 C 89.117188 85.578125 88.039062 85.136719 87.308594 84.304688 C 86.523438 83.472656 86.132812 82.394531 86.132812 81.070312 C 86.132812 79.796875 86.425781 78.667969 87.015625 77.738281 C 87.601562 76.808594 88.332031 76.074219 89.261719 75.582031 C 90.191406 75.09375 91.167969 74.847656 92.195312 74.847656 C 93.464844 74.847656 94.539062 75.289062 95.46875 76.171875 L 95.566406 75.730469 C 95.617188 75.484375 95.714844 75.335938 95.910156 75.191406 C 96.105469 75.042969 96.300781 74.945312 96.546875 74.945312 C 96.789062 74.945312 97.035156 75.042969 97.179688 75.191406 C 97.375 75.386719 97.425781 75.582031 97.425781 75.875 L 97.375 76.171875 L 96.546875 81.019531 C 96.445312 81.65625 96.347656 82.195312 96.347656 82.6875 C 96.347656 83.175781 96.445312 83.570312 96.691406 83.863281 C 96.886719 84.15625 97.230469 84.351562 97.667969 84.351562 C 98.746094 84.351562 99.527344 83.910156 100.113281 82.980469 C 100.699219 82.050781 100.992188 80.824219 100.992188 79.257812 C 100.992188 77.6875 100.601562 76.316406 99.769531 75.191406 C 98.988281 74.0625 97.914062 73.183594 96.644531 72.644531 C 95.371094 72.054688 94.003906 71.761719 92.636719 71.761719 C 90.972656 71.761719 89.359375 72.203125 87.941406 73.082031 C 86.476562 73.964844 85.304688 75.140625 84.472656 76.613281 C 83.59375 78.082031 83.152344 79.648438 83.152344 81.363281 C 83.152344 82.636719 83.445312 83.8125 84.082031 84.988281 C 84.667969 86.164062 85.546875 87.097656 86.71875 87.78125 C 87.894531 88.515625 89.214844 88.859375 90.828125 88.859375 C 91.851562 88.859375 92.78125 88.761719 93.515625 88.566406 C 94.296875 88.371094 95.175781 88.078125 96.152344 87.683594 C 96.25 87.636719 96.347656 87.636719 96.445312 87.636719 C 96.644531 87.636719 96.789062 87.683594 96.886719 87.832031 C 96.984375 87.929688 97.082031 88.078125 97.082031 88.273438 C 97.082031 88.371094 97.035156 88.515625 96.984375 88.613281 C 96.9375 88.714844 96.839844 88.8125 96.742188 88.859375 C 94.933594 89.742188 92.976562 90.230469 90.828125 90.230469 C 89.066406 90.085938 87.503906 89.691406 86.132812 88.859375 Z M 94.882812 80.238281 L 95.273438 77.835938 C 94.539062 77.050781 93.5625 76.660156 92.390625 76.660156 C 91.65625 76.660156 90.972656 76.808594 90.335938 77.152344 C 89.703125 77.492188 89.164062 77.933594 88.773438 78.570312 C 88.382812 79.207031 88.1875 79.941406 88.1875 80.824219 C 88.1875 81.804688 88.480469 82.539062 89.019531 83.078125 C 89.554688 83.570312 90.289062 83.8125 91.121094 83.8125 C 93.269531 83.8125 94.492188 82.589844 94.882812 80.238281 Z M 94.882812 80.238281 " fill-opacity="1" fill-rule="nonzero"/><path fill="#8d95ff" d="M 85.449219 88.222656 C 84.082031 87.390625 83.054688 86.3125 82.273438 84.988281 C 81.539062 83.617188 81.148438 82.195312 81.148438 80.628906 C 81.148438 78.71875 81.636719 76.90625 82.613281 75.238281 C 83.59375 73.574219 84.914062 72.25 86.574219 71.222656 C 88.234375 70.242188 90.042969 69.703125 91.949219 69.703125 C 93.710938 69.703125 95.324219 70.09375 96.789062 70.832031 C 98.253906 71.566406 99.476562 72.644531 100.355469 73.964844 C 101.238281 75.289062 101.675781 76.808594 101.675781 78.523438 C 101.675781 79.601562 101.53125 80.628906 101.1875 81.558594 C 100.847656 82.539062 100.355469 83.324219 99.625 83.910156 C 98.941406 84.546875 98.011719 84.84375 96.9375 84.84375 C 96.105469 84.84375 95.421875 84.648438 94.933594 84.304688 C 94.441406 83.910156 94.148438 83.472656 94.050781 82.980469 C 93.515625 83.617188 92.878906 84.109375 92.144531 84.449219 C 91.414062 84.746094 90.628906 84.941406 89.800781 84.941406 C 88.429688 84.941406 87.355469 84.5 86.621094 83.667969 C 85.839844 82.832031 85.449219 81.757812 85.449219 80.433594 C 85.449219 79.160156 85.742188 78.03125 86.328125 77.101562 C 86.917969 76.171875 87.648438 75.4375 88.578125 74.945312 C 89.507812 74.457031 90.484375 74.210938 91.511719 74.210938 C 92.78125 74.210938 93.855469 74.652344 94.785156 75.535156 L 94.882812 75.09375 C 94.933594 74.847656 95.03125 74.699219 95.226562 74.554688 C 95.421875 74.40625 95.617188 74.308594 95.859375 74.308594 C 96.105469 74.308594 96.347656 74.40625 96.496094 74.554688 C 96.691406 74.75 96.742188 74.945312 96.742188 75.238281 L 96.691406 75.535156 L 95.859375 80.382812 C 95.761719 81.019531 95.664062 81.558594 95.664062 82.050781 C 95.664062 82.539062 95.761719 82.933594 96.007812 83.226562 C 96.203125 83.519531 96.546875 83.714844 96.984375 83.714844 C 98.058594 83.714844 98.84375 83.273438 99.429688 82.34375 C 100.015625 81.414062 100.308594 80.1875 100.308594 78.621094 C 100.308594 77.050781 99.917969 75.679688 99.085938 74.554688 C 98.304688 73.425781 97.230469 72.546875 95.957031 72.007812 C 94.6875 71.417969 93.320312 71.125 91.949219 71.125 C 90.289062 71.125 88.675781 71.566406 87.257812 72.445312 C 85.792969 73.328125 84.617188 74.503906 83.789062 75.976562 C 82.910156 77.445312 82.46875 79.011719 82.46875 80.726562 C 82.46875 82 82.761719 83.175781 83.398438 84.351562 C 83.984375 85.527344 84.863281 86.460938 86.035156 87.144531 C 87.210938 87.878906 88.527344 88.222656 90.140625 88.222656 C 91.167969 88.222656 92.097656 88.125 92.832031 87.929688 C 93.613281 87.734375 94.492188 87.4375 95.46875 87.046875 C 95.566406 87 95.664062 87 95.761719 87 C 95.957031 87 96.105469 87.046875 96.203125 87.195312 C 96.300781 87.292969 96.398438 87.4375 96.398438 87.636719 C 96.398438 87.734375 96.347656 87.878906 96.300781 87.976562 C 96.25 88.078125 96.152344 88.175781 96.054688 88.222656 C 94.246094 89.105469 92.292969 89.59375 90.140625 89.59375 C 88.382812 89.449219 86.820312 89.054688 85.449219 88.222656 Z M 94.199219 79.550781 L 94.589844 77.152344 C 93.855469 76.367188 92.878906 75.976562 91.707031 75.976562 C 90.972656 75.976562 90.289062 76.121094 89.652344 76.464844 C 89.019531 76.808594 88.480469 77.25 88.089844 77.886719 C 87.699219 78.523438 87.503906 79.257812 87.503906 80.140625 C 87.503906 81.117188 87.796875 81.855469 88.332031 82.394531 C 88.871094 82.882812 89.605469 83.128906 90.433594 83.128906 C 92.585938 83.128906 93.808594 81.953125 94.199219 79.550781 Z M 94.199219 79.550781 " fill-opacity="1" fill-rule="nonzero"/><path fill="#e1e5ff" d="M 245.03125 243.683594 L 243.320312 243.683594 L 243.320312 241.625 C 243.320312 238.734375 240.976562 236.332031 238.042969 236.332031 C 235.160156 236.332031 232.765625 238.683594 232.765625 241.625 L 232.765625 243.683594 L 231.492188 243.683594 C 230.859375 243.683594 230.371094 244.171875 230.371094 244.808594 L 230.371094 256.175781 C 230.371094 256.8125 230.859375 257.304688 231.492188 257.304688 L 245.03125 257.304688 C 245.667969 257.304688 246.15625 256.8125 246.15625 256.175781 L 246.15625 244.808594 C 246.15625 244.171875 245.667969 243.683594 245.03125 243.683594 Z M 241.511719 243.683594 L 234.574219 243.683594 L 234.574219 241.625 C 234.574219 239.714844 236.136719 238.144531 238.042969 238.144531 C 239.949219 238.144531 241.511719 239.714844 241.511719 241.625 Z M 241.511719 243.683594 " fill-opacity="1" fill-rule="nonzero"/><path fill="#fc6054" d="M 244.007812 242.554688 L 242.296875 242.554688 L 242.296875 240.496094 C 242.296875 237.605469 239.949219 235.207031 237.015625 235.207031 C 234.132812 235.207031 231.738281 237.558594 231.738281 240.496094 L 231.738281 242.554688 L 230.46875 242.554688 C 229.832031 242.554688 229.34375 243.046875 229.34375 243.683594 L 229.34375 255.050781 C 229.34375 255.6875 229.832031 256.175781 230.46875 256.175781 L 244.007812 256.175781 C 244.640625 256.175781 245.128906 255.6875 245.128906 255.050781 L 245.128906 243.683594 C 245.128906 243.09375 244.640625 242.554688 244.007812 242.554688 Z M 240.488281 242.554688 L 233.546875 242.554688 L 233.546875 240.496094 C 233.546875 238.585938 235.109375 237.019531 237.015625 237.019531 C 238.921875 237.019531 240.488281 238.585938 240.488281 240.496094 Z M 240.488281 242.554688 " fill-opacity="1" fill-rule="nonzero"/><path fill="#ffffff" d="M 238.433594 251.960938 L 236.039062 251.960938 C 235.890625 251.960938 235.792969 251.816406 235.84375 251.71875 L 236.480469 249.269531 C 236.136719 249.023438 235.941406 248.628906 235.941406 248.191406 C 235.941406 247.453125 236.527344 246.867188 237.261719 246.867188 C 237.992188 246.867188 238.582031 247.453125 238.582031 248.191406 C 238.582031 248.628906 238.335938 249.023438 238.042969 249.269531 L 238.679688 251.71875 C 238.679688 251.816406 238.582031 251.960938 238.433594 251.960938 Z M 238.433594 251.960938 " fill-opacity="1" fill-rule="nonzero"/><path fill="#fcbba4" d="M 75.285156 300.320312 C 75.285156 300.320312 71.714844 305.808594 62.917969 301.152344 L 62.867188 300.46875 L 62.429688 294.636719 L 74.746094 294.636719 L 74.992188 296.988281 Z M 75.285156 300.320312 " fill-opacity="1" fill-rule="nonzero"/><path fill="#f2a07c" d="M 74.992188 296.988281 C 74.84375 296.9375 74.648438 296.9375 74.5 296.890625 C 73.425781 296.644531 72.351562 296.253906 71.226562 296.203125 C 70.101562 296.15625 68.878906 296.546875 68.34375 297.527344 C 68 298.164062 68 298.949219 67.609375 299.535156 C 67.121094 300.417969 65.996094 300.808594 64.96875 300.859375 C 64.238281 300.859375 63.554688 300.710938 62.867188 300.46875 L 62.429688 294.636719 L 74.746094 294.636719 Z M 74.992188 296.988281 " fill-opacity="1" fill-rule="nonzero"/><path fill="#fcbba4" d="M 28.800781 292.039062 L 28.3125 296.644531 L 28.214844 297.722656 C 28.214844 297.722656 24.207031 301.742188 17.460938 297.183594 C 16.972656 296.839844 16.4375 296.449219 15.949219 296.058594 L 16.828125 289.589844 Z M 28.800781 292.039062 " fill-opacity="1" fill-rule="nonzero"/><path fill="#f2a07c" d="M 28.800781 292.039062 L 28.3125 296.644531 C 27.089844 296.5 25.917969 296.007812 24.746094 295.566406 C 23.132812 295.027344 21.324219 294.585938 19.808594 295.371094 C 18.929688 295.8125 18.246094 296.597656 17.460938 297.136719 C 16.972656 296.792969 16.4375 296.398438 15.949219 296.007812 L 16.828125 289.542969 Z M 28.800781 292.039062 " fill-opacity="1" fill-rule="nonzero"/><path stroke-linecap="round" transform="matrix(0.488767, 0, 0, 0.489944, -37.279428, 15.417613)" fill="none" stroke-linejoin="round" d="M 230.303245 581.500917 C 230.303245 581.500917 222.998509 592.702778 205.000407 583.199135 L 204.0014 569.900413 L 229.200341 569.900413 Z M 230.303245 581.500917 " stroke="#112544" stroke-width="1.5" stroke-opacity="1" stroke-miterlimit="10"/><g clip-path="url(#b04f9e49d6)"><path fill="#112544" d="M 89.996094 311.292969 L 89.996094 311.34375 C 89.996094 311.785156 89.652344 312.128906 89.214844 312.128906 L 61.207031 312.128906 C 60.765625 312.128906 60.425781 311.785156 60.425781 311.34375 C 60.472656 310.609375 60.472656 309.285156 60.328125 306.886719 C 60.082031 302.378906 62.867188 301.152344 62.867188 301.152344 C 71.667969 305.808594 75.234375 300.320312 75.234375 300.320312 L 78.902344 303.894531 L 85.792969 305.90625 C 88.285156 306.542969 89.996094 308.796875 89.996094 311.292969 Z M 89.996094 311.292969 " fill-opacity="1" fill-rule="nonzero"/></g><path fill="#66d3d8" d="M 86.769531 250.101562 L 82.613281 290.617188 C 82.371094 292.824219 80.855469 294.585938 78.800781 295.222656 C 78.3125 295.371094 77.824219 295.421875 77.289062 295.421875 L 60.132812 295.421875 C 56.710938 295.421875 54.121094 292.1875 54.949219 288.855469 L 64.628906 247.75 C 65.117188 245.738281 64.96875 243.632812 64.238281 241.722656 C 56.613281 221.929688 53.191406 204.535156 54.21875 189.738281 L 78.363281 189.738281 L 79.730469 198.3125 L 86.574219 240.546875 C 87.113281 243.683594 87.160156 246.867188 86.769531 250.101562 Z M 86.769531 250.101562 " fill-opacity="1" fill-rule="nonzero"/><path fill="#47b6c3" d="M 77.628906 293.363281 C 78.167969 293.851562 78.558594 294.488281 78.800781 295.125 C 78.3125 295.273438 77.824219 295.324219 77.289062 295.324219 L 60.132812 295.324219 C 56.710938 295.324219 54.121094 292.089844 54.949219 288.757812 L 64.628906 247.652344 C 65.117188 245.640625 64.96875 243.535156 64.238281 241.625 C 56.613281 221.832031 53.191406 204.4375 54.21875 189.640625 L 78.363281 189.640625 L 79.730469 198.214844 C 75.429688 201.15625 70.296875 202.96875 67.023438 207.035156 C 61.988281 213.207031 63.164062 222.417969 66.242188 229.816406 C 69.320312 237.167969 73.964844 244.023438 75.429688 251.863281 C 76.796875 259.457031 74.84375 267.640625 70.152344 273.765625 C 68.34375 276.164062 66.09375 278.273438 64.824219 280.96875 C 63.503906 283.660156 63.40625 287.289062 65.605469 289.34375 C 68.734375 292.285156 74.5 290.375 77.628906 293.363281 Z M 77.628906 293.363281 " fill-opacity="1" fill-rule="nonzero"/><path stroke-linecap="round" transform="matrix(0.488767, 0, 0, 0.489944, -37.279428, 15.417613)" fill="none" stroke-linejoin="round" d="M 208.500926 474.098585 L 188.69662 557.99694 C 187.09821 564.901432 192.301036 571.399309 199.302074 571.399309 L 234.403167 571.399309 C 239.997604 571.399309 244.696931 567.197615 245.296335 561.60067 L 253.799878 478.898244 C 254.599084 472.400367 254.503179 465.798843 253.49618 459.300966 L 236.696886 355.598039 L 187.298011 355.598039 C 185.100197 385.799214 192.197139 421.302338 207.797625 461.700795 C 209.196234 465.703169 209.499932 470.000538 208.500926 474.098585 Z M 208.500926 474.098585 " stroke="#112544" stroke-width="1.5" stroke-opacity="1" stroke-miterlimit="10"/><path stroke-linecap="round" transform="matrix(0.488767, 0, 0, 0.489944, -37.279428, 15.417613)" fill="none" stroke-linejoin="round" d="M 133.903109 576.198968 C 133.903109 576.198968 124.496464 585.702612 108.800073 572.698885 L 110.598285 559.400162 L 135.197822 564.50279 Z M 133.903109 576.198968 " stroke="#112544" stroke-width="1.5" stroke-opacity="1" stroke-miterlimit="10"/><g clip-path="url(#ca0570eb33)"><path fill="#112544" d="M 40.289062 311.492188 L 40.289062 311.539062 C 40.191406 311.929688 39.800781 312.226562 39.40625 312.128906 L 11.988281 306.445312 C 11.546875 306.347656 11.304688 305.90625 11.402344 305.511719 C 11.597656 304.828125 11.890625 303.503906 12.234375 301.152344 C 12.867188 296.695312 15.898438 296.058594 15.898438 296.058594 C 23.570312 302.425781 28.167969 297.773438 28.167969 297.773438 L 31.050781 302.035156 L 37.402344 305.414062 C 39.605469 306.492188 40.824219 308.992188 40.289062 311.492188 Z M 40.289062 311.492188 " fill-opacity="1" fill-rule="nonzero"/></g><path fill="#66d3d8" d="M 64.824219 189.691406 L 64.1875 194.882812 L 58.421875 241.527344 C 57.933594 245.300781 56.953125 249.023438 55.488281 252.550781 L 39.40625 289.980469 C 38.625 291.792969 36.914062 293.019531 34.910156 293.214844 C 34.765625 293.214844 34.617188 293.214844 34.472656 293.214844 L 13.992188 293.214844 C 9.886719 293.214844 7.34375 288.757812 9.347656 285.230469 L 31.195312 247.015625 C 32.320312 245.003906 32.859375 242.703125 32.808594 240.351562 C 32.273438 224.722656 33.25 209.191406 41.019531 189.738281 L 64.824219 189.738281 Z M 64.824219 189.691406 " fill-opacity="1" fill-rule="nonzero"/><path fill="#47b6c3" d="M 64.824219 189.691406 L 64.1875 194.882812 C 60.914062 193.414062 57.445312 192.875 53.4375 194.003906 C 47.570312 195.570312 42.730469 200.421875 41.070312 206.300781 C 39.015625 213.699219 41.949219 221.4375 43.171875 229.03125 C 45.761719 245.152344 39.996094 262.347656 28.214844 273.617188 C 24.648438 277.046875 16.972656 282.339844 20.589844 285.71875 C 22.789062 287.777344 26.699219 285.964844 29.484375 287.1875 C 32.078125 288.316406 34.324219 290.519531 34.960938 293.265625 C 34.8125 293.265625 34.667969 293.265625 34.519531 293.265625 L 14.042969 293.265625 C 9.933594 293.265625 7.394531 288.804688 9.398438 285.277344 L 31.246094 247.0625 C 32.371094 245.054688 32.90625 242.75 32.859375 240.398438 C 32.320312 224.769531 33.296875 209.238281 41.070312 189.789062 L 64.824219 189.789062 Z M 64.824219 189.691406 " fill-opacity="1" fill-rule="nonzero"/><path stroke-linecap="round" transform="matrix(0.488767, 0, 0, 0.489944, -37.279428, 15.417613)" fill="none" stroke-linejoin="round" d="M 104.899951 566.998293 L 146.802282 566.998293 C 151.197911 566.998293 155.098032 564.399143 156.800339 560.396769 L 189.703619 484.000871 C 192.700638 476.801383 194.698651 469.298926 195.697658 461.501474 L 208.796632 355.701686 L 160.101057 355.701686 C 144.196873 395.398532 142.19886 427.202251 143.301763 458.997997 C 143.501564 463.701982 142.302756 468.397994 140.001045 472.599688 L 95.301497 550.59813 C 91.297478 557.901266 96.596209 566.998293 104.899951 566.998293 Z M 104.899951 566.998293 " stroke="#112544" stroke-width="1.5" stroke-opacity="1" stroke-miterlimit="10"/><path fill="#8d95ff" d="M 98.84375 192.238281 L 98.449219 192.484375 C 96.59375 193.511719 94.199219 192.925781 93.074219 191.113281 L 78.605469 168.183594 L 78.507812 180.382812 L 78.410156 189.738281 L 41.019531 189.738281 C 40.484375 185.28125 39.75 179.058594 39.503906 172.835938 C 39.164062 163.917969 39.75 154.953125 43.316406 150.984375 C 44.246094 149.957031 45.273438 149.023438 46.300781 148.289062 C 53.484375 143 62.722656 143.441406 62.722656 143.441406 L 69.859375 145.105469 L 71.472656 145.496094 C 75.285156 146.378906 78.851562 147.996094 82.027344 150.25 C 83.445312 151.277344 85.546875 153.875 87.941406 157.355469 C 92.734375 164.164062 98.597656 174.207031 102.164062 181.117188 C 104.316406 185.035156 102.800781 190.035156 98.84375 192.238281 Z M 98.84375 192.238281 " fill-opacity="1" fill-rule="nonzero"/><path fill="#757bff" d="M 87.992188 157.257812 C 86.378906 155.984375 84.714844 154.757812 82.957031 153.628906 C 80.171875 151.867188 77.140625 150.398438 73.964844 149.320312 C 68.292969 147.410156 62.28125 146.625 56.320312 147.113281 C 53.484375 147.359375 50.796875 148.191406 48.011719 148.535156 C 47.179688 148.632812 46.691406 148.484375 46.347656 148.191406 C 53.535156 142.902344 62.769531 143.34375 62.769531 143.34375 L 69.90625 145.007812 L 71.519531 145.398438 C 75.332031 146.28125 78.902344 147.898438 82.078125 150.152344 C 83.496094 151.179688 85.597656 153.828125 87.992188 157.257812 Z M 87.992188 157.257812 " fill-opacity="1" fill-rule="nonzero"/><path stroke-linecap="round" transform="matrix(0.488767, 0, 0, 0.489944, -37.279428, 15.417613)" fill-opacity="1" fill="#ffffff" fill-rule="nonzero" stroke-linejoin="round" d="M 220.496996 264.803164 L 220.401092 265.297481 C 218.698785 271.301041 213.096356 275.502736 206.798619 275.502736 C 205.503906 275.502736 204.097305 275.303415 202.802592 274.896799 C 199.198177 273.900192 196.201157 271.500363 194.402945 268.199601 C 193.403939 266.397735 192.796543 264.396549 192.700638 262.403335 C 199.501875 261.199434 204.696709 261.199434 204.696709 261.199434 L 219.298188 264.603843 Z M 220.496996 264.803164 " stroke="#112544" stroke-width="1.5" stroke-opacity="1" stroke-miterlimit="10"/><path fill="#757bff" d="M 78.460938 180.332031 L 78.363281 189.691406 L 40.972656 189.691406 C 40.433594 185.230469 39.703125 179.011719 39.457031 172.789062 C 40.726562 171.90625 42.292969 171.414062 43.808594 171.121094 C 46.105469 170.632812 48.546875 170.289062 50.355469 168.769531 C 51.773438 167.59375 52.019531 167.054688 52.800781 165.390625 C 53.191406 164.507812 50.796875 161.617188 52.066406 161.8125 C 53.289062 162.007812 56.171875 165.78125 56.367188 166.664062 C 57.050781 169.75 58.859375 170.4375 60.914062 172.886719 C 63.992188 176.609375 68.539062 179.15625 73.328125 179.792969 C 75.039062 180.039062 76.796875 180.085938 78.460938 180.332031 Z M 78.460938 180.332031 " fill-opacity="1" fill-rule="nonzero"/><path stroke-linecap="round" transform="matrix(0.488767, 0, 0, 0.489944, -37.279428, 15.417613)" fill-opacity="1" fill="#fcbba4" fill-rule="nonzero" stroke-linejoin="round" d="M 285.400453 338.001948 C 279.598223 326.903733 271.302473 312.201788 263.102627 299.50103 C 253.99968 300.202641 245.296335 304.396363 237.000584 311.803145 L 266.49925 358.603805 C 268.800961 362.30321 273.700089 363.602785 277.496314 361.402277 L 278.399415 360.899988 C 286.599261 356.403297 289.700177 346.198043 285.400453 338.001948 Z M 285.400453 338.001948 " stroke="#112544" stroke-width="1.5" stroke-opacity="1" stroke-miterlimit="10"/><path stroke-linecap="round" transform="matrix(0.488767, 0, 0, 0.489944, -37.279428, 15.417613)" fill="none" stroke-linejoin="round" d="M 278.503312 360.899988 L 277.696115 361.402277 C 273.89989 363.499138 269.000762 362.30321 266.699051 358.603805 L 237.096489 311.803145 L 236.696886 355.79736 L 160.196961 355.79736 C 157.599544 333.600931 153.80332 291.599931 165.000185 276.698664 C 171.60162 267.896632 183.597691 264.101553 192.700638 262.499009 C 199.501875 261.303081 204.696709 261.303081 204.696709 261.303081 L 219.298188 264.699517 L 220.496996 265.002486 L 222.598906 265.496803 C 230.399149 267.298668 237.703885 270.59943 244.201424 275.199767 C 252.800872 281.402649 274.403389 317.001447 285.400453 338.097622 C 289.700177 346.198043 286.599261 356.403297 278.503312 360.899988 Z M 278.503312 360.899988 " stroke="#112544" stroke-width="1.5" stroke-opacity="1" stroke-miterlimit="10"/><path fill="#efa130" d="M 127.921875 167.25 C 127.875 167.152344 127.824219 167.054688 127.824219 167.007812 C 126.3125 163.871094 122.546875 162.597656 119.46875 164.117188 L 51.089844 197.480469 C 44.441406 189.886719 33.003906 187.484375 23.082031 192.335938 C 15.359375 196.109375 10.523438 203.359375 9.640625 211.101562 C 9.203125 215.117188 9.835938 219.28125 11.695312 223.152344 C 17.167969 234.421875 31.195312 238.929688 42.925781 233.199219 C 52.3125 228.640625 57.445312 218.941406 56.367188 209.484375 C 56.367188 209.289062 56.320312 209.09375 56.320312 208.894531 L 56.464844 208.847656 L 80.464844 197.136719 L 84.765625 205.957031 C 85.304688 207.082031 86.671875 207.574219 87.84375 207.035156 L 94.148438 203.949219 C 95.273438 203.410156 95.761719 201.988281 95.226562 200.859375 L 94.296875 198.902344 L 90.972656 191.992188 L 92.929688 191.0625 L 106.664062 184.351562 L 114.386719 200.175781 C 114.921875 201.300781 116.292969 201.792969 117.414062 201.253906 L 123.71875 198.167969 C 124.84375 197.628906 125.332031 196.253906 124.796875 195.078125 L 123.867188 193.121094 L 117.121094 179.207031 L 119.078125 178.273438 L 125.089844 175.335938 C 127.921875 173.964844 129.242188 170.335938 127.921875 167.25 Z M 20.054688 209.191406 C 20.347656 208.894531 20.6875 208.652344 21.078125 208.457031 C 21.910156 208.0625 22.839844 208.015625 23.667969 208.308594 C 24.5 208.601562 25.183594 209.191406 25.625 210.023438 L 30.171875 219.429688 L 30.757812 220.605469 C 31.585938 222.320312 30.855469 224.328125 29.191406 225.164062 C 27.480469 225.996094 25.476562 225.261719 24.648438 223.59375 L 19.515625 213.0625 C 18.832031 211.6875 19.125 210.171875 20.054688 209.191406 Z M 20.054688 209.191406 " fill-opacity="1" fill-rule="nonzero"/><path fill="#ffc25e" d="M 127.824219 167.007812 C 126.3125 163.871094 122.546875 162.597656 119.46875 164.117188 L 51.089844 197.480469 C 44.441406 189.886719 33.003906 187.484375 23.082031 192.335938 C 15.359375 196.109375 10.523438 203.359375 9.640625 211.101562 C 9.933594 213.5 10.570312 215.902344 11.695312 218.207031 C 17.167969 229.472656 31.195312 233.980469 42.925781 228.25 C 50.648438 224.476562 55.539062 217.226562 56.367188 209.484375 C 56.417969 209.289062 56.417969 209.042969 56.417969 208.847656 C 56.5625 207.230469 56.515625 205.566406 56.269531 203.949219 L 80.414062 192.140625 L 84.714844 200.960938 C 85.253906 202.085938 86.621094 202.574219 87.796875 202.039062 L 94.101562 198.949219 C 94.148438 198.949219 94.148438 198.902344 94.199219 198.902344 L 90.875 191.992188 L 88.921875 187.976562 L 106.515625 179.351562 L 114.238281 195.179688 C 114.777344 196.304688 116.144531 196.792969 117.269531 196.253906 L 123.574219 193.167969 C 123.621094 193.167969 123.621094 193.121094 123.671875 193.121094 L 116.925781 179.207031 L 114.972656 175.1875 L 124.894531 170.335938 C 126.3125 169.652344 127.335938 168.523438 127.921875 167.152344 C 127.875 167.203125 127.824219 167.105469 127.824219 167.007812 Z M 30.121094 224.328125 C 29.828125 224.625 29.535156 224.867188 29.144531 225.066406 C 27.433594 225.898438 25.429688 225.164062 24.597656 223.496094 L 20.054688 214.089844 L 19.464844 212.914062 C 18.636719 211.25 19.320312 209.191406 21.03125 208.359375 C 21.863281 207.964844 22.789062 207.917969 23.621094 208.210938 C 24.453125 208.503906 25.136719 209.09375 25.574219 209.925781 L 30.707031 220.460938 C 31.34375 221.832031 31.050781 223.351562 30.121094 224.328125 Z M 30.121094 224.328125 " fill-opacity="1" fill-rule="nonzero"/><path stroke-linecap="round" transform="matrix(0.488767, 0, 0, 0.489944, -37.279428, 15.417613)" fill="none" stroke-linejoin="round" d="M 331.29881 366.7999 L 315.498522 334.501864 L 331.802309 326.600765 C 338.100046 323.499324 340.80136 315.797546 337.700444 309.49899 C 334.599527 303.096788 326.903181 300.497637 320.597452 303.599078 L 180.696576 371.703206 C 167.102095 356.203976 143.701365 351.30067 123.401553 361.202956 C 99.401419 372.80346 89.003759 401.003449 100.200625 423.997163 C 111.39749 446.99885 140.09695 456.199525 164.097083 444.503347 C 183.701587 434.999703 194.203144 414.597167 191.50183 394.896242 L 240.900706 370.802274 L 249.699956 388.797008 C 250.802859 391.101163 253.600077 392.09777 255.997693 390.997516 L 268.896865 384.69896 C 271.198576 383.598706 272.197583 380.696587 271.102672 378.400405 L 262.303422 360.397698 L 294.3036 344.802793 L 310.103887 377.100829 C 311.198798 379.397012 313.996017 380.401591 316.297728 379.301337 L 329.1969 373.002782 C 331.498611 371.998202 332.497618 369.19973 331.29881 366.7999 Z M 135.901122 427.999537 C 132.400603 429.697755 128.300681 428.198858 126.598373 424.802422 L 116.096817 403.299631 C 114.402502 399.903195 115.897015 395.7015 119.30163 394.003282 C 121.003937 393.198024 122.898053 393.10235 124.60036 393.700314 C 126.302668 394.298278 127.701277 395.502179 128.596387 397.200397 L 139.097943 418.703187 C 140.80025 422.099624 139.297745 426.301318 135.901122 427.999537 Z M 135.901122 427.999537 " stroke="#112544" stroke-width="1.5" stroke-opacity="1" stroke-miterlimit="10"/><path fill="#fc6054" d="M 75.285156 130.847656 C 72.988281 131.484375 70.640625 130.164062 70.003906 127.859375 C 69.859375 127.320312 69.808594 126.734375 69.859375 126.195312 C 69.46875 126.144531 69.125 126.097656 68.734375 125.996094 C 68.050781 128.105469 66.484375 129.867188 64.382812 130.652344 C 64.578125 132.710938 63.308594 134.667969 61.257812 135.257812 C 58.957031 135.894531 56.613281 134.570312 55.976562 132.269531 C 55.636719 131.09375 55.832031 129.917969 56.417969 128.9375 C 55.585938 128.054688 54.949219 126.976562 54.609375 125.753906 C 53.535156 121.785156 55.832031 117.71875 59.742188 116.640625 C 61.792969 116.050781 63.847656 116.394531 65.507812 117.425781 C 66.242188 116.246094 67.414062 115.316406 68.878906 114.875 C 71.960938 114.042969 75.136719 115.808594 75.96875 118.894531 C 76.308594 120.214844 76.210938 121.539062 75.722656 122.714844 C 76.945312 123.207031 77.875 124.234375 78.265625 125.558594 C 78.902344 127.859375 77.582031 130.210938 75.285156 130.847656 Z M 75.285156 130.847656 " fill-opacity="1" fill-rule="nonzero"/><path fill="#e64b38" d="M 66.144531 124.28125 C 66.144531 124.28125 66.09375 126.683594 68.78125 128.105469 L 69.515625 125.996094 C 68.097656 125.898438 67.074219 125.214844 66.144531 124.28125 Z M 66.144531 124.28125 " fill-opacity="1" fill-rule="nonzero"/><path fill="#e64b38" d="M 75.917969 118.648438 C 74.5 116.984375 72.203125 116.199219 69.957031 116.835938 C 68.488281 117.226562 67.316406 118.160156 66.582031 119.382812 C 64.921875 118.355469 62.820312 118.011719 60.816406 118.601562 C 56.855469 119.675781 54.558594 123.746094 55.683594 127.710938 C 55.734375 127.910156 55.78125 128.105469 55.878906 128.300781 C 55.292969 127.566406 54.851562 126.683594 54.609375 125.753906 C 53.535156 121.785156 55.832031 117.71875 59.742188 116.640625 C 61.792969 116.050781 63.847656 116.394531 65.507812 117.425781 C 66.242188 116.246094 67.414062 115.316406 68.878906 114.875 C 71.863281 114.042969 74.941406 115.710938 75.917969 118.648438 Z M 75.917969 118.648438 " fill-opacity="1" fill-rule="nonzero"/><path stroke-linecap="round" transform="matrix(0.488767, 0, 0, 0.489944, -37.279428, 15.417613)" fill="none" stroke-linejoin="round" d="M 230.303245 235.598596 C 225.603918 236.898171 220.800694 234.203346 219.49799 229.499362 C 219.202284 228.399108 219.098387 227.203179 219.202284 226.102925 C 218.403079 225.999278 217.699778 225.903604 216.900573 225.69631 C 215.501964 230.001652 212.297151 233.597409 207.997426 235.199953 C 208.397029 239.401648 205.799612 243.396048 201.603785 244.599949 C 196.896466 245.899525 192.101234 243.196727 190.79853 238.500715 C 190.103221 236.100886 190.502824 233.701056 191.701632 231.69987 C 189.999325 229.898004 188.69662 227.697496 188.001312 225.201993 C 185.803497 217.101572 190.502824 208.80183 198.502868 206.601322 C 202.698696 205.397421 206.902515 206.099032 210.299138 208.203866 C 211.801643 205.796063 214.199259 203.898524 217.196279 202.997591 C 223.502008 201.299373 229.999547 204.903104 231.701854 211.201659 C 232.397162 213.896484 232.197361 216.599282 231.198354 218.999111 C 233.699867 220.003691 235.601975 222.100552 236.40118 224.80335 C 237.703885 229.499362 235.002571 234.29902 230.303245 235.598596 Z M 230.303245 235.598596 " stroke="#112544" stroke-width="1.5" stroke-opacity="1" stroke-miterlimit="10"/><path fill="#fcbba4" d="M 78.3125 131.484375 C 77.921875 132.074219 77.289062 132.417969 76.601562 132.367188 C 77.386719 136.433594 74.941406 140.453125 70.882812 141.578125 C 70.199219 141.773438 69.515625 141.871094 68.832031 141.871094 L 68.78125 141.871094 L 68.539062 142.65625 L 68.148438 144.027344 L 67.953125 144.617188 C 67.269531 146.917969 64.871094 148.289062 62.527344 147.605469 C 61.355469 147.261719 60.472656 146.476562 59.886719 145.496094 C 59.351562 144.519531 59.203125 143.34375 59.546875 142.167969 L 60.570312 138.539062 L 60.816406 137.757812 L 61.160156 136.628906 C 60.621094 136.972656 59.9375 137.023438 59.351562 136.726562 C 58.421875 136.238281 58.03125 135.109375 58.46875 134.132812 C 58.8125 133.445312 59.496094 133.054688 60.230469 133.054688 L 60.035156 132.367188 C 59.886719 131.878906 59.789062 131.339844 59.789062 130.847656 C 61.011719 131.191406 62.378906 131.191406 63.699219 130.847656 C 66.191406 130.164062 68.050781 128.25 68.78125 125.949219 C 69.808594 126.242188 70.882812 126.292969 71.960938 125.996094 C 72.644531 125.800781 73.28125 125.507812 73.867188 125.066406 C 74.402344 125.703125 74.890625 126.488281 75.1875 127.320312 C 75.285156 127.566406 75.382812 127.859375 75.480469 128.152344 L 75.625 128.886719 C 76.261719 128.496094 77.09375 128.449219 77.726562 128.886719 C 78.605469 129.425781 78.851562 130.601562 78.3125 131.484375 Z M 78.3125 131.484375 " fill-opacity="1" fill-rule="nonzero"/><path fill="#f2a07c" d="M 68.832031 141.871094 L 68.585938 142.65625 L 68.195312 144.027344 C 66.289062 143.539062 65.410156 141.089844 65.410156 141.089844 C 66.730469 141.527344 67.902344 141.824219 68.832031 141.871094 Z M 68.832031 141.871094 " fill-opacity="1" fill-rule="nonzero"/><path fill="#f2a07c" d="M 75.1875 127.320312 C 74.792969 127.957031 74.160156 128.449219 73.574219 128.839844 C 72.253906 129.574219 70.6875 129.820312 69.175781 129.964844 C 67.660156 130.113281 66.144531 130.210938 64.726562 130.800781 C 63.847656 131.140625 62.917969 131.828125 62.820312 132.808594 C 62.769531 133.296875 62.964844 133.789062 63.0625 134.328125 C 63.359375 135.601562 62.917969 137.070312 61.941406 137.953125 C 61.550781 138.296875 61.109375 138.539062 60.621094 138.636719 L 60.863281 137.855469 L 61.207031 136.726562 C 60.667969 137.070312 59.984375 137.121094 59.398438 136.824219 C 58.46875 136.335938 58.078125 135.207031 58.519531 134.230469 C 58.859375 133.542969 59.546875 133.152344 60.277344 133.152344 L 60.082031 132.464844 C 59.9375 131.976562 59.839844 131.4375 59.839844 130.945312 C 61.058594 131.289062 62.429688 131.289062 63.75 130.945312 C 66.242188 130.261719 68.097656 128.351562 68.832031 126.046875 C 69.859375 126.339844 70.933594 126.390625 72.007812 126.097656 C 72.691406 125.898438 73.328125 125.605469 73.914062 125.164062 C 74.402344 125.753906 74.84375 126.488281 75.1875 127.320312 Z M 75.1875 127.320312 " fill-opacity="1" fill-rule="nonzero"/><path stroke-linecap="round" transform="matrix(0.488767, 0, 0, 0.489944, -37.279428, 15.417613)" fill="none" stroke-linejoin="round" d="M 236.497085 236.898171 C 235.69788 238.102072 234.403167 238.803684 232.996566 238.700037 C 234.602969 246.999779 229.599944 255.203847 221.296202 257.500029 C 219.897592 257.898672 218.498983 258.097993 217.100374 258.097993 L 216.596875 259.700537 L 215.398067 263.798585 C 213.999458 268.502569 209.10033 271.301041 204.297106 269.897819 C 201.899491 269.196208 200.101279 267.601636 198.902471 265.60045 C 197.799568 263.599263 197.503862 261.199434 198.19917 258.799604 L 200.796587 249.798251 L 201.499888 247.502069 C 200.396985 248.20368 198.998376 248.299354 197.799568 247.70139 C 195.897459 246.69681 195.098254 244.400628 196.001356 242.399441 C 196.696664 240.996219 198.103266 240.198933 199.597779 240.198933 L 199.198177 238.803684 C 198.902471 237.799104 198.70267 236.69885 198.70267 235.702243 C 201.19619 236.403854 204.0014 236.403854 206.702714 235.702243 C 211.801643 234.29902 215.597868 230.400294 217.100374 225.69631 C 219.202284 226.302247 221.400098 226.397921 223.597913 225.799957 C 224.996522 225.401314 226.299226 224.80335 227.498034 223.902417 C 229.00054 225.69631 230.103443 227.697496 230.798752 230.097326 L 231.10245 231.596223 C 232.397162 230.798937 234.099469 230.703263 235.402174 231.596223 C 237.096489 232.696477 237.599988 235.096306 236.497085 236.898171 Z M 236.497085 236.898171 " stroke="#112544" stroke-width="1.5" stroke-opacity="1" stroke-miterlimit="10"/><path stroke-linecap="round" transform="matrix(0.488767, 0, 0, 0.489944, -37.279428, 15.417613)" fill="none" stroke-linejoin="round" d="M 236.497085 236.898171 C 235.69788 238.102072 234.403167 238.803684 232.996566 238.700037 C 234.602969 246.999779 229.599944 255.203847 221.296202 257.500029 C 219.897592 257.898672 218.498983 258.097993 217.100374 258.097993 L 216.596875 259.700537 L 215.398067 263.798585 C 213.999458 268.502569 209.10033 271.301041 204.297106 269.897819 C 201.899491 269.196208 200.101279 267.601636 198.902471 265.60045 C 197.799568 263.599263 197.503862 261.199434 198.19917 258.799604 L 200.796587 249.798251 L 201.499888 247.502069 C 200.396985 248.20368 198.998376 248.299354 197.799568 247.70139 C 195.897459 246.69681 195.098254 244.400628 196.001356 242.399441 C 196.696664 240.996219 198.103266 240.198933 199.597779 240.198933 L 199.198177 238.803684 C 198.902471 237.799104 198.70267 236.69885 198.70267 235.702243 C 201.19619 236.403854 204.0014 236.403854 206.702714 235.702243 C 211.801643 234.29902 215.597868 230.400294 217.100374 225.69631 C 219.202284 226.302247 221.400098 226.397921 223.597913 225.799957 C 224.996522 225.401314 226.299226 224.80335 227.498034 223.902417 C 229.00054 225.69631 230.103443 227.697496 230.798752 230.097326 L 231.10245 231.596223 C 232.397162 230.798937 234.099469 230.703263 235.402174 231.596223 C 237.096489 232.696477 237.599988 235.096306 236.497085 236.898171 Z M 236.497085 236.898171 " stroke="#112544" stroke-width="1.5" stroke-opacity="1" stroke-miterlimit="10"/><path stroke-linecap="round" transform="matrix(0.488767, 0, 0, 0.489944, -37.279428, 15.417613)" fill="none" stroke-linejoin="round" d="M 217.100374 258.097993 C 214.199259 258.097993 211.402041 257.396382 208.900528 256.001132 " stroke="#112544" stroke-width="1.5" stroke-opacity="1" stroke-miterlimit="10"/><path stroke-linecap="round" transform="matrix(0.488767, 0, 0, 0.489944, -37.279428, 15.417613)" fill="none" stroke-linejoin="round" d="M 216.996477 225.69631 C 214.303156 224.899024 211.897548 223.097159 210.403034 220.69733 " stroke="#112544" stroke-width="1.5" stroke-opacity="1" stroke-miterlimit="10"/><path fill="#112544" d="M 73.425781 130.945312 C 73.523438 131.289062 73.328125 131.582031 72.988281 131.679688 C 72.644531 131.777344 72.300781 131.582031 72.253906 131.289062 C 72.15625 130.945312 72.351562 130.601562 72.691406 130.554688 C 73.035156 130.503906 73.328125 130.601562 73.425781 130.945312 Z M 73.425781 130.945312 " fill-opacity="1" fill-rule="nonzero"/><path fill="#112544" d="M 73.425781 128.644531 C 73.523438 128.9375 72.742188 129.328125 72.007812 129.527344 C 71.277344 129.722656 70.25 129.917969 70.199219 129.625 C 70.101562 129.328125 71.03125 128.742188 71.714844 128.546875 C 72.449219 128.351562 73.328125 128.398438 73.425781 128.644531 Z M 73.425781 128.644531 " fill-opacity="1" fill-rule="nonzero"/><path fill="#112544" d="M 67.367188 130.503906 C 67.464844 130.800781 66.679688 131.191406 65.949219 131.386719 C 65.214844 131.582031 64.1875 131.777344 64.140625 131.484375 C 64.042969 131.191406 64.96875 130.601562 65.65625 130.40625 C 66.339844 130.210938 67.269531 130.210938 67.367188 130.503906 Z M 67.367188 130.503906 " fill-opacity="1" fill-rule="nonzero"/><path fill="#112544" d="M 66.925781 132.957031 C 67.023438 133.296875 66.828125 133.59375 66.484375 133.691406 C 66.144531 133.789062 65.800781 133.59375 65.753906 133.296875 C 65.65625 132.957031 65.851562 132.613281 66.191406 132.5625 C 66.484375 132.464844 66.875 132.660156 66.925781 132.957031 Z M 66.925781 132.957031 " fill-opacity="1" fill-rule="nonzero"/><path stroke-linecap="round" transform="matrix(0.488767, 0, 0, 0.489944, -37.279428, 15.417613)" fill="none" stroke-linejoin="round" d="M 218.498983 237.001818 C 218.498983 237.001818 223.19831 242.503088 221.5999 242.399441 C 221.0964 242.399441 219.601886 242.598763 219.601886 242.598763 " stroke="#112544" stroke-width="1.5" stroke-opacity="1" stroke-miterlimit="10"/><path stroke-linecap="round" transform="matrix(0.488767, 0, 0, 0.489944, -37.279428, 15.417613)" fill="none" stroke-linejoin="round" d="M 233.196367 234.80131 L 234.003565 234.601989 " stroke="#112544" stroke-width="1.5" stroke-opacity="1" stroke-miterlimit="10"/><path stroke-linecap="round" transform="matrix(0.488767, 0, 0, 0.489944, -37.279428, 15.417613)" fill="none" stroke-linejoin="round" d="M 198.103266 244.496302 L 198.902471 244.296981 " stroke="#112544" stroke-width="1.5" stroke-opacity="1" stroke-miterlimit="10"/><path fill="#112544" d="M 68.441406 136.140625 C 68.441406 136.238281 68.683594 137.953125 69.613281 138.933594 C 69.90625 139.273438 70.347656 139.519531 70.835938 139.617188 C 70.882812 139.617188 70.933594 139.617188 70.984375 139.617188 C 71.617188 139.617188 72.105469 139.175781 72.496094 138.636719 C 73.230469 137.5625 73.523438 136.042969 73.523438 135.894531 C 73.523438 135.847656 73.523438 135.796875 73.476562 135.796875 C 73.425781 135.796875 73.378906 135.796875 73.378906 135.796875 C 73.378906 135.796875 73.132812 135.945312 72.691406 136.089844 C 72.007812 136.335938 70.785156 136.53125 69.320312 136.238281 C 69.078125 136.1875 68.832031 136.140625 68.636719 136.042969 C 68.585938 136.042969 68.539062 136.042969 68.539062 136.042969 C 68.441406 136.089844 68.441406 136.089844 68.441406 136.140625 Z M 68.441406 136.140625 " fill-opacity="1" fill-rule="nonzero"/><path fill="#fc6054" d="M 70.003906 138.6875 C 70.25 138.933594 70.542969 139.128906 70.882812 139.175781 C 70.933594 139.175781 70.984375 139.175781 70.984375 139.175781 C 71.472656 139.175781 71.8125 138.882812 72.105469 138.441406 C 71.863281 138.199219 71.570312 138 71.226562 137.953125 C 71.179688 137.953125 71.128906 137.953125 71.128906 137.953125 C 70.640625 137.953125 70.25 138.246094 70.003906 138.6875 Z M 70.003906 138.6875 " fill-opacity="1" fill-rule="nonzero"/><path fill="#ffffff" d="M 69.320312 136.1875 C 69.566406 136.875 70.199219 137.316406 70.984375 137.316406 C 71.765625 137.316406 72.449219 136.777344 72.691406 136.042969 C 71.960938 136.285156 70.785156 136.53125 69.320312 136.1875 Z M 69.320312 136.1875 " fill-opacity="1" fill-rule="nonzero"/><path stroke-linecap="round" transform="matrix(0.488767, 0, 0, 0.489944, -37.279428, 15.417613)" fill="none" stroke-linejoin="round" d="M 237.096489 311.699498 L 237.096489 303.902046 " stroke="#112544" stroke-width="1.5" stroke-opacity="1" stroke-miterlimit="10"/><path fill="#fcbba4" d="M 88.089844 186.800781 C 89.359375 187.535156 90.335938 188.222656 90.53125 189.003906 C 90.828125 190.179688 88.773438 188.957031 87.160156 188.417969 C 88.1875 189.054688 88.871094 189.542969 89.066406 190.179688 C 89.410156 191.40625 87.257812 190.230469 85.597656 189.640625 C 86.425781 190.179688 87.210938 190.179688 87.355469 190.769531 C 87.746094 192.1875 83.300781 191.0625 81.34375 190.523438 C 80.757812 190.375 80.414062 190.230469 80.414062 190.230469 L 62.964844 188.320312 C 61.058594 188.121094 59.203125 187.78125 57.347656 187.242188 C 53.632812 186.164062 50.210938 184.449219 47.375 182 C 44.636719 179.648438 42.488281 176.65625 41.214844 172.984375 C 41.167969 172.886719 41.117188 172.738281 41.117188 172.640625 C 40.042969 169.261719 39.652344 165.730469 40.09375 162.203125 C 40.140625 161.664062 40.238281 161.226562 40.335938 160.832031 L 51.628906 159.3125 L 52.652344 164.164062 C 54.167969 171.414062 59.644531 177.148438 66.777344 178.960938 L 81.589844 182.734375 C 81.589844 182.734375 84.765625 180.085938 85.792969 181.066406 C 86.476562 181.753906 84.714844 183.714844 84.714844 183.714844 C 84.714844 183.714844 90.433594 185.28125 90.925781 187.144531 C 91.121094 188.171875 89.554688 187.242188 88.089844 186.800781 Z M 88.089844 186.800781 " fill-opacity="1" fill-rule="nonzero"/><path fill="#f2a07c" d="M 81.441406 190.179688 C 81.441406 190.328125 81.394531 190.425781 81.296875 190.523438 C 80.707031 190.375 80.367188 190.230469 80.367188 190.230469 L 62.917969 188.320312 C 61.011719 188.121094 59.152344 187.78125 57.296875 187.242188 C 53.582031 186.164062 50.160156 184.449219 47.324219 182 C 44.589844 179.648438 42.4375 176.65625 41.167969 172.984375 C 41.3125 171.90625 41.851562 170.976562 43.074219 170.777344 C 44.636719 170.535156 44.832031 172.589844 45.078125 173.667969 C 45.859375 176.902344 47.71875 179.890625 50.308594 182 C 51.773438 183.175781 53.4375 184.105469 55.242188 184.644531 C 59.152344 185.769531 63.308594 185.230469 67.367188 185.476562 C 71.910156 185.722656 76.359375 186.945312 80.414062 189.003906 C 81.003906 189.199219 81.539062 189.640625 81.441406 190.179688 Z M 81.441406 190.179688 " fill-opacity="1" fill-rule="nonzero"/><path stroke-linecap="round" transform="matrix(0.488767, 0, 0, 0.489944, -37.279428, 15.417613)" fill="none" stroke-linejoin="round" d="M 181.799479 293.696791 L 183.901389 303.599078 C 187.002305 318.396697 198.19917 330.100848 212.80065 333.800253 L 243.09852 341.502031 C 243.09852 341.502031 249.596059 336.096435 251.697969 338.097622 C 253.096578 339.500844 249.500154 343.503218 249.500154 343.503218 C 249.500154 343.503218 261.200519 346.700333 262.199525 350.503384 C 262.798929 352.600245 259.602108 350.702706 256.597097 349.801773 C 259.202506 351.30067 261.200519 352.703892 261.600121 354.298463 C 262.199525 356.698293 258.003698 354.202789 254.70298 353.102535 C 256.796898 354.402111 258.203499 355.398717 258.603102 356.698293 C 259.29841 359.201769 254.902782 356.80194 251.498167 355.598039 C 253.200474 356.698293 254.798885 356.698293 255.102583 357.902194 C 256.101589 361.697273 240.900706 356.80194 240.900706 356.80194 L 205.200208 352.903214 C 201.300087 352.496598 197.503862 351.80296 193.699645 350.702706 C 186.099203 348.502198 179.098165 345.002114 173.303927 340.003134 C 167.501697 335.099828 163.098076 328.801273 160.500659 320.900173 C 158.302845 314.003653 157.50364 306.796192 158.39875 299.596704 C 158.502646 298.49645 158.702448 297.60349 158.902249 296.798232 " stroke="#112544" stroke-width="1.5" stroke-opacity="1" stroke-miterlimit="10"/><path stroke-linecap="round" transform="matrix(0.488767, 0, 0, 0.489944, -37.279428, 15.417613)" fill-opacity="1" fill="#8d95ff" fill-rule="nonzero" stroke-linejoin="round" d="M 158.798352 296.798232 C 158.598551 297.60349 158.502646 298.49645 158.302845 299.596704 C 157.399743 306.796192 158.198948 314.003653 160.396763 320.900173 C 160.900262 322.598391 161.603563 324.200935 162.298871 325.699832 C 171.897326 318.699665 183.301985 318.101701 197.096267 325.699832 C 190.502824 320.102888 185.803497 312.40111 183.997293 303.599078 L 181.903376 293.696791 " stroke="#112544" stroke-width="1.5" stroke-opacity="1" stroke-miterlimit="10"/><path stroke-linecap="round" transform="matrix(0.488767, 0, 0, 0.489944, -37.279428, 15.417613)" fill-opacity="1" fill="#fcbba4" fill-rule="nonzero" stroke-linejoin="round" d="M 285.200652 355.103722 C 282.603235 357.599226 275.402396 360.79634 272.701082 358.603805 C 271.302473 357.503551 266.802948 350.096769 269.400365 349.498805 C 270.599172 349.299483 271.702076 351.101349 272.900883 352.600245 C 271.502274 349.498805 269.400365 346.700333 270.90287 345.7994 C 271.997782 345.201436 273.596192 347.497618 275.002793 349.299483 C 273.596192 346.30169 271.598179 343.303896 272.796987 343.000928 C 274.299493 342.602285 276.201601 344.898467 277.800012 347.202622 C 276.697108 344.499824 275.098698 342.099995 276.401402 341.502031 C 278.998819 340.29813 283.098742 350.79838 283.098742 350.79838 C 283.098742 350.79838 286.503357 347.003301 287.901966 348.199229 C 290.003875 350.001095 286.799062 353.596852 285.200652 355.103722 Z M 285.200652 355.103722 " stroke="#112544" stroke-width="1.5" stroke-opacity="1" stroke-miterlimit="10"/><g clip-path="url(#fadd0f396a)"><path fill="#8d95ff" d="M 133.152344 312.175781 L 210.574219 312.175781 C 213.605469 307.226562 222.648438 291.5 218.542969 286.699219 C 213.652344 280.96875 200.554688 295.761719 200.554688 295.761719 C 200.554688 295.761719 210.671875 275.136719 203.4375 271.121094 C 194.933594 266.464844 183.398438 280.527344 183.398438 280.527344 C 183.398438 280.527344 187.359375 248.289062 174.941406 248.53125 C 163.164062 248.730469 161.160156 283.367188 161.160156 283.367188 C 161.160156 283.367188 145.128906 240.351562 134.179688 244.613281 C 122.304688 249.269531 141.070312 295.371094 141.070312 295.371094 C 141.070312 295.371094 125.429688 272.734375 117.269531 279.449219 C 107.445312 287.53125 128.65625 308.011719 133.152344 312.175781 Z M 133.152344 312.175781 " fill-opacity="1" fill-rule="nonzero"/></g><path fill="#757bff" d="M 188.578125 275.382812 C 188.53125 280.820312 187.992188 285.082031 187.992188 285.082031 C 187.992188 285.082031 197.71875 273.175781 205.882812 274.890625 C 205.589844 273.175781 204.808594 271.855469 203.4375 271.121094 C 198.550781 268.472656 192.683594 271.953125 188.578125 275.382812 Z M 188.578125 275.382812 " fill-opacity="1" fill-rule="nonzero"/><path fill="#757bff" d="M 161.648438 278.027344 C 164.140625 283.710938 165.707031 287.925781 165.707031 287.925781 C 165.707031 287.925781 167.710938 253.285156 179.488281 253.089844 C 180.222656 253.089844 180.855469 253.1875 181.492188 253.382812 C 180.125 250.445312 178.023438 248.484375 174.941406 248.53125 C 166.097656 248.679688 162.773438 268.328125 161.648438 278.027344 Z M 161.648438 278.027344 " fill-opacity="1" fill-rule="nonzero"/><path fill="#757bff" d="M 140.144531 293.070312 C 143.222656 296.597656 145.421875 299.683594 145.617188 299.976562 C 145.175781 298.898438 126.996094 253.824219 138.726562 249.21875 C 140.484375 248.53125 142.34375 249.070312 144.296875 250.394531 C 140.828125 246.035156 137.308594 243.386719 134.179688 244.613281 C 123.914062 248.628906 136.527344 283.613281 140.144531 293.070312 Z M 140.144531 293.070312 " fill-opacity="1" fill-rule="nonzero"/><path fill="#757bff" d="M 132.128906 311.148438 C 124.699219 303.257812 114.386719 290.128906 121.8125 284.003906 C 125.429688 281.066406 130.515625 283.808594 135.058594 287.828125 C 129.78125 281.945312 122.15625 275.429688 117.269531 279.449219 C 108.078125 286.992188 126.066406 305.464844 132.128906 311.148438 Z M 132.128906 311.148438 " fill-opacity="1" fill-rule="nonzero"/><g clip-path="url(#fcf2fcaa96)"><path stroke-linecap="round" transform="matrix(0.488767, 0, 0, 0.489944, -37.279428, 15.417613)" fill="none" stroke-linejoin="round" d="M 348.697508 605.698532 L 507.099985 605.698532 C 513.301818 595.596925 531.803419 563.49821 523.403772 553.699571 C 513.397722 542.003392 486.600371 572.196595 486.600371 572.196595 C 486.600371 572.196595 507.299786 530.09992 492.498505 521.903825 C 475.099807 512.400181 451.499277 541.10246 451.499277 541.10246 C 451.499277 541.10246 459.603218 475.302486 434.196484 475.796803 C 410.100446 476.203419 406.000523 546.898726 406.000523 546.898726 C 406.000523 546.898726 373.20114 459.101645 350.799418 467.800029 C 326.503578 477.303673 364.897398 571.399309 364.897398 571.399309 C 364.897398 571.399309 332.89722 525.196614 316.201823 538.901952 C 296.101811 555.397789 339.498656 597.199469 348.697508 605.698532 Z M 348.697508 605.698532 " stroke="#112544" stroke-width="1.5" stroke-opacity="1" stroke-miterlimit="10"/></g><g clip-path="url(#06ab4d629a)"><path fill="#b9c3fc" d="M 148.941406 312.175781 L 190.484375 312.175781 C 192.097656 309.53125 196.988281 301.105469 194.785156 298.507812 C 192.148438 295.421875 185.109375 303.40625 185.109375 303.40625 C 185.109375 303.40625 190.535156 292.332031 186.625 290.179688 C 182.03125 287.679688 175.871094 295.222656 175.871094 295.222656 C 175.871094 295.222656 177.972656 277.929688 171.328125 278.027344 C 165.019531 278.125 163.945312 296.742188 163.945312 296.742188 C 163.945312 296.742188 155.34375 273.667969 149.476562 275.96875 C 143.074219 278.46875 153.191406 303.210938 153.191406 303.210938 C 153.191406 303.210938 144.785156 291.058594 140.386719 294.683594 C 135.109375 298.949219 146.496094 309.921875 148.941406 312.175781 Z M 148.941406 312.175781 " fill-opacity="1" fill-rule="nonzero"/></g><path fill="#e1e5ff" d="M 175.871094 301.203125 C 175.871094 301.203125 182.03125 293.65625 186.625 296.15625 C 186.96875 296.351562 187.261719 296.644531 187.503906 296.988281 C 188.238281 294.148438 188.480469 291.207031 186.625 290.179688 C 182.664062 288.023438 177.535156 293.363281 176.214844 294.832031 C 176.261719 298.261719 175.871094 301.203125 175.871094 301.203125 Z M 175.871094 301.203125 " fill-opacity="1" fill-rule="nonzero"/><path fill="#e1e5ff" d="M 163.945312 302.671875 C 163.945312 302.671875 165.019531 284.101562 171.328125 283.957031 C 174.648438 283.90625 175.773438 288.167969 176.117188 292.480469 C 176.410156 287.628906 176.359375 277.878906 171.328125 277.976562 C 165.019531 278.078125 163.945312 296.695312 163.945312 296.695312 C 163.945312 296.695312 155.34375 273.570312 149.476562 275.921875 C 147.328125 276.753906 147.035156 280.183594 147.621094 284.347656 C 147.914062 283.171875 148.5 282.289062 149.476562 281.898438 C 155.34375 279.59375 163.945312 302.671875 163.945312 302.671875 Z M 163.945312 302.671875 " fill-opacity="1" fill-rule="nonzero"/><path fill="#e1e5ff" d="M 139.898438 301.054688 C 140.046875 300.90625 140.191406 300.761719 140.339844 300.613281 C 144.640625 297.085938 152.800781 308.699219 153.09375 309.140625 C 152.996094 308.894531 151.089844 304.140625 149.476562 298.703125 C 146.644531 295.664062 142.832031 292.53125 140.289062 294.636719 C 138.480469 296.15625 138.726562 298.507812 139.898438 301.054688 Z M 139.898438 301.054688 " fill-opacity="1" fill-rule="nonzero"/><g clip-path="url(#349a333583)"><path stroke-linecap="round" transform="matrix(0.488767, 0, 0, 0.489944, -37.279428, 15.417613)" fill="none" stroke-linejoin="round" d="M 381.001383 605.698532 L 465.99686 605.698532 C 469.297577 600.300909 479.303627 583.103461 474.796109 577.801512 C 469.401474 571.502957 454.999796 587.799472 454.999796 587.799472 C 454.999796 587.799472 466.100756 565.196428 458.100712 560.803385 C 448.702059 555.700758 436.098592 571.096341 436.098592 571.096341 C 436.098592 571.096341 440.398316 535.800511 426.803835 535.999833 C 413.896671 536.199154 411.698856 574.197782 411.698856 574.197782 C 411.698856 574.197782 394.100357 527.102126 382.096294 531.798138 C 368.997321 536.900765 389.696736 587.40083 389.696736 587.40083 C 389.696736 587.40083 372.49784 562.597277 363.498789 569.996087 C 352.701526 578.702445 375.998359 601.098195 381.001383 605.698532 Z M 381.001383 605.698532 " stroke="#112544" stroke-width="1.5" stroke-opacity="1" stroke-miterlimit="10"/></g><g clip-path="url(#2372f4930c)"><path stroke-linecap="round" transform="matrix(0.488767, 0, 0, 0.489944, -37.279428, 15.417613)" fill="none" stroke-linejoin="round" d="M 317.800233 605.698532 L 300.401536 605.698532 " stroke="#112544" stroke-width="1.5" stroke-opacity="1" stroke-miterlimit="10"/></g><g clip-path="url(#83a8b1b252)"><path stroke-linecap="round" transform="matrix(0.488767, 0, 0, 0.489944, -37.279428, 15.417613)" fill="none" stroke-linejoin="round" d="M 348.697508 605.698532 L 329.300797 605.698532 " stroke="#112544" stroke-width="1.5" stroke-opacity="1" stroke-miterlimit="10"/></g><g clip-path="url(#d41f1dec8a)"><path stroke-linecap="round" transform="matrix(0.488767, 0, 0, 0.489944, -37.279428, 15.417613)" fill="none" stroke-linejoin="round" d="M 507.203882 605.698532 L 537.997259 605.698532 " stroke="#112544" stroke-width="1.5" stroke-opacity="1" stroke-miterlimit="10"/></g><g clip-path="url(#9cc6889c45)"><path stroke-linecap="round" transform="matrix(0.488767, 0, 0, 0.489944, -37.279428, 15.417613)" fill="none" stroke-linejoin="round" d="M 550.097226 605.698532 L 562.596796 605.698532 " stroke="#112544" stroke-width="1.5" stroke-opacity="1" stroke-miterlimit="10"/></g></svg>