<svg xmlns="http://www.w3.org/2000/svg" xmlns:xlink="http://www.w3.org/1999/xlink" width="128" zoomAndPan="magnify" viewBox="0 0 96 95.999999" height="128" preserveAspectRatio="xMidYMid meet" version="1.0"><defs><clipPath id="a120f7e8fe"><path d="M 6.054688 6.054688 L 89.945312 6.054688 L 89.945312 89.945312 L 6.054688 89.945312 Z M 6.054688 6.054688 " clip-rule="nonzero"/></clipPath><clipPath id="2d6f619fb7"><path d="M 48 6.054688 C 24.835938 6.054688 6.054688 24.835938 6.054688 48 C 6.054688 71.164062 24.835938 89.945312 48 89.945312 C 71.164062 89.945312 89.945312 71.164062 89.945312 48 C 89.945312 24.835938 71.164062 6.054688 48 6.054688 Z M 48 6.054688 " clip-rule="nonzero"/></clipPath><clipPath id="7b6554e0b2"><path d="M 13.289062 25.976562 L 83 25.976562 L 83 70.226562 L 13.289062 70.226562 Z M 13.289062 25.976562 " clip-rule="nonzero"/></clipPath></defs><g clip-path="url(#a120f7e8fe)"><g clip-path="url(#2d6f619fb7)"><path fill="#ebebeb" d="M 6.054688 6.054688 L 89.945312 6.054688 L 89.945312 89.945312 L 6.054688 89.945312 Z M 6.054688 6.054688 " fill-opacity="1" fill-rule="nonzero"/></g></g><path fill="#849bff" d="M 29.414062 62.714844 C 24.679688 62.714844 20.714844 58.96875 20.625 54.234375 C 20.53125 49.390625 24.445312 45.425781 29.269531 45.425781 C 29.40625 45.425781 29.585938 45.4375 29.773438 45.453125 L 29.785156 45.453125 C 32.320312 45.644531 34.65625 44.0625 35.417969 41.632812 C 36.84375 36.710938 41.417969 33.269531 46.542969 33.269531 C 50.25 33.269531 53.644531 34.996094 55.863281 38 C 57.121094 39.699219 59.261719 40.496094 61.324219 40.027344 C 62.199219 39.832031 63.0625 39.730469 63.878906 39.730469 C 70.273438 39.730469 75.46875 44.980469 75.371094 51.398438 C 75.273438 57.703125 70.011719 62.710938 63.707031 62.710938 L 29.414062 62.710938 Z M 29.414062 62.714844 " fill-opacity="1" fill-rule="nonzero"/><g clip-path="url(#7b6554e0b2)"><path fill="#849bff" d="M 63.878906 70.011719 L 29.269531 70.011719 C 20.476562 70.011719 13.324219 62.859375 13.324219 54.070312 C 13.324219 45.402344 20.277344 38.324219 28.902344 38.128906 C 31.667969 30.902344 38.710938 25.976562 46.542969 25.976562 C 52.078125 25.976562 57.371094 28.457031 60.945312 32.675781 C 61.933594 32.515625 62.914062 32.433594 63.878906 32.433594 C 74.238281 32.433594 82.667969 40.863281 82.667969 51.226562 C 82.667969 61.582031 74.238281 70.011719 63.878906 70.011719 Z M 29.269531 42.074219 C 22.59375 42.074219 17.171875 47.554688 17.273438 54.253906 C 17.375 60.835938 22.867188 66.0625 29.449219 66.0625 L 63.691406 66.0625 C 71.859375 66.0625 78.640625 59.539062 78.71875 51.367188 C 78.796875 43.117188 72.109375 36.382812 63.878906 36.382812 C 62.808594 36.382812 61.699219 36.507812 60.582031 36.761719 C 59.816406 36.9375 59.023438 36.640625 58.558594 36.011719 C 55.699219 32.140625 51.320312 29.921875 46.542969 29.921875 C 39.9375 29.921875 34.039062 34.355469 32.203125 40.699219 C 31.941406 41.59375 31.09375 42.183594 30.164062 42.117188 C 29.785156 42.09375 29.527344 42.074219 29.269531 42.074219 Z M 29.269531 42.074219 " fill-opacity="1" fill-rule="nonzero"/></g></svg>